<svg xmlns="http://www.w3.org/2000/svg" viewBox="0 0 1080 1527" width="1080" height="1527" role="img" aria-label="Coloring page of phix174"><rect x="0" y="0" width="1080" height="1527" fill="#ffffff"/><g transform="translate(0,190)"><path class="artwork" d="M150.1,1075.8 C150.1,1073.4 150.5,1067.7 150.9,1063.0 L151.8,1054.5 L148.4,1050.8 C128.4,1028.5 131.0,976.8 154.6,929.7 C164.2,910.6 180.0,895.4 195.9,889.9 C200.3,888.4 200.7,888.0 205.8,877.9 C208.7,872.2 220.1,850.5 231.1,829.8 C259.3,776.8 270.7,751.3 290.4,696.6 C304.2,658.5 313.6,635.6 324.0,614.5 C344.6,572.7 363.8,545.2 394.0,514.9 C410.9,498.0 423.1,487.5 443.5,472.6 C466.1,456.1 465.7,456.5 468.0,451.4 C469.1,448.8 470.0,446.6 470.0,446.4 C470.0,446.2 468.3,445.3 466.3,444.5 C456.9,440.5 451.2,432.9 450.3,423.0 C450.0,419.7 449.4,417.0 448.9,417.0 C448.5,417.0 446.1,418.8 443.6,420.9 C432.1,430.9 413.9,443.9 399.5,452.5 C397.9,453.5 398.0,453.8 400.3,457.3 C406.7,466.8 403.8,479.2 392.6,489.8 C379.1,502.6 354.8,508.6 342.5,502.2 C335.4,498.6 330.0,490.9 330.0,484.5 C330.0,483.1 329.6,482.0 329.1,482.0 C328.7,482.0 323.4,483.1 317.4,484.4 C304.4,487.4 280.4,491.0 273.9,491.0 C271.4,491.0 269.1,491.3 268.8,491.6 C268.4,491.9 269.3,494.3 270.6,496.8 C273.9,503.3 274.6,509.5 272.6,516.2 C267.0,535.6 239.9,544.0 210.2,535.4 C200.6,532.6 195.7,530.1 189.2,524.5 C177.7,514.5 175.7,498.6 184.7,488.0 C186.5,485.8 186.8,484.9 185.8,484.5 C185.1,484.3 178.9,482.4 172.0,480.5 C159.1,476.8 146.4,471.7 132.7,464.8 C128.3,462.7 124.2,461.1 123.5,461.4 C122.6,461.7 122.1,464.9 121.8,471.8 C121.5,481.3 121.3,482.0 118.4,485.7 C108.6,497.8 91.0,498.0 72.9,486.0 C49.3,470.5 42.3,446.8 57.7,434.1 C59.8,432.4 63.0,430.7 65.0,430.4 C70.0,429.6 74.0,427.9 74.0,426.6 C74.0,426.0 70.2,421.7 65.6,417.0 C53.5,404.7 44.6,393.9 35.0,380.1 C30.4,373.5 26.3,368.0 25.9,368.0 C25.6,368.0 23.8,369.0 22.0,370.2 C19.6,371.9 18.1,374.2 16.5,378.9 C13.9,385.9 10.2,390.5 5.3,392.6 C0.4,394.7 -0.0,394.5 0.0,388.4 C0.0,384.4 0.5,382.1 2.0,380.3 C3.1,378.9 4.7,375.1 5.6,371.9 C7.0,366.8 7.9,365.5 12.0,362.5 C14.6,360.6 17.2,359.0 17.8,359.0 C20.5,359.0 19.5,355.8 11.9,340.4 C5.1,327.0 3.3,324.0 1.8,324.3 C0.1,324.8 0.0,322.9 0.1,287.2 L0.2,249.5 L2.5,262.0 C11.1,309.3 31.3,352.7 61.4,389.0 C70.1,399.5 85.9,415.1 96.0,423.3 C113.5,437.4 139.8,452.4 161.1,460.3 C174.1,465.2 198.0,471.4 199.2,470.2 C200.9,468.5 201.8,458.6 200.8,452.7 C200.0,448.4 200.1,446.6 201.0,445.5 C204.5,441.3 209.5,446.4 211.2,456.0 C213.5,468.3 209.0,480.5 198.5,490.6 C189.2,499.5 188.6,505.3 196.0,513.4 C208.7,527.2 243.0,530.9 256.2,520.0 C263.2,514.2 263.4,506.3 256.6,497.1 C252.3,491.2 250.6,484.1 251.3,474.7 C252.2,461.6 260.8,449.4 265.7,454.2 C267.2,455.7 267.1,456.3 265.0,461.6 C263.7,464.7 262.6,469.1 262.6,471.4 L262.5,475.5 L271.0,475.3 C292.2,474.8 324.4,467.9 350.5,458.3 C364.3,453.3 393.5,438.2 406.8,429.2 C421.5,419.4 440.0,404.6 440.0,402.7 C440.0,402.0 438.4,400.6 436.5,399.6 C431.2,396.7 430.2,395.1 432.5,393.4 C438.7,388.8 453.7,396.8 458.6,407.4 C459.9,410.2 461.2,415.5 461.6,419.4 C462.2,425.3 462.8,426.9 465.5,429.9 C468.4,433.0 469.4,433.4 474.8,433.8 C480.3,434.2 481.8,433.8 488.4,430.7 C498.2,426.1 506.6,417.5 512.0,406.7 C517.8,395.2 517.4,386.3 511.1,380.6 C509.5,379.1 506.7,378.5 499.7,378.0 C486.1,376.9 478.2,372.3 472.6,362.1 C467.2,352.1 471.1,344.7 477.1,353.5 C478.6,355.7 480.4,357.5 481.1,357.5 C484.6,357.5 505.0,319.5 513.0,298.3 C531.3,249.2 535.2,197.4 524.3,148.0 C513.1,96.9 485.0,48.1 447.7,15.1 C441.9,10.0 435.5,4.6 433.4,3.1 L429.7,0.5 L442.0,0.2 C452.3,-0.0 454.6,0.2 456.1,1.6 C458.0,3.3 461.0,2.9 461.0,1.0 C461.0,0.4 463.6,0.0 467.1,0.0 L473.2,0.0 L472.5,2.7 C472.2,4.2 470.9,6.7 469.8,8.3 C468.4,10.3 468.0,11.7 468.6,12.5 C472.0,17.3 488.7,35.9 489.6,35.9 C490.2,36.0 491.7,34.9 492.9,33.6 C496.4,29.8 501.2,28.0 507.4,28.0 C512.1,28.0 513.5,27.6 515.5,25.5 C519.5,21.5 518.3,12.6 512.4,3.8 L510.0,0.0 L517.4,0.0 L524.8,0.0 L527.1,5.3 C528.9,9.3 529.4,12.3 529.5,18.7 C529.5,26.1 529.3,27.2 526.5,31.1 C522.3,37.1 518.5,39.0 509.5,39.7 C502.1,40.3 497.0,42.5 497.0,45.2 C497.0,45.8 500.2,51.2 504.1,57.4 C514.7,74.1 525.8,97.6 532.5,117.7 C533.1,119.4 535.3,119.3 539.4,117.6 C541.9,116.6 543.6,114.6 546.1,110.0 C549.8,103.1 553.5,99.8 559.7,98.0 C568.2,95.4 578.1,99.4 585.2,108.1 C601.3,127.9 604.5,167.2 591.2,181.4 C583.2,189.9 571.2,190.1 560.9,181.9 C557.3,179.1 556.4,178.8 552.2,179.4 C549.7,179.7 547.1,180.5 546.6,181.0 C545.9,181.7 545.6,188.6 545.8,199.8 C546.2,219.9 544.5,238.4 540.5,258.8 C539.1,266.1 538.2,272.5 538.5,272.9 C538.8,273.4 541.3,273.0 544.0,271.9 C556.4,267.2 567.0,272.3 571.5,284.9 C573.4,290.3 573.4,302.8 571.6,309.8 C568.0,323.1 559.4,336.6 551.0,342.0 C543.8,346.6 537.1,347.1 530.1,343.3 C525.6,341.0 524.1,339.5 521.6,334.8 C519.9,331.6 518.2,329.0 517.8,329.0 C517.5,329.0 515.0,332.9 512.4,337.8 C509.8,342.6 505.0,350.7 501.8,355.8 C498.6,360.9 496.0,365.5 496.0,366.0 C496.0,366.5 499.0,366.9 502.8,366.8 C517.7,366.7 526.4,375.1 527.9,391.3 L528.5,398.5 L533.5,398.6 C539.1,398.7 544.4,401.0 546.0,404.1 C546.6,405.2 547.7,406.0 548.3,405.8 C549.0,405.6 561.0,397.8 575.0,388.5 C631.5,350.8 675.9,326.0 726.0,304.3 C774.0,283.4 835.6,267.1 892.0,260.5 C910.6,258.3 956.5,257.4 976.6,258.9 L992.6,260.1 L1000.6,256.0 C1012.1,250.2 1020.3,248.7 1038.0,249.3 C1052.9,249.8 1062.5,251.6 1074.3,256.0 L1080.0,258.1 L1080.0,265.6 C1080.0,269.7 1079.8,273.0 1079.5,273.0 C1079.2,273.0 1076.7,271.9 1074.0,270.5 C1066.8,266.8 1051.1,263.1 1040.1,262.4 C1030.3,261.7 1019.0,262.5 1019.0,263.9 C1019.0,264.3 1023.1,265.4 1028.1,266.4 C1039.1,268.5 1065.1,275.8 1073.5,279.2 L1079.5,281.6 L1079.8,292.9 C1080.0,303.4 1079.9,304.2 1078.3,303.5 C1063.0,297.3 1034.5,289.0 1016.5,285.5 C987.5,279.9 943.5,277.6 912.4,279.9 C816.3,287.2 725.5,319.2 624.5,381.4 C603.6,394.3 561.0,423.2 561.0,424.5 C561.0,426.8 583.3,462.0 584.7,462.0 C585.2,462.0 587.7,460.3 590.5,458.2 C594.8,454.9 595.7,453.6 598.0,447.0 C601.7,436.1 605.5,430.0 608.6,430.0 C611.0,430.0 611.7,430.8 616.2,438.9 L617.8,441.9 L626.2,438.3 C630.8,436.4 639.7,433.4 646.0,431.8 C661.4,427.8 685.5,426.8 700.6,429.5 C725.0,433.9 747.9,447.1 762.6,465.3 C771.4,476.3 783.0,500.6 783.0,508.1 C783.0,511.9 785.0,510.8 788.1,505.3 C805.9,473.7 829.9,450.0 850.3,443.5 C860.4,440.3 867.9,440.3 880.5,443.6 C893.7,447.0 899.9,449.9 906.1,455.7 C915.5,464.4 920.6,474.5 924.2,491.4 C926.8,504.0 927.3,533.3 925.1,550.7 C923.7,561.8 923.7,562.0 925.8,564.3 C936.2,575.4 932.2,602.1 918.2,615.2 C915.2,618.0 911.6,620.3 909.2,621.0 C905.3,622.0 904.9,622.5 900.1,632.3 C879.9,673.4 854.4,700.8 828.4,709.6 C817.7,713.1 809.7,712.9 796.2,708.5 C783.6,704.4 774.0,699.0 769.5,693.5 C760.7,682.8 754.7,666.4 753.0,648.3 C752.5,642.5 751.8,637.5 751.6,637.3 C751.4,637.1 745.7,642.5 738.9,649.3 C716.0,672.1 689.7,686.6 659.3,693.1 C647.3,695.7 624.3,696.2 613.0,694.1 C589.2,689.8 569.6,679.7 552.9,663.1 C521.4,631.8 512.9,585.8 529.6,537.8 C532.5,529.4 532.9,527.6 531.8,526.2 C529.0,522.9 475.6,484.1 470.6,481.9 C467.5,480.4 465.9,481.4 447.1,496.3 C396.3,536.8 367.0,573.6 339.6,632.0 C332.4,647.2 319.0,681.1 309.5,708.0 C292.5,756.0 277.1,789.9 246.3,847.3 C214.0,907.5 200.0,939.7 187.5,983.0 C179.3,1011.3 174.0,1039.1 172.5,1061.5 C172.2,1066.5 171.7,1072.6 171.4,1075.2 L170.8,1080.0 L160.4,1080.0 L150.0,1080.0 L150.1,1075.8 Z M227.5,1073.5 C226.3,1063.0 229.4,1027.7 233.1,1008.0 C237.6,984.4 246.2,956.3 256.0,933.5 C258.8,926.9 266.8,910.5 273.7,897.0 C289.3,866.8 292.0,861.2 300.5,842.4 C308.1,825.7 312.3,818.6 316.8,814.8 C326.8,806.4 335.0,810.8 333.6,824.0 C332.6,834.7 328.2,845.7 315.2,870.7 C309.8,881.0 296.3,918.5 290.5,939.0 C278.3,982.3 273.9,1012.9 273.6,1055.2 L273.5,1080.0 L270.4,1080.0 L267.2,1080.0 L266.5,1067.9 C265.3,1048.7 267.1,1020.1 271.1,993.0 C277.7,948.8 295.1,894.4 314.6,857.4 C325.6,836.5 330.5,820.3 326.7,817.2 C325.4,816.1 324.6,816.4 321.7,819.0 C316.5,823.5 312.6,830.2 306.6,844.6 C301.3,857.4 292.3,876.0 275.8,908.5 C248.8,961.7 236.2,1008.6 234.3,1062.2 L233.7,1080.0 L230.9,1080.0 C228.3,1080.0 228.1,1079.8 227.5,1073.5 Z M938.5,1078.1 C939.6,1077.1 945.7,1073.0 952.0,1069.0 C971.1,1056.9 986.5,1044.5 1003.5,1027.5 C1028.6,1002.5 1043.4,981.5 1060.0,947.5 C1065.3,936.5 1071.4,923.5 1073.4,918.5 C1080.3,901.7 1079.9,901.7 1079.9,917.4 C1080.0,928.4 1079.6,932.2 1078.3,935.4 C1075.2,942.8 1061.9,968.3 1055.9,978.5 C1034.4,1014.6 1001.0,1049.6 965.4,1073.3 L955.3,1080.0 L945.9,1080.0 C936.7,1080.0 936.6,1080.0 938.5,1078.1 Z M155.4,1025.8 C158.5,1001.4 174.5,947.5 187.4,918.3 C189.8,912.6 191.5,907.8 191.2,907.6 C189.9,906.8 180.0,916.2 175.5,922.4 C159.8,944.4 149.0,978.8 149.0,1006.5 C149.0,1016.1 150.8,1028.2 152.6,1031.1 C153.7,1032.9 154.8,1030.9 155.4,1025.8 Z M727.5,996.3 C712.1,994.4 694.9,989.3 684.0,983.3 C671.7,976.6 653.0,960.4 653.0,956.5 C653.0,955.3 654.4,955.0 660.1,955.0 L667.2,955.0 L673.2,960.5 C684.3,970.8 701.4,979.2 718.0,982.6 C724.6,983.9 729.6,984.1 741.4,983.7 C763.4,983.0 776.3,978.8 795.3,966.3 L803.4,961.0 L811.8,961.0 C816.5,961.0 820.0,961.4 819.8,961.9 C819.3,963.4 808.4,972.7 802.2,976.9 C781.4,991.0 750.2,999.1 727.5,996.3 Z M863.8,939.1 C858.0,937.2 851.3,933.6 847.2,930.1 C845.3,928.4 845.0,927.2 845.0,920.1 C845.0,915.6 845.3,912.0 845.6,912.0 C845.9,912.0 848.2,914.2 850.7,917.0 C853.6,920.3 857.6,923.2 862.5,925.6 C869.4,929.0 870.3,929.2 877.7,928.8 C883.5,928.6 886.8,927.8 890.4,926.0 C905.5,918.4 914.9,900.1 913.7,880.5 C913.1,871.3 911.5,864.0 910.1,864.0 C909.6,864.0 909.0,866.5 908.7,869.6 C908.0,876.9 903.2,886.8 898.0,892.0 C895.7,894.3 890.9,897.6 887.3,899.2 C881.5,901.9 880.1,902.2 873.7,901.8 C869.7,901.5 865.0,900.6 863.2,899.6 C854.2,894.9 846.9,884.4 845.5,873.9 C843.9,862.6 850.0,844.7 857.7,837.9 C859.8,836.2 863.9,833.5 867.0,832.1 C871.6,829.9 873.9,829.5 881.5,829.5 C889.8,829.5 891.1,829.8 897.4,832.9 C923.9,845.9 933.8,882.6 919.0,912.6 C914.0,922.8 904.1,932.7 894.1,937.3 C885.6,941.3 872.8,942.1 863.8,939.1 Z M827.0,898.1 C827.0,897.6 827.5,897.0 828.2,896.8 C829.0,896.5 829.3,894.6 829.1,891.4 C828.9,886.0 830.7,882.3 833.2,883.3 C835.0,883.9 839.5,896.4 838.5,898.0 C837.7,899.2 827.0,899.3 827.0,898.1 Z M622.5,863.9 C616.7,859.5 607.9,855.2 600.7,853.3 C589.6,850.5 569.7,852.3 550.8,858.0 C546.6,859.2 542.4,860.0 541.6,859.7 C536.7,857.8 543.1,850.8 553.4,846.6 L559.5,844.2 L559.2,832.4 C558.7,818.3 560.4,810.0 565.6,799.5 C577.3,775.7 600.8,763.1 618.8,771.0 C625.4,773.9 633.2,782.1 635.4,788.7 C638.0,796.2 638.5,803.3 636.7,806.1 C635.9,807.4 634.5,811.0 633.6,814.0 C630.5,824.9 623.2,833.8 613.2,838.9 C609.3,840.9 608.3,843.0 611.3,843.0 C613.6,843.0 624.7,848.8 633.0,854.4 C637.6,857.5 641.7,860.0 642.2,860.0 C642.6,860.0 643.0,860.5 643.0,861.0 C643.0,861.6 640.0,862.0 636.0,862.0 C629.4,862.0 628.9,862.2 628.0,864.5 C627.5,865.9 626.9,867.0 626.8,867.0 C626.6,867.0 624.7,865.6 622.5,863.9 Z M877.1,858.1 C882.2,853.0 882.5,848.4 877.9,844.6 C874.4,841.6 871.2,841.3 867.0,843.5 C863.9,845.1 861.0,849.6 861.0,852.7 C861.1,855.5 863.5,859.1 866.1,860.6 C870.2,862.9 873.0,862.2 877.1,858.1 Z M585.8,839.5 C586.0,839.3 583.9,837.0 581.3,834.4 C577.9,830.9 575.9,827.8 574.5,823.8 C573.5,820.6 572.3,818.0 571.9,818.0 C570.0,818.0 570.3,836.4 572.3,839.6 C572.8,840.5 584.8,840.4 585.8,839.5 Z M605.2,798.2 C606.8,796.6 608.3,793.8 608.7,791.7 C609.2,788.6 608.8,787.7 606.2,785.0 C602.7,781.5 599.8,781.2 595.3,784.0 C589.0,787.8 587.6,795.5 592.5,799.7 C596.1,802.9 601.2,802.3 605.2,798.2 Z M964.5,772.4 C945.0,758.9 936.9,755.9 916.2,754.1 C908.6,753.5 903.8,752.6 901.2,751.3 C897.1,749.1 893.0,743.0 893.0,738.9 C893.0,731.8 900.0,722.6 908.3,718.9 C912.3,717.2 915.9,716.5 923.5,716.2 C942.4,715.5 957.2,721.1 970.0,734.0 C978.6,742.6 984.1,751.5 987.1,761.3 C989.5,768.9 989.1,773.3 985.9,777.4 C984.3,779.5 983.0,780.0 979.6,780.0 C976.0,780.0 973.9,778.9 964.5,772.4 Z M823.5,701.6 C834.7,698.7 845.9,691.0 858.0,678.3 C880.8,654.4 898.9,619.2 910.0,577.5 C923.2,528.1 919.1,479.3 900.4,462.0 C896.5,458.5 893.2,456.7 894.2,458.8 C904.9,480.1 906.4,487.0 906.4,515.0 C906.4,542.4 903.4,560.6 894.0,589.1 C885.6,614.5 878.6,629.5 865.9,649.7 C851.0,673.6 829.6,694.2 814.0,699.7 C811.2,700.7 809.0,701.8 809.0,702.2 C809.0,703.5 818.1,703.1 823.5,701.6 Z M811.8,694.8 C833.1,686.1 854.7,662.0 872.4,627.0 C896.5,579.5 906.4,528.6 899.4,488.2 C896.5,471.4 888.8,457.9 878.9,452.5 C874.1,449.9 872.6,449.6 865.5,449.6 C859.6,449.6 856.1,450.2 852.0,451.9 C813.5,467.7 776.0,530.4 764.5,598.3 C757.6,638.9 761.8,671.2 776.1,687.4 C780.0,691.8 785.2,695.2 791.0,697.1 C795.0,698.5 805.6,697.3 811.8,694.8 Z M657.8,684.0 C691.2,677.1 721.1,658.7 744.4,630.4 C751.1,622.3 751.4,620.5 746.3,619.5 C741.3,618.6 737.3,616.4 736.6,614.3 C736.3,613.3 736.6,610.2 737.3,607.5 C738.6,602.7 738.8,602.5 742.1,602.5 C745.7,602.5 746.0,603.2 744.6,607.7 C743.8,610.1 745.7,611.4 751.0,612.2 C753.2,612.5 753.5,612.1 754.2,607.5 C754.6,604.8 755.2,601.0 755.5,599.2 C756.0,596.4 755.8,595.9 753.5,595.0 C751.4,594.2 750.9,593.4 751.2,591.2 C751.4,589.0 752.1,588.4 754.6,588.2 C757.6,587.9 757.7,587.7 759.4,579.9 C760.8,573.4 767.3,551.7 769.7,545.4 C770.4,543.6 766.0,541.8 764.3,543.2 C763.7,543.7 762.8,545.5 762.5,547.1 C761.4,552.0 760.0,550.4 760.0,544.2 C760.0,541.1 759.6,537.9 759.1,537.1 C758.6,536.3 758.6,534.6 759.0,533.1 C759.5,531.7 760.8,527.2 762.0,523.2 C764.4,514.8 766.7,512.0 771.0,512.0 C772.7,512.0 774.3,511.4 774.6,510.6 C774.9,509.9 774.0,505.8 772.6,501.6 C761.2,467.8 735.6,445.3 700.3,438.1 C683.7,434.7 661.4,435.7 645.2,440.5 C639.5,442.2 639.0,442.9 642.0,444.8 C644.6,446.4 644.5,447.6 641.4,451.7 C640.0,453.6 639.0,455.4 639.4,455.7 C639.7,456.0 643.6,455.3 648.0,454.1 C663.8,449.8 685.3,449.8 699.4,454.0 C712.7,458.0 723.5,464.5 733.8,474.7 C743.5,484.3 744.9,487.0 740.2,487.0 C738.0,487.0 736.6,485.9 733.6,482.0 C726.0,472.0 711.0,462.9 695.5,459.0 C678.6,454.6 661.3,455.5 642.0,461.5 L633.9,464.1 L630.4,471.3 C627.1,478.2 626.2,481.5 627.8,480.8 C628.2,480.6 631.6,478.9 635.5,476.9 C644.3,472.3 656.9,467.8 658.7,468.4 C659.7,468.8 660.0,470.9 659.8,476.7 L659.5,484.5 L652.5,485.1 C641.0,486.2 634.9,487.8 626.6,492.3 C618.3,496.7 615.3,499.9 620.6,498.6 C625.8,497.3 640.0,496.7 640.0,497.7 C640.0,498.2 636.5,499.4 632.2,500.3 C623.3,502.3 619.5,504.0 619.5,506.0 C619.5,506.9 620.7,507.4 623.0,507.4 L626.5,507.5 L626.8,515.2 C627.1,524.3 626.4,524.8 621.0,519.5 C616.8,515.4 616.5,515.5 613.1,524.0 C610.3,531.3 602.2,541.8 596.0,546.6 C593.3,548.7 591.0,550.7 591.0,551.0 C591.0,551.3 595.0,556.7 600.0,562.9 C614.7,581.4 635.0,610.4 635.0,613.0 C635.0,613.6 633.7,614.0 632.1,614.0 C629.4,614.0 628.2,612.6 619.4,599.8 C608.2,583.4 590.2,559.4 587.2,556.7 C585.7,555.3 584.3,555.0 582.1,555.5 C578.1,556.4 576.5,558.3 578.5,560.0 C581.4,562.4 579.9,563.1 571.8,562.8 C567.0,562.6 563.5,562.1 563.5,561.5 C563.5,559.8 555.3,551.7 554.2,552.4 C552.2,553.6 550.5,566.7 550.6,580.0 C550.7,591.6 551.1,594.8 553.4,602.5 C556.9,613.9 562.6,624.9 569.5,633.3 C574.7,639.6 576.4,644.0 574.1,645.4 C572.8,646.2 564.6,636.9 559.2,628.6 C553.2,619.4 548.4,607.9 546.4,597.8 C544.3,587.6 544.9,563.8 547.5,554.6 C549.1,548.8 549.1,548.5 547.1,544.9 C545.9,542.9 545.0,540.4 545.0,539.4 C545.0,537.3 542.2,534.0 540.4,534.0 C538.8,534.0 534.9,546.3 531.9,560.5 C528.7,575.5 528.8,596.1 532.3,609.1 C537.5,628.9 545.5,643.4 558.5,656.5 C583.2,681.5 619.9,691.7 657.8,684.0 Z M789.5,680.7 C780.1,676.2 773.4,666.3 770.0,651.7 C758.7,603.2 784.4,520.6 823.0,481.9 C828.2,476.7 835.2,470.8 838.5,468.8 C854.4,459.2 869.4,460.0 879.2,470.8 C887.4,479.9 890.9,491.7 891.7,513.0 C893.1,547.6 884.0,584.2 864.5,622.9 C852.1,647.7 832.0,670.9 816.6,678.6 C806.2,683.7 797.2,684.4 789.5,680.7 Z M814.1,674.3 C819.8,671.5 823.8,668.3 831.6,660.6 C846.9,645.4 859.2,625.6 869.8,599.0 C881.9,568.6 887.0,544.5 887.0,518.0 C886.9,497.0 883.3,483.1 875.8,474.5 C871.8,470.0 871.5,469.8 867.6,470.4 C858.1,471.9 844.3,480.6 834.7,491.0 C816.9,510.2 798.4,546.3 789.9,578.4 C785.0,597.1 782.9,610.5 782.3,627.0 C781.9,640.1 782.1,644.0 783.8,652.2 C786.1,663.1 789.6,671.7 793.4,675.5 C797.3,679.4 804.7,679.0 814.1,674.3 Z M781.0,661.2 C776.8,646.0 776.1,632.9 778.5,612.6 C784.3,563.4 807.4,510.9 835.2,484.1 C841.0,478.5 854.5,469.0 856.7,469.0 C857.4,469.0 858.0,468.6 858.0,468.0 C858.0,465.9 853.0,467.1 845.2,471.0 C803.2,492.0 764.2,586.1 773.5,643.8 C774.3,648.8 775.9,655.3 776.9,658.1 C778.8,662.9 781.6,668.0 782.5,668.0 C782.7,668.0 782.0,665.0 781.0,661.2 Z M418.1,610.4 C411.5,605.8 412.2,596.6 419.6,589.1 C423.8,584.9 424.2,584.8 428.7,585.3 C432.4,585.7 434.1,586.5 436.2,588.9 C441.0,594.3 439.5,601.7 432.1,608.2 C427.5,612.5 422.3,613.3 418.1,610.4 Z M913.7,608.8 C921.5,600.6 926.1,583.7 923.0,575.4 C921.7,572.0 920.7,573.1 919.0,580.0 C918.3,583.0 915.8,591.4 913.4,598.5 C911.0,605.6 909.0,611.6 909.0,611.8 C909.0,612.8 911.1,611.5 913.7,608.8 Z M426.8,604.4 C430.4,601.9 433.2,595.6 432.0,592.6 C430.7,589.1 427.9,589.3 424.1,593.0 C420.7,596.5 419.1,602.2 421.0,604.5 C422.6,606.4 424.0,606.4 426.8,604.4 Z M455.0,574.0 C450.6,572.9 445.4,567.4 444.0,562.1 C441.9,554.2 445.6,544.3 453.5,537.1 C462.1,529.1 472.2,526.6 479.1,530.6 C491.9,538.1 489.8,557.7 475.0,568.5 C467.9,573.7 461.5,575.5 455.0,574.0 Z M469.0,563.8 C476.1,559.5 480.3,552.9 480.4,545.9 C480.5,541.4 480.1,540.5 477.2,537.9 C472.0,533.3 466.4,534.5 458.7,541.9 C453.5,546.7 451.0,551.9 451.0,557.5 C451.0,567.1 458.9,569.8 469.0,563.8 Z M581.9,547.8 C585.2,546.0 590.0,542.8 592.5,540.7 C603.6,531.4 614.3,508.7 610.0,503.5 C608.1,501.2 607.5,501.6 606.1,506.8 C604.8,511.9 599.4,521.0 597.8,521.0 C597.2,521.0 597.1,520.2 597.5,519.2 C601.3,510.2 603.1,503.4 602.8,498.8 C602.4,492.0 600.6,491.7 599.1,498.2 C595.2,515.2 576.9,533.3 559.6,537.3 C556.5,538.0 553.8,539.0 553.7,539.5 C553.6,540.1 555.1,541.3 557.2,542.3 C560.6,544.0 561.3,544.0 567.5,542.5 C571.1,541.7 575.0,540.5 576.2,539.9 C577.3,539.3 578.4,539.1 578.8,539.4 C579.6,540.2 576.5,542.5 570.2,545.6 C562.1,549.7 562.2,551.0 570.6,551.0 C574.6,551.0 577.3,550.2 581.9,547.8 Z M775.5,531.3 C780.1,521.1 780.0,520.4 773.6,519.8 C770.9,519.5 770.7,519.8 768.5,527.0 C766.4,533.8 766.3,534.6 767.8,535.8 C770.9,538.2 772.8,537.2 775.5,531.3 Z M561.2,529.9 C563.1,528.9 562.4,528.0 551.4,516.8 C544.8,510.2 533.0,499.4 525.0,492.7 C517.0,486.1 509.8,480.0 508.8,479.2 C507.4,478.0 506.1,478.1 499.3,480.0 C495.0,481.2 491.2,482.5 490.7,482.9 C490.3,483.3 498.0,489.4 507.7,496.5 C526.8,510.4 547.6,526.6 549.9,529.3 C551.5,531.3 558.0,531.6 561.2,529.9 Z M575.2,522.2 C577.9,520.1 581.9,516.0 584.1,513.0 C588.6,507.1 594.0,496.6 594.0,493.8 C594.0,492.9 592.1,489.8 589.7,486.8 C584.8,480.8 567.1,453.6 556.0,435.2 C551.9,428.5 548.2,423.1 547.7,423.3 C547.3,423.4 545.8,426.5 544.6,430.2 C541.8,438.1 539.3,442.3 532.7,450.3 C527.7,456.2 516.8,464.2 510.7,466.2 C504.3,468.3 503.6,467.5 526.0,486.1 C532.9,491.8 545.2,503.1 553.5,511.2 C561.7,519.3 569.0,525.9 569.5,526.0 C570.0,526.0 572.6,524.3 575.2,522.2 Z M247.1,512.6 C239.5,504.5 215.1,500.6 203.3,505.5 C199.0,507.3 198.3,505.8 202.0,502.7 C205.7,499.5 211.5,498.6 222.9,499.3 C235.7,500.0 246.7,504.9 250.1,511.2 C251.8,514.4 249.7,515.4 247.1,512.6 Z M658.2,500.0 C657.0,498.4 656.0,496.7 656.0,496.2 C656.0,494.9 660.0,490.0 661.1,490.0 C661.6,490.0 662.0,492.9 662.0,496.5 C662.0,500.1 661.6,503.0 661.2,503.0 C660.7,503.0 659.4,501.7 658.2,500.0 Z M366.1,491.0 C376.1,488.0 386.5,480.8 389.6,474.8 C392.2,469.7 391.0,463.2 387.1,461.0 C385.6,460.3 383.3,460.9 376.8,463.9 C372.3,466.1 363.8,469.7 358.0,472.0 C352.2,474.2 346.5,476.5 345.4,477.0 C342.2,478.3 341.3,484.5 343.8,487.9 C347.9,493.4 355.1,494.4 366.1,491.0 Z M619.5,476.5 C623.1,468.8 627.6,460.1 629.5,457.3 C631.4,454.4 633.0,451.6 633.0,451.0 C633.0,449.6 629.6,449.8 622.7,451.4 L617.0,452.7 L614.1,449.4 C612.5,447.6 610.9,445.2 610.5,444.0 C609.4,440.6 607.7,442.2 605.1,449.1 C603.2,454.2 602.6,458.0 602.3,468.0 C602.0,477.0 602.3,481.2 603.2,482.9 C605.3,486.7 606.5,485.9 607.1,480.4 C607.9,474.2 609.8,468.0 611.0,468.0 C611.5,468.0 611.7,473.1 611.3,479.6 C610.8,488.2 611.0,491.2 611.8,490.9 C612.5,490.7 615.9,484.2 619.5,476.5 Z M107.1,479.3 C110.2,476.6 110.3,476.5 109.7,469.7 C109.2,464.0 109.5,462.0 111.0,458.7 C112.1,456.4 113.0,454.5 113.0,454.4 C113.0,454.3 110.0,452.3 106.3,449.9 C102.6,447.5 96.5,443.1 92.8,440.2 C89.0,437.4 85.5,435.0 85.0,435.0 C84.4,435.0 82.1,436.3 79.9,438.0 C77.7,439.6 73.9,441.2 71.4,441.6 C66.0,442.4 62.0,446.5 62.0,451.3 C62.0,458.1 70.0,469.2 79.2,475.2 C86.7,480.1 91.7,481.9 98.2,481.9 C102.9,482.0 104.4,481.6 107.1,479.3 Z M495.7,474.5 L499.4,472.9 L493.6,467.7 C488.8,463.3 487.8,461.8 487.3,458.3 C487.0,455.7 487.4,452.3 488.4,449.4 C489.3,446.8 489.8,444.4 489.5,444.1 C489.2,443.8 487.0,444.2 484.7,445.0 C480.9,446.4 480.3,447.1 478.1,452.5 C475.5,459.0 474.4,466.4 475.4,470.4 C475.7,471.8 477.3,473.6 478.8,474.4 C482.4,476.4 491.1,476.4 495.7,474.5 Z M594.0,471.1 C594.0,466.4 592.9,465.4 590.5,468.0 C588.9,469.8 588.9,470.0 590.7,472.4 C593.2,475.9 594.0,475.6 594.0,471.1 Z M507.0,460.4 C511.8,458.5 512.0,457.1 508.0,454.2 C506.4,452.9 504.3,450.9 503.4,449.5 C502.0,447.3 502.0,446.8 503.8,442.7 C505.7,438.5 510.3,434.1 514.3,432.7 C515.3,432.3 517.1,432.7 518.4,433.5 C520.6,435.0 520.8,434.9 522.4,432.6 C525.0,428.6 524.9,425.6 522.2,425.2 C516.3,424.3 501.4,436.3 497.1,445.3 C493.8,452.1 493.1,458.9 495.5,460.7 C498.0,462.4 502.1,462.4 507.0,460.4 Z M523.6,448.8 C530.9,441.9 533.5,437.7 532.0,435.0 C530.5,432.2 529.7,432.5 527.2,436.9 C525.1,440.6 518.3,447.4 514.4,449.6 C512.8,450.6 512.7,450.9 513.9,452.4 C516.0,455.0 517.8,454.3 523.6,448.8 Z M514.7,441.7 C516.8,439.9 517.0,438.0 515.1,438.0 C513.5,438.0 508.9,443.0 509.5,444.0 C510.2,445.2 511.5,444.6 514.7,441.7 Z M538.7,425.4 C542.2,415.3 540.0,408.0 533.5,408.0 C527.7,408.0 524.1,409.9 521.9,414.1 C519.8,418.3 520.0,418.6 525.0,419.2 C526.6,419.4 528.8,421.3 531.4,424.8 C533.6,427.7 535.8,429.9 536.3,429.7 C536.9,429.5 538.0,427.6 538.7,425.4 Z M474.5,425.0 C473.2,423.0 475.2,416.1 478.6,410.3 C485.4,399.0 497.6,389.0 504.8,389.0 C509.2,389.0 508.8,390.5 503.8,392.8 C493.5,397.4 481.5,410.5 478.4,420.6 C476.7,425.9 475.7,427.0 474.5,425.0 Z M113.3,416.6 C105.3,414.1 95.9,407.9 88.1,400.1 C69.1,380.9 63.5,358.1 74.7,345.1 C79.4,339.6 85.0,337.2 94.3,336.6 C98.5,336.3 102.9,335.6 103.9,335.0 C106.8,333.5 111.1,328.0 113.1,323.2 C114.6,319.7 115.4,318.9 117.2,319.2 C119.1,319.4 119.6,320.2 119.8,323.9 C120.2,329.4 116.4,337.6 111.3,342.1 L107.6,345.3 L110.3,347.2 C114.4,350.2 112.6,351.1 106.5,348.9 C103.5,347.9 98.5,347.0 95.3,347.0 C80.1,347.0 75.2,358.9 83.5,375.7 C88.3,385.7 101.2,398.8 110.9,403.8 C121.4,409.1 130.8,407.8 135.7,400.3 C138.4,396.2 137.9,386.3 134.7,377.5 C133.3,373.7 132.3,370.4 132.6,370.1 C132.8,369.9 134.3,370.9 135.9,372.4 L138.7,375.1 L144.6,369.3 C152.2,361.8 160.9,358.8 164.1,362.6 C165.5,364.4 166.1,363.7 156.1,371.8 C149.4,377.2 148.6,379.2 148.4,389.5 C148.2,400.2 146.3,405.7 140.7,411.2 C134.5,417.4 123.1,419.6 113.3,416.6 Z M122.1,393.4 C119.2,381.8 110.0,370.2 99.8,365.1 C96.4,363.4 92.6,362.0 91.3,362.0 C87.3,362.0 89.2,359.5 93.4,359.2 C103.9,358.3 120.7,374.0 125.0,388.7 C126.3,392.8 125.7,398.0 124.1,398.0 C123.6,398.0 122.7,395.9 122.1,393.4 Z M320.0,382.6 C307.1,379.9 295.7,371.1 288.0,358.1 C283.3,350.2 278.4,337.0 277.4,329.7 C277.0,327.1 276.4,324.7 276.0,324.5 C275.6,324.2 273.5,324.7 271.5,325.6 C268.2,327.0 267.5,327.0 266.3,325.7 C265.1,324.5 265.0,323.8 265.9,322.1 C267.4,319.5 283.6,307.1 286.7,306.4 C291.6,305.1 293.6,308.3 290.5,312.7 C289.2,314.5 289.2,314.9 290.8,316.3 C293.5,318.6 303.8,323.5 311.0,325.8 C322.2,329.4 329.1,330.4 342.0,330.4 C355.9,330.3 364.0,328.6 376.3,323.1 C383.8,319.7 386.0,319.4 387.8,321.2 C389.7,323.1 389.2,325.4 386.5,328.0 C385.2,329.3 383.3,332.8 382.4,335.8 C378.9,347.9 369.6,362.7 360.1,371.2 C353.6,377.1 346.4,380.8 338.3,382.5 C330.3,384.2 327.4,384.2 320.0,382.6 Z M338.2,373.9 C342.4,372.8 343.0,370.9 340.6,366.2 C338.2,361.5 329.3,354.0 322.2,350.7 C316.3,347.9 314.3,347.5 304.8,347.2 C292.3,346.7 291.3,347.4 295.1,353.7 C298.2,358.8 306.5,367.6 310.7,370.1 C318.0,374.6 329.9,376.3 338.2,373.9 Z M1064.0,359.9 C1031.7,343.6 999.3,335.7 954.0,333.0 C934.7,331.9 927.3,330.7 921.8,327.9 C917.8,325.9 914.3,321.9 913.4,318.4 C912.6,315.1 915.8,309.2 919.9,306.4 C932.5,298.1 964.5,293.9 991.0,297.0 C1018.7,300.3 1049.7,308.8 1072.2,319.4 C1079.7,322.9 1080.0,323.2 1080.0,326.5 L1080.0,330.0 L1075.2,327.7 C1066.9,323.5 1045.6,315.2 1036.4,312.5 C1021.2,308.1 999.2,304.1 983.4,302.9 C966.1,301.5 949.7,302.6 936.5,306.0 C927.6,308.3 923.6,310.4 920.8,314.1 C919.1,316.3 919.0,317.1 920.0,319.0 C922.6,323.9 933.5,326.3 959.0,327.5 C1001.8,329.5 1038.0,338.6 1071.2,355.7 C1080.0,360.2 1080.0,360.2 1080.0,364.1 C1080.0,366.2 1079.9,367.9 1079.8,367.8 C1079.6,367.8 1072.5,364.2 1064.0,359.9 Z M833.0,337.9 C823.6,334.1 823.7,325.5 833.3,317.6 C841.5,310.9 854.0,307.0 868.0,307.0 C881.1,307.0 887.0,310.1 887.0,317.1 C887.0,324.0 880.5,329.1 866.0,333.8 C851.8,338.4 838.4,340.0 833.0,337.9 Z M542.3,332.6 C554.5,327.5 564.9,300.3 559.6,287.5 C557.3,282.0 554.1,281.1 546.4,283.9 C542.7,285.2 538.9,286.0 537.6,285.6 C534.8,284.9 533.7,286.1 532.0,291.5 C531.3,293.7 529.0,300.1 526.8,305.8 L522.8,316.1 L526.3,319.9 C528.2,322.0 530.3,325.4 531.0,327.4 C531.7,329.5 533.3,331.6 534.8,332.5 C538.2,334.3 538.4,334.3 542.3,332.6 Z M859.2,329.6 C869.8,326.9 878.4,323.0 880.0,320.1 C882.9,314.6 879.6,312.6 868.3,312.8 C858.3,312.9 849.7,315.0 841.8,319.2 C832.7,324.0 829.3,329.9 834.2,332.0 C837.5,333.4 848.2,332.4 859.2,329.6 Z M611.4,329.9 C604.2,327.8 599.8,318.4 602.0,309.9 C603.2,305.4 607.9,299.6 612.1,297.4 C616.2,295.3 623.6,295.6 627.6,298.0 C631.3,300.3 635.0,307.1 635.0,311.6 C634.9,318.4 629.0,326.4 621.8,329.4 C617.7,331.2 616.0,331.2 611.4,329.9 Z M621.1,322.5 C631.1,317.3 629.7,303.0 619.2,303.0 C609.5,303.0 604.9,314.7 611.7,322.2 C613.7,324.4 617.1,324.5 621.1,322.5 Z M412.3,307.5 C412.0,306.6 412.5,305.1 413.4,304.1 C414.3,303.1 415.0,301.9 415.0,301.4 C415.0,300.9 412.4,299.2 409.2,297.5 C396.4,290.9 385.4,275.8 381.4,259.2 C378.9,248.5 379.8,232.3 383.6,221.0 C386.9,211.1 394.1,199.8 400.8,194.0 C412.1,184.2 428.8,178.9 441.9,181.1 C465.3,184.8 481.9,201.9 486.6,227.0 C490.2,245.6 484.6,268.8 473.4,281.8 C471.5,284.0 470.0,286.3 470.0,286.8 C470.0,287.4 471.7,288.7 473.8,289.7 C476.6,291.1 477.5,292.1 477.5,294.0 L477.5,296.5 L464.0,296.2 C447.8,295.8 439.6,297.6 425.2,304.5 C415.0,309.4 413.2,309.8 412.3,307.5 Z M252.2,303.8 C250.5,302.5 247.2,299.9 244.8,297.8 C232.7,287.5 215.0,280.8 193.9,278.5 C190.8,278.2 187.4,277.3 186.4,276.5 C184.6,275.2 184.6,275.1 186.3,273.2 C187.5,271.9 190.1,270.9 193.3,270.5 C196.2,270.1 198.8,269.6 199.2,269.4 C199.5,269.2 198.5,266.6 196.9,263.6 C192.4,255.3 190.0,244.4 190.0,232.0 C190.0,211.6 195.9,196.8 209.4,183.5 C221.7,171.3 234.4,166.0 251.1,166.0 C276.7,166.0 297.6,181.5 306.8,207.2 C309.2,213.8 309.4,215.8 309.4,229.5 C309.4,243.1 309.2,245.2 306.7,252.6 C302.0,266.6 291.3,280.5 279.5,287.9 C276.8,289.7 270.9,292.2 266.5,293.6 C262.1,294.9 257.9,296.3 257.2,296.5 C256.2,296.9 256.3,297.6 257.5,300.1 C258.8,302.5 258.9,303.5 257.9,304.6 C256.4,306.5 255.8,306.4 252.2,303.8 Z M33.4,292.7 C26.4,289.3 21.6,284.0 16.9,274.5 C11.6,263.7 9.7,254.2 10.3,241.0 C10.9,227.1 13.4,220.4 20.5,213.4 C29.4,204.6 38.5,203.9 50.4,211.1 C57.9,215.6 60.2,215.8 68.6,212.9 C77.5,209.8 80.5,211.6 75.9,217.4 C72.8,221.3 66.4,224.2 59.5,224.7 C53.8,225.2 53.2,225.0 47.3,221.0 C37.5,214.4 31.2,215.2 25.2,224.0 C22.0,228.7 20.8,234.3 20.7,244.0 C20.7,265.0 31.4,284.0 43.3,284.0 C50.7,284.0 57.0,278.2 60.0,268.8 C61.3,264.4 62.9,263.1 64.1,265.2 C64.9,266.6 65.5,266.6 68.7,265.4 C76.7,262.6 89.0,264.6 89.0,268.7 C89.0,271.9 86.9,273.0 81.1,273.0 C73.4,273.0 69.4,275.3 64.5,282.5 C58.7,291.1 53.6,294.4 45.2,294.8 C39.7,295.0 37.6,294.6 33.4,292.7 Z M420.9,293.2 C420.9,292.8 418.8,291.1 416.2,289.5 C412.5,287.2 410.7,285.0 408.0,279.6 C404.7,273.1 404.5,272.1 404.5,263.1 C404.5,254.5 404.8,252.9 407.6,247.0 C411.2,239.4 417.2,233.1 423.8,229.8 C427.5,228.0 430.2,227.5 436.5,227.5 C443.5,227.5 445.2,227.9 449.9,230.5 C460.8,236.5 466.0,246.2 466.0,260.3 C466.0,266.8 465.4,269.7 463.4,274.5 C459.5,283.7 459.6,283.8 463.9,279.1 C469.0,273.7 473.2,266.4 476.1,258.0 C479.3,248.8 479.4,232.4 476.3,222.5 C473.6,213.9 465.9,202.5 459.4,197.6 C442.2,184.5 418.5,187.0 403.0,203.7 C382.1,226.0 381.8,262.0 402.4,282.6 C409.1,289.2 421.2,296.2 420.9,293.2 Z M660.5,292.6 C652.2,289.5 647.9,280.9 650.0,271.9 C654.2,254.4 673.8,244.6 687.0,253.4 C694.5,258.3 697.1,268.8 693.1,277.5 C687.8,289.0 671.4,296.6 660.5,292.6 Z M255.0,287.1 C255.0,286.6 253.3,285.9 251.3,285.5 C248.7,285.0 246.0,283.2 241.5,278.7 C233.9,271.1 231.0,264.3 231.0,254.1 C231.0,232.0 246.5,215.0 266.9,215.0 C282.7,215.0 296.0,227.7 297.7,244.5 C298.0,247.5 298.6,250.0 299.0,250.0 C300.3,250.0 302.0,238.7 302.0,229.5 C302.0,209.4 293.6,193.2 277.6,182.4 C256.3,168.0 225.0,175.1 209.6,197.8 C195.8,218.2 195.6,245.7 209.1,266.0 C212.8,271.5 213.7,272.1 218.8,273.6 C226.2,275.8 235.2,280.1 241.5,284.4 C245.2,287.0 247.6,287.9 250.8,287.9 C253.1,288.0 255.0,287.6 255.0,287.1 Z M674.8,284.5 C679.8,282.4 685.8,276.3 687.0,272.2 C688.5,266.5 686.4,261.9 680.8,259.2 C676.7,257.2 675.7,257.0 672.1,258.0 C664.7,260.0 657.1,269.0 657.0,275.8 C657.0,279.1 659.8,284.0 662.3,285.0 C665.7,286.4 670.7,286.1 674.8,284.5 Z M41.6,274.2 C41.2,273.5 41.4,271.3 41.9,269.3 C42.5,267.2 43.0,261.6 43.0,256.9 C43.0,245.8 40.2,236.4 35.4,231.1 C31.5,226.7 31.3,226.0 33.9,226.0 C40.3,226.0 48.0,242.6 48.0,256.6 C48.0,265.7 43.7,277.6 41.6,274.2 Z M432.1,253.1 C438.3,246.9 434.1,236.0 425.5,236.0 C420.5,236.0 418.1,237.5 416.4,241.7 C414.4,246.3 415.4,250.3 419.2,253.5 C423.4,257.0 428.3,256.9 432.1,253.1 Z M258.4,244.6 C262.8,242.8 265.0,239.4 265.0,234.5 C264.9,226.4 257.1,221.7 249.5,225.2 C244.4,227.5 242.3,236.1 245.6,240.9 C247.1,242.9 252.0,245.8 254.3,246.0 C254.7,246.0 256.6,245.4 258.4,244.6 Z M628.1,242.1 C625.5,239.7 625.0,238.4 625.0,234.8 C625.0,229.3 628.5,224.0 633.6,221.5 C643.9,216.6 653.1,228.6 646.9,238.7 C642.6,245.5 633.6,247.2 628.1,242.1 Z M639.6,236.5 C641.3,234.8 642.0,233.1 641.8,231.2 C641.6,228.9 641.0,228.4 638.2,228.2 C634.3,227.8 632.4,229.1 631.5,232.7 C631.1,234.4 631.5,235.8 632.6,237.1 C634.9,239.6 636.6,239.5 639.6,236.5 Z M0.1,152.4 L0.0,120.2 L4.4,109.7 C9.7,96.8 20.9,75.9 29.0,63.9 C32.3,59.0 35.0,54.6 35.0,54.1 C35.0,51.8 30.3,50.0 24.4,50.0 C9.5,50.0 1.6,42.6 1.5,28.5 C1.5,20.3 3.6,13.8 8.9,5.9 L12.5,0.5 L21.4,0.2 L30.3,-0.1 L24.7,5.9 C17.6,13.6 14.0,21.1 14.0,28.3 C14.0,36.1 16.1,37.7 26.6,38.2 C33.6,38.5 35.1,38.9 38.3,41.3 C40.2,42.8 42.2,44.0 42.5,44.0 C42.8,44.0 44.3,42.5 45.8,40.8 C47.3,39.0 52.0,33.6 56.2,28.9 C60.5,24.1 64.0,19.8 64.0,19.2 C64.0,18.7 63.3,17.7 62.4,16.9 C60.1,15.0 57.4,9.0 56.6,4.2 L56.0,-0.1 L62.2,0.2 C68.4,0.5 68.5,0.5 68.8,3.6 C69.0,5.3 70.2,7.8 71.5,9.0 L73.9,11.3 L80.2,5.6 L86.5,0.0 L98.8,0.0 C105.5,0.0 111.0,0.2 111.0,0.4 C111.0,0.6 105.7,4.9 99.2,10.1 C65.7,36.7 36.0,75.4 20.0,113.4 C11.3,134.1 6.7,150.2 1.2,179.5 C0.5,183.1 0.2,175.6 0.1,152.4 Z M581.8,172.7 C590.1,165.1 587.9,134.3 578.1,118.7 C574.5,113.1 569.8,110.0 564.8,110.0 C560.0,110.0 556.4,114.2 555.5,120.8 C554.5,128.3 554.1,128.8 552.1,126.2 C550.6,124.1 550.2,124.0 549.1,125.4 C548.4,126.2 545.7,127.7 543.2,128.6 C540.6,129.6 538.1,130.7 537.6,131.1 C537.1,131.5 537.7,135.7 538.9,140.7 C540.0,145.5 541.7,153.7 542.5,158.9 C543.3,164.1 544.2,168.5 544.4,168.7 C544.7,169.0 547.0,168.7 549.7,168.2 C555.8,166.8 562.1,168.1 567.5,171.8 C574.4,176.4 577.5,176.6 581.8,172.7 Z M463.9,165.9 C455.0,158.8 449.5,156.3 437.2,153.6 C428.6,151.6 426.1,150.7 424.3,148.5 C421.5,145.3 421.4,142.5 424.0,138.2 C430.5,127.6 449.3,132.0 463.7,147.4 C473.9,158.3 477.7,167.5 473.1,170.0 C470.5,171.4 471.0,171.6 463.9,165.9 Z M90.0,151.5 C84.3,145.7 78.7,143.4 73.4,144.9 C63.7,147.6 53.1,144.5 47.1,137.3 C43.0,132.4 40.5,122.7 41.3,115.0 C43.2,97.3 57.7,75.7 72.9,68.2 C84.4,62.5 97.0,64.3 103.9,72.7 C106.7,76.1 110.0,84.4 110.0,88.2 C110.0,91.2 115.9,96.4 121.5,98.5 C124.2,99.5 127.4,101.1 128.5,102.2 C130.3,103.9 130.3,104.1 128.7,105.7 C125.9,108.5 117.4,107.9 111.1,104.5 C104.4,100.8 100.8,96.0 99.3,88.5 C97.7,81.0 95.4,77.9 90.3,76.2 C82.6,73.7 72.7,78.6 64.5,88.8 C52.1,104.4 48.5,123.7 56.5,131.7 C59.4,134.6 60.4,135.0 65.3,135.0 C71.6,135.0 77.3,133.2 82.7,129.6 C86.8,126.8 89.6,127.6 86.8,130.7 C83.8,134.2 84.0,134.8 89.0,138.4 C95.3,142.9 98.1,147.3 97.8,152.0 C97.4,157.0 95.2,156.8 90.0,151.5 Z M213.2,150.8 C209.6,147.2 213.5,140.3 224.1,131.4 C234.3,122.7 246.3,117.8 257.5,117.7 C262.2,117.6 265.5,118.2 267.7,119.3 C274.9,123.1 277.1,130.4 272.7,135.6 C270.4,138.2 269.7,138.4 257.5,139.2 C242.3,140.1 236.3,141.7 225.1,147.6 C216.1,152.3 215.0,152.6 213.2,150.8 Z M66.0,124.1 C66.0,123.6 67.8,121.9 70.0,120.2 C77.9,114.5 84.8,103.1 87.0,92.3 C88.1,87.0 89.5,85.6 90.7,88.6 C91.6,90.9 89.3,100.9 86.4,106.7 C83.5,112.7 76.0,121.4 71.9,123.5 C68.7,125.2 66.0,125.4 66.0,124.1 Z M397.4,71.9 C395.2,68.3 397.8,56.1 401.8,51.7 C403.4,49.9 403.3,49.7 400.5,47.4 C397.1,44.7 397.0,44.7 406.5,45.0 C419.7,45.3 427.0,40.2 427.0,30.7 C426.9,21.2 420.9,12.3 409.4,4.8 L402.9,0.5 L412.2,0.2 L421.5,-0.1 L426.3,5.2 C435.0,14.9 439.4,26.9 437.6,36.3 C436.1,44.3 428.3,51.9 419.4,54.1 C411.5,56.0 409.1,57.7 406.9,62.8 C402.9,71.8 402.4,72.5 400.3,72.8 C399.1,73.0 397.8,72.6 397.4,71.9 Z M178.2,45.2 C177.7,44.3 177.0,40.7 176.7,37.3 C176.4,33.5 175.3,29.4 173.8,26.8 C171.9,23.3 170.5,22.2 165.7,20.4 C155.8,16.5 149.9,10.6 148.4,3.1 L147.8,0.0 L153.2,0.0 C158.1,0.0 158.7,0.3 160.3,3.0 C161.5,5.0 164.5,7.1 169.4,9.4 C181.5,15.2 186.5,23.1 186.4,36.2 C186.3,42.5 184.1,47.0 181.0,47.0 C179.9,47.0 178.7,46.2 178.2,45.2 Z M344.4,37.5 C343.9,36.3 345.2,34.4 349.0,30.8 C355.8,24.2 357.1,21.1 356.4,12.4 C356.0,8.4 356.3,4.3 356.9,2.8 C357.9,0.2 358.4,0.0 363.5,0.0 C368.9,0.0 368.9,0.0 368.0,2.6 C366.0,7.8 366.8,16.3 369.9,22.4 C372.9,28.5 372.3,30.6 368.5,27.0 L366.2,24.8 L363.6,28.8 C360.0,34.5 354.9,38.1 349.5,38.8 C345.9,39.2 344.9,38.9 344.4,37.5 Z M399.7,32.6 C386.9,27.3 376.6,16.4 377.2,8.7 C377.6,4.2 379.3,3.7 380.1,8.0 C382.3,18.5 399.0,30.6 412.6,31.4 C419.9,31.9 419.5,31.7 418.0,33.5 C416.0,35.9 406.6,35.4 399.7,32.6 Z M229.9,20.3 C225.6,16.4 220.0,6.3 220.0,2.2 C220.0,0.2 220.5,-0.0 225.4,-0.0 C230.8,-0.0 230.8,0.0 231.4,3.5 C231.8,5.4 234.1,10.0 236.6,13.6 C241.8,21.1 241.9,23.4 237.3,23.8 C234.8,24.1 233.3,23.3 229.9,20.3 Z" fill="#000000" fill-rule="evenodd"/></g><path class="bubble" d="M104,24 L738,24 A34,34 0 0 1 772,58 L772,184 A34,34 0 0 1 738,218 L275,218 L316,288 L200,218 L104,218 A34,34 0 0 1 70,184 L70,58 A34,34 0 0 1 104,24 Z" fill="#fff" stroke="#000" stroke-width="5" stroke-linejoin="round"/><g id="labels-en" class="labellayer" style="display:inline"><text font-family="Baloo 2, Comic Sans MS, system-ui, sans-serif" font-weight="700" text-anchor="middle" font-size="38" fill="#000"><tspan x="421" y="91">Tiny me — my whole</tspan><tspan x="421" y="135">instruction book was the</tspan><tspan x="421" y="180">very first ever fully read!</tspan></text></g><g id="labels-de" class="labellayer" style="display:none"><text font-family="Baloo 2, Comic Sans MS, system-ui, sans-serif" font-weight="700" text-anchor="middle" font-size="34" fill="#000"><tspan x="421" y="94">Winzig, ich — mein ganzer</tspan><tspan x="421" y="134">Bauplan war der allererste, der</tspan><tspan x="421" y="174">je komplett gelesen wurde!</tspan></text></g></svg>