<svg xmlns="http://www.w3.org/2000/svg" viewBox="0 0 1080 1527" width="1080" height="1527" role="img" aria-label="Coloring page of amoeba-proteus"><rect x="0" y="0" width="1080" height="1527" fill="#ffffff"/><g transform="translate(0,190)"><path class="artwork" d="M168.0,1078.6 C168.0,1075.6 172.4,1063.1 175.7,1056.7 C181.8,1045.0 199.8,1028.0 215.5,1019.0 C218.5,1017.3 221.2,1015.4 221.6,1014.9 C221.9,1014.4 220.3,1010.7 217.9,1006.7 C200.2,976.7 170.9,950.4 136.9,934.0 C112.9,922.5 94.9,918.2 67.5,917.3 C53.2,916.8 47.4,917.1 39.5,918.4 C27.0,920.5 12.4,924.4 5.4,927.5 L0.0,929.9 L0.0,924.5 L-0.0,919.2 L8.7,916.0 C13.6,914.3 20.6,912.1 24.5,911.2 C34.6,908.9 34.7,908.7 29.6,902.1 C22.8,893.2 11.7,876.4 5.6,865.7 L-0.1,855.8 L0.2,845.2 L0.5,834.5 L6.8,847.0 C13.3,860.0 20.9,872.7 34.5,892.8 C38.9,899.3 43.0,905.3 43.5,906.2 C44.3,907.5 45.5,907.7 49.0,907.1 C53.4,906.5 53.5,906.4 53.2,903.0 C52.9,898.9 44.2,872.4 37.9,856.5 C35.5,850.5 27.4,833.2 19.9,818.2 C12.3,803.3 6.6,791.0 7.1,791.0 C10.2,791.0 29.9,823.4 38.0,842.0 C46.4,861.1 52.1,876.4 56.4,891.3 C61.6,909.3 63.6,911.2 63.3,898.0 C63.1,888.7 61.3,877.3 56.9,857.5 C48.7,821.3 32.0,788.3 9.6,764.2 L0.0,753.8 L0.0,747.8 L0.0,741.8 L4.8,745.8 C26.2,763.8 47.1,795.1 57.1,824.2 C62.1,838.5 62.4,838.0 59.9,819.3 C55.9,788.1 50.3,762.9 33.0,697.5 C19.3,645.5 14.3,606.5 15.3,560.0 C16.3,517.2 22.5,478.2 35.5,433.5 C38.1,424.6 38.1,424.4 36.5,418.4 C33.3,406.6 24.2,395.6 9.0,385.3 L0.5,379.5 L0.2,373.3 L-0.1,367.1 L11.1,374.7 C17.2,378.9 25.4,385.2 29.1,388.8 C32.9,392.4 36.3,395.0 36.6,394.7 C37.8,393.6 29.6,371.8 22.6,357.5 C18.5,349.2 11.8,337.6 7.6,331.6 C0.7,321.8 -0.1,320.3 0.2,316.6 L0.5,312.6 L6.9,320.5 C20.1,336.9 33.3,361.0 39.1,379.2 C41.0,385.1 42.9,390.0 43.4,390.0 C43.9,390.0 44.0,380.5 43.7,368.2 C43.1,345.7 41.8,336.3 36.9,320.4 C31.8,303.9 21.0,286.3 8.1,273.5 L-0.0,265.5 L-0.0,259.7 C-0.0,254.1 0.1,254.0 2.1,255.1 C3.3,255.7 8.1,259.9 12.7,264.3 C37.7,288.3 51.1,318.8 53.6,357.7 C54.0,363.4 54.6,368.0 55.0,368.0 C55.8,368.0 61.2,351.7 64.1,340.5 C66.8,330.0 67.6,317.1 66.1,308.4 C65.5,304.6 63.1,293.4 61.0,283.5 C53.4,248.6 52.6,242.6 52.6,219.5 C52.5,200.0 52.7,197.7 55.2,188.0 C62.3,159.7 77.4,138.3 96.1,130.0 C103.7,126.6 116.4,126.5 123.2,129.9 C148.1,142.1 165.6,191.1 159.6,232.0 C154.9,263.6 142.4,285.8 110.5,319.0 C94.3,335.9 90.8,341.1 87.9,352.5 C87.0,356.4 82.8,372.3 78.7,388.0 C63.8,444.2 61.0,455.8 57.0,475.8 C48.0,521.2 45.7,557.5 49.1,600.8 C49.9,610.4 50.6,615.0 51.4,614.7 C53.0,614.2 56.7,598.5 59.0,582.0 C63.8,547.8 70.3,524.4 80.9,502.6 C98.9,465.7 125.1,440.5 156.0,430.4 C163.6,427.9 165.9,427.6 178.6,427.5 L192.7,427.5 L199.6,431.0 C211.3,437.0 215.7,445.0 214.7,459.1 C213.0,484.9 188.9,510.9 141.5,538.0 C123.9,548.0 108.3,557.9 100.0,564.1 C90.5,571.3 77.6,584.8 73.1,592.4 C65.2,605.6 59.4,626.9 58.3,646.5 C57.6,659.6 58.1,662.3 70.0,710.0 C82.1,758.5 88.3,787.0 91.5,809.0 C93.6,823.7 93.9,825.0 94.9,825.0 C95.4,825.0 96.1,823.3 96.5,821.2 C98.0,812.9 106.3,790.2 112.3,777.7 C119.7,762.3 131.7,744.0 142.2,732.0 C151.6,721.2 164.5,709.2 168.8,707.2 C171.9,705.7 172.2,705.7 174.2,707.8 C176.7,710.3 176.9,709.1 170.6,739.5 C168.4,750.0 165.5,770.2 163.0,792.3 C160.8,812.0 158.1,833.2 157.0,839.3 C152.9,863.2 145.8,883.9 133.7,907.5 C130.7,913.3 128.5,918.2 128.8,918.5 C129.1,918.8 135.2,921.9 142.4,925.4 C160.1,934.0 176.9,945.2 188.2,955.8 C191.8,959.2 192.0,959.3 197.7,958.6 C246.9,952.8 252.3,952.3 298.5,948.6 C327.2,946.2 350.8,944.7 380.0,943.2 L393.5,942.5 L393.2,938.5 C391.7,915.5 379.9,896.4 361.6,887.4 C354.3,883.8 352.9,883.5 343.5,883.2 C326.1,882.5 316.5,886.1 294.5,901.5 C276.9,913.9 262.9,921.2 252.6,923.5 C242.2,925.8 225.1,925.2 216.6,922.1 C199.6,916.0 184.2,899.9 178.7,882.6 C175.5,872.4 175.6,854.9 179.0,843.0 C182.1,831.9 191.2,814.1 203.6,795.0 C223.0,765.1 233.5,745.2 238.6,728.4 C241.0,720.7 241.4,717.7 241.4,706.5 C241.5,694.2 241.3,693.2 238.8,688.4 C232.7,676.8 223.3,675.6 201.0,683.3 C172.2,693.2 153.8,693.4 134.1,683.9 C127.2,680.5 123.9,678.1 117.5,671.6 C108.3,662.3 103.9,654.9 101.0,643.4 C96.1,624.5 101.1,604.7 115.4,586.2 C125.0,573.6 134.9,565.4 179.6,532.5 C193.3,522.5 207.5,509.9 216.3,500.1 C237.4,476.7 243.5,457.0 235.0,439.5 C230.0,429.0 221.9,423.2 201.6,415.4 C171.2,403.7 157.0,393.9 146.3,377.2 C136.2,361.6 133.8,340.0 140.1,321.3 C142.9,312.9 150.6,301.4 157.8,295.0 C164.5,288.9 178.9,281.7 187.5,280.0 C195.8,278.3 212.0,278.5 221.4,280.5 C229.6,282.2 242.6,286.6 268.2,296.4 C286.5,303.4 295.6,305.4 306.9,304.8 C318.1,304.2 324.6,301.2 332.4,293.0 C342.3,282.7 346.2,271.4 351.5,238.5 C358.6,194.9 366.4,172.5 382.2,150.9 C413.7,107.7 471.3,88.8 527.9,103.0 C554.6,109.8 572.8,118.9 605.1,141.6 C621.3,153.0 631.4,158.8 640.7,161.9 C647.6,164.2 656.9,164.6 662.1,162.9 C667.4,161.1 674.2,155.7 679.2,149.3 C687.2,139.2 694.8,132.2 701.8,128.8 C707.9,125.8 709.2,125.5 718.0,125.5 C726.8,125.5 728.0,125.8 734.2,128.9 C741.7,132.6 749.5,140.1 753.0,146.9 C754.2,149.3 755.8,154.3 756.6,158.2 C759.2,170.8 756.9,180.6 745.4,205.5 C740.8,215.4 736.3,226.5 735.4,230.0 C733.0,239.4 733.2,252.1 735.9,259.1 C739.0,267.3 742.0,269.6 748.8,269.2 C751.8,269.0 760.6,260.6 768.5,250.5 C782.1,233.1 794.1,226.0 810.0,226.0 C827.3,226.0 843.5,236.2 851.5,252.2 C856.1,261.5 857.4,268.3 856.7,281.5 C855.8,301.6 850.0,315.3 829.4,346.0 C810.4,374.4 807.3,381.9 808.2,397.0 C808.6,403.0 809.2,405.7 811.3,409.3 C816.5,418.1 822.8,421.8 858.0,436.5 C886.5,448.5 891.6,450.9 904.5,458.7 C935.8,477.7 956.9,501.2 967.9,529.3 C982.5,566.8 977.3,608.6 953.9,640.1 C940.3,658.5 915.6,676.5 892.2,685.2 C885.1,687.8 884.3,688.5 882.4,692.9 C881.6,694.9 878.2,701.1 874.8,706.7 L868.8,717.0 L869.2,728.7 C869.6,743.3 870.8,746.1 885.5,768.0 C898.2,786.9 901.1,793.8 901.7,807.0 C902.6,824.0 898.0,836.0 886.0,848.1 C874.4,859.9 862.0,865.0 845.2,865.0 C830.7,865.0 820.0,860.9 799.7,847.4 C782.8,836.2 778.1,834.0 770.4,834.0 C759.9,834.0 752.6,839.5 749.9,849.4 C748.0,856.5 750.0,864.4 758.4,881.8 C767.2,900.2 769.0,906.5 769.0,919.0 C769.0,926.2 768.4,929.8 766.4,935.8 C765.0,940.0 763.4,944.0 762.9,944.6 C762.3,945.3 762.3,946.0 762.7,946.3 C763.1,946.6 775.9,947.1 791.0,947.5 L818.5,948.2 L822.9,941.5 C825.3,937.8 830.2,931.8 833.9,928.2 C860.9,901.2 899.7,891.7 937.8,902.6 C947.9,905.5 953.5,908.3 961.9,914.5 L968.3,919.2 L977.9,916.1 C983.2,914.4 988.1,913.0 988.7,913.0 C992.4,913.0 991.6,911.3 977.5,887.5 C967.8,871.2 956.9,850.4 952.4,839.5 C938.0,804.5 931.0,770.5 931.0,735.2 C931.0,724.3 931.2,722.8 933.0,721.0 C934.1,719.9 935.7,719.0 936.5,719.0 C939.4,719.0 945.9,723.0 955.7,730.8 C967.5,740.3 976.3,749.5 984.9,761.5 C988.5,766.5 991.5,770.7 991.7,770.9 C992.6,772.1 993.2,769.0 994.6,756.4 C997.6,727.6 1002.7,700.2 1013.0,657.8 C1025.8,605.5 1033.0,567.0 1033.0,551.4 C1033.0,541.0 1025.8,518.6 1019.1,508.3 C1014.6,501.4 1004.0,491.3 995.6,485.8 C988.4,481.1 974.8,474.5 956.0,466.5 C938.8,459.2 930.3,454.9 921.5,449.1 C912.6,443.3 901.4,432.7 895.1,424.1 C880.8,404.8 874.8,380.0 880.9,366.2 C886.2,354.4 898.1,348.5 916.5,348.6 C932.4,348.7 946.7,353.5 963.3,364.3 C995.2,385.1 1016.2,422.3 1027.1,477.5 C1030.8,496.8 1034.2,511.0 1035.0,511.0 C1036.5,511.0 1033.9,462.8 1030.9,436.5 C1028.6,415.8 1021.6,373.6 1016.0,345.8 C1010.6,319.2 1012.1,321.5 973.4,284.0 C951.9,263.2 940.3,246.0 933.1,224.4 C922.6,192.9 924.1,157.9 936.9,131.5 C948.9,106.9 966.4,100.1 988.0,111.7 C997.2,116.7 1004.4,123.1 1011.7,133.0 C1031.1,159.3 1041.0,197.2 1038.1,233.8 C1037.5,241.3 1035.6,257.6 1033.9,270.0 C1030.2,297.0 1030.3,304.1 1035.0,321.7 C1036.8,328.5 1038.6,334.0 1039.0,334.0 C1039.4,334.0 1040.0,331.0 1040.4,327.2 C1043.4,297.3 1056.1,268.6 1075.8,247.0 L1079.9,242.5 L1080.0,249.7 L1080.0,257.0 L1074.5,264.1 C1063.9,277.8 1055.1,298.9 1051.4,319.5 C1049.6,329.5 1048.2,368.0 1049.6,368.0 C1050.1,368.0 1052.4,362.1 1054.8,354.9 C1059.7,339.9 1066.5,324.9 1074.2,312.3 L1079.5,303.5 L1079.8,307.8 C1080.1,311.4 1079.2,314.0 1074.2,323.8 C1070.9,330.2 1066.6,339.8 1064.6,345.1 C1060.6,356.0 1054.7,376.7 1055.3,378.3 C1055.5,378.9 1057.4,376.8 1059.5,373.6 C1062.8,368.5 1074.5,357.0 1078.5,354.7 C1079.8,354.0 1080.0,354.9 1080.0,359.7 C1080.0,365.4 1079.9,365.7 1074.9,370.5 C1064.9,380.2 1058.0,394.1 1058.0,404.4 C1058.0,406.8 1059.3,416.7 1061.0,426.6 C1067.4,465.3 1069.5,493.1 1068.7,528.0 C1067.8,567.1 1063.1,600.7 1050.1,661.1 C1034.2,735.2 1029.7,764.8 1028.5,803.1 C1027.9,824.3 1028.9,847.5 1030.5,847.5 C1031.0,847.5 1031.6,845.7 1031.8,843.5 C1032.5,833.4 1037.4,805.7 1040.9,791.8 C1047.8,764.4 1060.1,735.6 1074.0,714.0 L1079.5,705.5 L1079.8,714.1 C1080.1,722.5 1080.0,723.0 1076.4,729.0 C1060.2,756.7 1047.3,797.5 1042.5,835.9 C1040.5,852.6 1038.8,882.2 1039.2,895.0 C1039.5,904.5 1039.7,905.5 1041.4,905.5 C1042.4,905.5 1043.6,904.8 1044.1,904.0 C1044.5,903.2 1046.5,892.2 1048.5,879.6 C1052.3,855.6 1058.2,830.5 1064.5,811.0 C1069.2,796.4 1077.8,774.2 1079.1,773.5 C1081.7,771.8 1079.5,783.1 1073.6,801.0 C1070.0,811.7 1065.7,826.1 1064.0,833.0 C1058.0,856.8 1050.1,902.1 1051.3,905.4 C1051.8,906.8 1053.0,907.0 1057.2,906.8 L1062.3,906.5 L1067.1,890.0 C1072.1,873.0 1077.7,857.3 1079.2,856.4 C1079.6,856.1 1080.0,861.6 1080.0,868.7 C1080.0,880.7 1079.7,882.3 1076.0,894.5 C1072.4,906.4 1072.2,907.6 1073.7,908.8 C1074.6,909.4 1076.4,910.0 1077.7,910.0 C1079.8,910.0 1080.0,910.4 1080.0,915.0 C1080.0,920.8 1080.5,920.6 1069.5,918.3 C1057.9,915.9 1024.1,915.9 1010.5,918.3 C973.2,925.0 937.7,940.9 907.5,964.5 C897.2,972.5 881.9,988.4 875.1,998.0 C868.8,1006.9 860.5,1023.0 861.7,1024.0 C862.1,1024.3 866.2,1025.6 870.8,1026.8 C887.3,1031.1 902.1,1039.8 912.6,1051.3 C918.2,1057.6 925.5,1070.7 926.6,1076.8 L927.2,1080.0 L922.1,1080.0 C918.5,1080.0 917.0,1079.6 917.0,1078.6 C917.0,1077.9 915.4,1073.9 913.3,1069.9 C905.7,1054.4 889.2,1042.1 868.4,1036.3 C859.3,1033.8 857.0,1033.6 840.0,1033.6 C823.1,1033.5 820.6,1033.8 810.7,1036.3 C782.7,1043.3 757.3,1059.3 747.9,1075.8 C745.6,1079.9 745.4,1080.0 740.2,1080.0 C735.1,1080.0 734.9,1079.9 735.5,1077.8 C739.3,1065.2 760.7,1045.7 781.0,1036.3 C799.8,1027.5 814.5,1024.0 835.4,1023.1 C847.2,1022.6 850.5,1022.2 851.1,1021.0 C851.5,1020.2 853.5,1016.1 855.4,1012.0 C857.4,1007.9 861.5,1000.7 864.5,996.1 C867.5,991.5 870.0,987.3 870.0,986.8 C870.0,986.4 867.2,986.0 863.8,986.0 C848.3,985.9 827.8,981.4 821.5,976.6 C816.8,973.0 815.6,970.6 815.0,963.5 L814.5,957.5 L806.0,956.8 C801.3,956.5 787.9,956.2 776.1,956.1 L754.8,956.0 L750.0,960.3 C727.6,980.4 694.1,979.7 666.3,958.6 L659.2,953.1 L632.4,952.1 C603.2,950.9 535.5,950.8 527.6,951.8 L522.7,952.5 L519.0,964.0 C514.6,977.5 513.3,980.8 508.5,988.8 C501.6,1000.7 490.1,1010.9 478.9,1015.1 C462.7,1021.3 442.7,1019.0 426.7,1009.3 C410.5,999.5 401.3,984.0 395.4,956.5 L394.5,952.5 L379.5,952.8 C348.4,953.3 285.1,958.2 220.7,965.0 C210.9,966.0 202.6,967.1 202.3,967.4 C202.0,967.7 205.3,972.3 209.7,977.8 C219.9,990.4 222.9,994.9 227.3,1003.6 L230.9,1010.8 L239.8,1007.4 C263.7,998.4 296.6,998.7 322.2,1008.0 C350.9,1018.5 378.7,1046.4 384.8,1070.6 C387.4,1080.8 387.6,1080.0 382.0,1080.0 C377.4,1080.0 377.0,1079.8 376.4,1077.2 C373.0,1061.4 360.1,1043.7 342.5,1030.5 C322.7,1015.7 293.1,1008.0 267.5,1011.0 C237.1,1014.5 201.2,1035.6 185.7,1059.0 C182.1,1064.5 178.0,1074.6 178.0,1078.2 C178.0,1079.7 177.2,1080.0 173.0,1080.0 C169.4,1080.0 168.0,1079.6 168.0,1078.6 Z M594.0,1059.0 C573.3,1056.7 565.0,1051.9 565.0,1042.1 C565.0,1030.4 580.3,1017.4 600.0,1012.4 C608.6,1010.2 623.0,1010.9 631.8,1014.0 C645.5,1018.8 656.0,1030.1 656.0,1040.1 C656.0,1048.9 649.4,1054.7 636.3,1057.5 C627.9,1059.3 604.1,1060.2 594.0,1059.0 Z M635.2,1047.7 C642.9,1045.8 646.0,1043.7 646.0,1040.2 C646.0,1034.4 639.9,1028.1 630.5,1023.9 C624.2,1021.1 609.7,1020.2 601.9,1022.0 C590.7,1024.6 579.0,1032.2 575.4,1039.2 C574.0,1041.9 574.0,1042.3 575.5,1044.0 C577.3,1046.0 583.3,1047.9 591.8,1049.1 C600.1,1050.2 628.5,1049.3 635.2,1047.7 Z M690.3,1036.0 C684.3,1034.8 680.1,1032.3 678.9,1029.2 C675.3,1019.7 687.4,1009.7 702.5,1009.7 C724.1,1009.7 734.0,1031.0 714.6,1035.9 C709.5,1037.1 696.6,1037.2 690.3,1036.0 Z M714.8,1027.7 C718.7,1025.9 718.6,1023.6 714.4,1020.4 C707.4,1015.0 692.9,1016.2 687.0,1022.5 C684.8,1024.8 684.8,1025.2 686.2,1026.6 C689.5,1029.9 708.7,1030.7 714.8,1027.7 Z M472.1,1005.4 C484.0,1001.9 495.1,991.6 501.9,977.5 C504.2,972.8 508.4,960.8 511.5,949.9 C519.1,923.5 523.6,914.3 534.3,903.5 C543.7,894.1 550.6,890.2 564.0,886.9 C584.9,881.6 606.2,887.5 626.9,904.3 C630.5,907.2 640.1,916.8 648.4,925.8 C669.6,948.7 680.1,956.7 695.3,961.5 C714.2,967.5 732.3,962.9 745.9,948.5 C753.3,940.6 757.3,931.7 757.8,921.5 C758.4,910.9 756.7,904.6 748.6,887.3 C740.5,869.9 739.0,865.2 738.3,856.5 C737.6,846.5 740.4,839.4 747.9,831.9 C755.3,824.6 761.0,822.6 772.4,823.2 C782.5,823.7 788.2,826.2 804.0,836.9 C827.7,853.0 839.7,856.5 856.9,852.5 C880.9,846.8 895.6,823.1 889.5,799.7 C887.4,791.6 883.0,783.4 874.5,771.6 C865.8,759.6 860.8,749.4 858.7,739.2 C857.8,735.1 856.9,731.5 856.5,731.2 C856.2,730.9 853.8,732.7 851.3,735.2 L846.6,739.9 L847.9,746.7 C849.4,754.7 853.3,762.5 859.6,770.0 C867.1,779.0 873.9,789.9 875.6,795.8 C880.3,812.0 872.3,829.8 857.2,836.8 C852.4,839.0 850.1,839.4 843.0,839.4 C831.7,839.3 826.5,837.2 809.1,825.5 C792.6,814.5 786.5,811.9 775.1,811.2 C759.8,810.3 748.4,814.5 738.2,824.6 C729.6,833.2 725.8,841.5 725.2,852.6 C724.6,864.1 727.0,871.5 736.1,886.0 C745.7,901.3 747.3,905.9 746.8,917.5 C746.6,924.9 746.0,927.5 743.7,932.2 C734.9,950.1 715.7,957.7 695.5,951.3 C680.9,946.7 669.7,937.4 654.7,917.5 C637.3,894.5 620.2,880.4 603.0,874.8 C592.9,871.6 573.0,871.1 561.9,873.9 C535.9,880.4 517.0,898.1 507.0,925.3 C506.0,928.1 503.3,937.0 501.0,945.0 C496.0,962.7 491.6,971.9 484.4,979.9 C476.4,988.7 470.1,991.5 458.5,991.5 C450.7,991.5 448.7,991.1 443.4,988.7 C432.1,983.4 424.6,973.0 420.7,957.0 C419.8,953.4 418.4,944.0 417.5,936.1 C414.8,912.3 409.7,897.9 399.2,884.8 C389.3,872.4 377.2,864.1 360.7,858.3 C351.1,855.0 332.8,854.0 322.7,856.4 C311.0,859.1 299.3,865.9 284.0,879.0 C272.0,889.1 260.0,896.9 252.7,899.2 C247.9,900.7 244.4,901.1 237.4,900.8 C225.7,900.3 217.6,896.7 210.1,888.4 C192.8,869.4 194.4,846.5 215.2,816.0 C238.2,782.3 245.2,771.3 250.2,761.5 C275.5,711.7 274.3,669.1 247.3,655.8 C241.1,652.8 239.8,652.5 231.0,652.5 C220.8,652.5 222.6,652.0 191.0,663.6 C180.7,667.4 180.3,667.5 166.5,667.5 C153.3,667.5 152.2,667.3 146.6,664.7 C134.5,659.0 126.4,649.8 123.4,638.1 C118.3,618.1 129.5,599.0 158.0,579.2 C205.3,546.2 232.7,520.7 247.5,495.5 C263.8,468.0 264.8,445.3 250.8,424.3 C242.5,412.0 234.2,406.1 209.4,395.0 C200.8,391.2 190.5,386.0 186.5,383.5 C177.2,377.8 167.0,366.9 162.8,358.2 C159.7,351.9 159.5,351.0 159.5,340.5 C159.6,325.7 161.7,320.1 170.9,310.9 C175.9,305.9 179.0,303.8 183.5,302.1 C202.5,295.0 215.5,297.3 259.1,315.4 C284.3,325.9 295.0,328.9 309.0,329.7 C330.4,330.8 345.9,323.0 357.5,305.0 C365.9,292.0 369.9,277.8 375.0,243.5 C380.4,206.5 386.3,187.2 397.6,170.2 C412.5,147.9 432.8,133.8 459.9,126.8 C475.0,122.9 497.4,121.9 511.6,124.4 C536.0,128.6 558.9,139.2 585.5,158.5 C607.1,174.1 624.0,184.9 632.3,188.1 C639.8,191.1 641.5,191.4 651.5,191.5 C661.7,191.5 662.9,191.3 668.5,188.6 C674.6,185.6 684.6,176.3 696.0,163.1 C705.4,152.0 714.4,148.1 722.6,151.5 C730.7,154.8 734.9,161.6 735.0,171.1 C735.0,178.0 732.5,186.4 726.1,200.7 C717.2,220.7 713.8,233.9 713.7,248.0 C713.7,267.1 721.1,284.4 732.0,290.8 C735.6,293.0 737.7,293.5 743.0,293.5 C754.5,293.4 761.8,288.8 773.2,274.5 C788.8,254.9 795.8,249.6 806.0,249.6 C813.6,249.6 821.0,253.0 826.3,259.0 C831.6,264.9 834.0,271.8 834.0,281.4 C833.9,299.4 827.4,313.5 803.8,346.3 C793.9,360.1 789.4,368.1 785.7,378.9 C783.1,386.3 782.6,388.9 782.6,398.0 C782.6,407.4 783.4,412.3 786.6,423.3 C786.9,424.2 786.6,425.0 786.0,425.0 C784.3,425.0 780.1,415.1 778.3,406.5 C775.3,392.6 779.1,375.7 789.0,359.0 C791.1,355.4 797.8,345.5 803.9,337.0 C815.7,320.5 825.0,303.3 827.5,293.5 C830.8,280.4 828.7,269.1 821.8,262.3 C815.5,256.3 811.8,254.7 805.0,255.2 C797.2,255.8 792.0,259.8 781.0,273.6 C776.1,279.8 769.9,286.7 767.3,289.0 C757.5,297.7 744.6,301.0 734.2,297.6 C713.6,290.7 703.0,257.1 711.4,225.6 C712.9,220.1 715.9,211.3 718.1,206.1 C720.4,200.8 723.8,192.7 725.7,188.0 C730.1,177.5 731.1,168.3 728.3,163.1 C724.1,155.0 715.8,153.3 707.8,158.8 C703.2,161.9 701.6,163.6 692.1,175.3 C680.8,189.2 669.1,195.9 655.0,196.7 C636.4,197.8 620.8,191.0 590.2,168.3 C560.9,146.6 538.4,135.1 515.8,130.3 C505.8,128.2 480.0,127.9 470.0,129.9 C432.4,137.1 406.4,157.9 392.2,192.1 C387.5,203.6 384.4,217.0 380.5,243.3 C374.0,286.5 367.7,304.2 353.7,318.4 C342.1,330.2 330.1,335.1 313.0,335.1 C296.9,335.1 281.8,331.1 254.5,319.3 C224.3,306.3 214.4,303.5 199.7,304.2 C181.8,305.0 170.5,313.5 165.6,329.9 C159.5,350.7 171.9,371.1 198.5,384.0 C204.0,386.7 213.8,391.4 220.4,394.4 C233.3,400.5 242.2,406.4 248.6,413.2 C262.8,427.9 269.0,450.2 264.4,469.6 C262.0,479.8 251.9,500.1 243.7,511.0 C227.8,532.2 202.4,554.8 166.0,580.0 C149.5,591.4 135.6,604.9 131.5,613.3 C128.2,620.2 127.1,630.3 129.0,637.9 C129.7,641.0 132.0,645.4 134.5,649.0 C138.1,653.8 140.2,655.5 146.6,658.7 C154.3,662.5 154.5,662.5 166.4,662.5 C177.8,662.5 179.1,662.3 188.5,658.8 C218.3,648.0 219.3,647.7 228.0,647.2 C249.8,646.0 264.8,657.1 271.6,679.5 C274.2,688.1 274.0,706.2 271.1,720.0 C265.3,747.7 255.1,768.0 228.1,806.5 C208.9,833.7 204.5,843.6 204.5,859.5 C204.5,868.4 204.8,870.1 207.3,875.2 C210.9,882.6 216.7,888.2 224.7,892.2 C230.3,894.9 232.2,895.4 238.8,895.4 C243.5,895.4 248.6,894.7 251.7,893.6 C258.2,891.4 269.3,884.3 278.5,876.3 C295.0,862.2 306.7,855.1 318.6,851.9 C333.7,847.8 355.4,849.5 370.2,855.9 C383.9,861.7 400.4,875.8 408.5,888.4 C416.9,901.5 420.1,912.4 423.0,936.5 C425.8,960.6 429.0,970.0 437.1,978.1 C443.0,984.0 448.9,986.4 458.0,986.4 C464.3,986.5 466.4,986.0 471.3,983.6 C482.3,978.2 488.7,967.3 497.0,939.5 C505.2,911.9 514.0,896.6 528.1,885.2 C543.7,872.5 559.7,866.9 580.0,866.8 C598.1,866.7 610.1,870.3 625.1,880.1 C636.2,887.4 645.5,896.7 657.6,912.5 C673.8,933.7 683.5,942.2 695.9,946.0 C703.6,948.4 714.9,948.6 721.3,946.4 C727.7,944.2 735.3,937.2 738.7,930.2 C741.1,925.3 741.5,923.3 741.5,916.0 C741.5,906.2 739.6,901.4 729.7,885.7 C721.5,872.7 719.7,867.5 719.6,856.0 C719.5,844.4 721.3,838.8 728.1,828.6 C735.1,818.1 744.8,811.1 757.0,807.6 C775.5,802.4 789.8,805.8 810.7,820.2 C827.1,831.6 830.9,833.3 841.1,833.8 C848.3,834.2 850.4,833.9 854.8,832.0 C865.0,827.6 871.4,817.4 871.4,805.5 C871.4,796.4 867.9,789.1 857.1,775.6 C849.3,766.0 845.3,758.6 843.0,749.2 C842.4,746.9 841.8,745.0 841.6,745.0 C841.5,745.0 836.9,747.9 831.6,751.5 C806.9,768.0 782.9,775.3 753.0,775.3 C729.9,775.3 710.6,771.0 691.5,761.6 C676.4,754.1 667.2,747.8 655.5,736.7 L645.5,727.3 L628.0,726.7 C574.5,724.8 519.1,706.8 474.2,676.7 C451.7,661.8 435.0,647.2 435.0,642.8 C435.0,640.3 437.3,638.0 439.8,638.0 C440.4,638.0 446.8,642.8 454.2,648.6 C485.0,673.0 513.9,689.1 546.0,699.8 C573.8,709.0 590.2,712.6 615.4,715.1 C630.9,716.6 663.3,715.8 676.0,713.5 C705.7,708.2 728.9,695.4 737.2,679.8 C739.0,676.3 739.5,673.9 739.5,667.0 C739.5,659.4 739.2,657.9 736.5,653.2 C731.4,643.9 723.5,639.1 709.7,636.9 C701.8,635.7 699.0,635.8 664.5,638.0 C628.9,640.3 594.0,634.7 559.5,621.0 C541.9,614.0 536.9,611.6 524.1,604.0 C509.1,595.2 498.6,587.2 487.9,576.7 C478.0,567.1 476.8,564.8 479.9,561.7 C482.6,559.0 484.4,559.9 494.3,568.8 C520.3,592.4 554.4,610.5 590.1,619.5 C595.5,620.9 600.5,622.0 601.3,622.0 C602.6,622.0 602.8,619.5 602.8,606.8 C602.8,561.6 619.0,522.7 651.0,491.0 C667.5,474.6 687.3,462.5 709.5,455.1 C739.9,445.1 772.4,445.7 802.8,457.1 C807.4,458.8 811.4,460.0 811.7,459.7 C812.0,459.4 809.9,453.2 807.0,445.9 C799.3,426.3 794.8,400.1 796.9,386.9 C799.2,372.8 801.7,367.5 818.5,342.5 C831.7,322.8 839.0,309.4 843.1,297.5 C845.1,291.6 845.5,288.6 845.5,278.0 C845.5,265.8 845.4,265.3 842.2,258.8 C835.8,245.7 824.9,238.1 811.7,237.2 C798.3,236.4 788.2,242.7 775.0,260.0 C763.9,274.5 756.0,279.9 745.9,280.0 C734.0,280.0 725.3,269.6 722.9,252.6 C720.8,237.3 723.8,225.1 735.8,199.5 C744.4,181.2 746.0,175.8 746.0,166.1 C746.0,156.5 743.3,150.4 736.3,143.9 C723.5,131.9 707.1,133.9 694.1,149.0 C684.1,160.7 674.6,169.5 669.5,172.0 C662.8,175.2 650.0,175.9 641.0,173.6 C628.9,170.5 618.2,164.5 589.5,144.5 C561.7,125.2 536.2,114.4 510.4,110.9 C505.0,110.2 495.0,110.0 485.0,110.3 C470.9,110.7 466.8,111.2 456.5,113.8 C427.8,121.2 403.1,138.8 387.5,162.9 C374.9,182.5 369.2,199.9 363.0,238.5 C361.3,248.9 358.8,262.0 357.4,267.5 C348.0,305.4 322.8,322.0 286.8,314.0 C282.0,313.0 271.4,309.6 263.3,306.4 C225.8,292.1 218.1,290.0 203.0,290.0 C191.3,290.0 181.7,292.2 174.3,296.6 C157.6,306.6 148.0,323.4 148.0,342.3 C148.1,358.6 153.1,370.4 164.9,382.0 C174.3,391.2 183.2,396.4 203.0,404.0 C227.6,413.5 239.2,421.8 245.0,434.2 C260.8,468.1 238.7,504.3 174.0,550.4 C138.2,576.0 124.7,588.9 116.5,605.5 C108.5,621.5 108.3,635.4 115.6,650.8 C122.8,665.7 138.3,676.7 155.7,679.2 C167.5,680.9 178.0,679.4 196.7,673.1 C222.5,664.5 232.2,665.1 243.2,676.0 C247.9,680.7 249.2,682.8 251.0,688.6 C254.8,700.9 253.6,719.0 248.0,736.1 C244.9,745.5 231.1,772.9 223.4,785.0 C197.3,826.0 194.4,831.1 190.4,844.7 C185.9,860.1 186.9,876.0 193.2,888.4 C195.9,893.6 205.0,903.2 211.1,907.1 C221.3,913.6 236.4,915.9 249.3,913.0 C257.8,911.0 272.7,903.4 283.8,895.4 C301.1,882.9 314.6,875.8 326.8,872.9 C335.1,870.9 349.6,871.3 357.5,873.7 C370.0,877.6 382.2,886.2 389.8,896.4 C398.8,908.6 402.3,919.7 405.9,947.1 C407.1,955.8 408.9,965.7 410.0,969.1 C413.6,980.8 423.0,993.7 432.2,999.6 C442.7,1006.3 460.2,1008.9 472.1,1005.4 Z M884.5,971.4 C907.0,951.1 929.0,936.1 949.0,927.4 C957.3,923.9 957.9,923.4 955.4,921.5 C951.5,918.6 939.0,913.0 931.4,910.8 C920.8,907.8 894.2,907.5 884.0,910.3 C875.6,912.7 860.9,919.6 853.4,924.8 C840.8,933.4 827.3,949.8 825.0,959.3 C823.0,967.1 825.8,969.6 840.2,973.0 C851.4,975.6 852.6,975.7 867.0,975.8 L879.5,975.9 L884.5,971.4 Z M648.0,943.1 C648.0,942.1 641.2,934.2 631.6,924.1 C609.7,901.2 587.7,892.2 566.6,897.6 C551.9,901.4 540.5,909.9 533.7,922.2 C529.7,929.3 525.7,939.5 526.2,941.1 C526.4,941.7 541.1,942.1 569.5,942.1 C604.9,942.2 640.7,943.0 646.8,943.8 C647.4,943.9 648.0,943.6 648.0,943.1 Z M120.1,911.8 C124.4,904.9 134.0,884.0 137.5,874.0 C145.5,850.8 149.6,828.6 154.5,780.5 C156.7,758.9 157.8,751.0 160.6,737.6 C162.0,731.1 162.8,725.5 162.5,725.2 C161.8,724.4 156.1,730.6 145.6,743.5 C114.7,781.5 100.4,825.2 97.2,891.5 C96.5,906.3 96.6,908.7 97.9,909.8 C98.8,910.5 100.4,910.9 101.4,910.8 C103.2,910.5 104.2,906.8 110.0,879.5 C120.9,828.9 128.4,800.6 135.8,783.3 C138.4,777.3 140.9,774.6 139.6,779.2 C135.6,793.4 123.0,846.4 118.5,868.0 C115.4,883.1 112.0,899.3 111.0,903.9 L109.3,912.2 L112.4,913.6 C116.9,915.5 117.8,915.3 120.1,911.8 Z M1007.6,907.7 C1008.1,906.3 1001.7,881.2 996.8,866.1 C991.2,848.5 982.0,824.0 973.4,804.4 C968.8,793.7 965.0,784.5 965.0,784.0 C965.0,780.0 970.9,788.8 978.9,804.7 C990.3,827.6 1000.3,854.8 1009.8,889.2 L1014.6,906.5 L1017.8,906.8 C1020.9,907.1 1021.0,907.0 1021.0,903.3 C1021.0,895.7 1015.9,859.3 1013.4,848.5 C1003.9,808.9 985.3,773.3 961.6,749.5 C953.1,740.9 943.6,733.0 941.8,733.0 C940.3,733.0 941.5,756.3 943.9,772.6 C949.6,811.3 962.3,843.5 990.2,889.8 C994.0,896.1 997.9,902.9 999.0,905.1 C1000.7,908.3 1001.6,909.0 1004.1,909.0 C1005.7,909.0 1007.3,908.4 1007.6,907.7 Z M86.7,877.2 C85.8,828.8 80.7,795.0 64.0,728.0 C44.5,649.8 40.1,625.7 37.9,585.2 C36.2,553.5 38.9,517.5 45.6,481.2 C48.5,465.3 60.7,415.3 67.8,389.5 C90.6,307.7 99.3,262.3 104.5,197.4 C105.2,188.5 106.3,185.5 108.0,188.0 C111.8,193.8 103.3,277.8 95.4,311.5 C92.8,322.7 93.2,322.8 102.4,313.2 C129.6,285.0 141.3,266.5 147.7,242.0 C151.0,229.2 151.8,210.2 149.6,196.9 C145.2,170.2 132.3,145.2 119.7,139.1 C95.9,127.6 66.2,162.4 62.0,206.9 C60.3,224.9 62.0,239.5 70.0,277.4 C76.6,308.6 77.6,316.6 76.1,328.3 C74.5,340.3 72.2,349.3 64.5,373.0 C51.9,411.9 41.6,447.4 36.6,470.0 C28.2,507.7 25.0,535.7 25.0,570.7 C25.0,613.9 31.0,652.4 47.4,713.5 C60.1,760.8 68.2,800.6 71.5,831.8 C73.7,852.4 75.3,885.9 74.7,897.2 C74.4,902.5 74.5,907.1 74.8,907.4 C75.1,907.7 78.0,908.0 81.3,908.0 L87.3,908.0 L86.7,877.2 Z M456.3,885.5 C442.4,878.5 439.6,859.9 450.9,849.0 C458.4,841.7 467.4,840.1 476.7,844.4 C485.4,848.5 490.9,858.4 489.6,867.7 C487.4,884.0 470.9,892.8 456.3,885.5 Z M471.5,881.9 C482.5,878.8 487.1,865.1 480.5,854.9 C477.3,849.9 472.1,847.7 465.3,848.2 C456.0,849.0 450.0,855.4 450.0,864.7 C450.0,870.8 451.5,874.2 455.8,878.3 C460.3,882.6 465.0,883.7 471.5,881.9 Z M456.2,863.8 C454.0,861.6 454.8,857.3 458.1,854.6 C461.7,851.6 462.7,851.4 465.8,853.6 C468.7,855.6 468.7,860.0 465.7,862.8 C463.2,865.2 458.1,865.7 456.2,863.8 Z M464.6,860.9 C466.0,859.4 466.2,858.5 465.4,857.2 C463.1,853.6 458.0,855.1 458.0,859.5 C458.0,863.6 461.5,864.3 464.6,860.9 Z M549.4,855.5 C506.4,846.2 491.4,792.5 523.4,762.3 C535.5,750.8 547.8,746.4 565.5,747.3 C586.6,748.3 603.0,758.7 612.0,776.9 C618.0,789.0 619.4,802.2 616.0,815.4 C613.5,825.3 610.1,831.6 602.9,839.4 C590.2,853.2 568.6,859.7 549.4,855.5 Z M572.5,848.5 C587.1,845.4 598.8,836.3 605.4,822.9 C614.7,803.7 611.1,782.0 596.2,767.8 C583.9,756.0 567.7,751.5 550.8,755.1 C527.3,760.1 510.5,784.2 513.9,808.0 C516.3,824.2 525.8,837.3 540.2,844.5 C551.5,850.0 560.1,851.1 572.5,848.5 Z M559.5,840.9 C558.4,840.2 556.0,838.4 554.2,836.8 C551.3,834.3 550.1,834.0 544.4,834.0 C538.5,834.0 537.6,833.7 534.9,831.1 C530.5,826.6 530.8,821.3 535.9,815.7 C539.2,812.0 539.9,810.6 540.8,804.1 C542.3,793.9 545.8,788.4 553.2,784.6 C565.8,778.2 581.1,782.5 587.0,794.1 C588.1,796.2 589.0,799.0 589.0,800.4 C589.0,802.1 590.7,804.5 594.0,807.8 C598.2,811.9 599.0,813.3 599.0,816.4 C599.0,823.6 594.9,827.5 585.5,829.5 C583.8,829.9 580.1,832.5 576.8,835.7 C571.8,840.7 570.6,841.3 566.3,841.7 C563.7,841.9 560.6,841.5 559.5,840.9 Z M399.5,837.9 C371.4,833.6 342.6,811.4 329.0,783.5 C311.4,747.6 313.4,713.4 334.4,692.4 C345.6,681.2 356.5,677.0 373.9,677.0 C399.9,677.0 426.6,693.3 446.9,721.6 C467.2,750.0 471.9,783.5 458.9,809.1 C448.5,829.8 424.0,841.7 399.5,837.9 Z M671.7,836.6 C659.1,831.9 651.9,818.7 654.9,805.6 C659.2,786.3 682.9,778.4 697.7,791.3 C712.0,804.0 709.4,826.5 692.5,835.2 C687.4,837.9 676.9,838.6 671.7,836.6 Z M571.2,834.5 C573.3,833.1 575.4,831.2 575.9,830.2 C577.1,828.0 582.0,825.4 587.8,824.0 C596.0,821.9 597.2,815.0 590.1,810.5 C586.3,808.2 585.2,806.2 583.6,798.8 C582.9,795.7 578.7,790.5 575.6,788.8 C568.8,785.1 558.0,786.3 552.4,791.2 C547.8,795.3 546.2,798.6 545.4,805.7 C544.6,812.4 543.3,815.5 539.6,818.9 C533.8,824.3 537.8,830.7 546.2,829.5 C550.1,828.9 551.1,829.2 556.5,832.9 C563.5,837.7 566.2,837.9 571.2,834.5 Z M690.2,828.8 C698.9,824.5 702.7,811.3 697.8,802.1 C694.5,795.7 689.2,791.8 683.2,791.2 C670.6,790.0 661.1,798.9 661.0,811.8 C661.0,827.2 676.0,836.0 690.2,828.8 Z M421.5,828.5 C437.5,824.3 449.4,812.9 455.2,796.2 C458.5,786.5 458.5,767.8 455.2,757.0 C441.6,713.6 399.8,680.3 365.9,685.9 C348.1,688.8 334.9,699.8 328.9,716.6 C325.9,725.1 325.2,742.9 327.4,754.0 C331.1,772.2 339.8,788.8 352.7,802.1 C374.3,824.5 399.5,834.2 421.5,828.5 Z M1018.6,815.8 C1017.8,805.5 1019.2,778.5 1021.6,758.5 C1023.9,738.6 1027.5,718.4 1034.6,685.0 C1048.7,618.9 1053.0,595.4 1056.7,565.9 C1058.9,548.1 1059.2,489.3 1057.2,471.0 C1052.4,427.7 1044.2,388.4 1029.0,335.3 C1019.9,303.9 1019.8,301.3 1025.0,262.0 C1028.2,237.4 1029.2,219.4 1028.0,207.3 C1025.3,180.4 1018.8,161.3 1005.9,142.0 C992.2,121.5 973.5,111.7 960.3,118.1 C946.9,124.6 936.0,153.2 936.0,182.0 C936.0,200.1 941.3,221.8 949.7,238.7 C957.1,253.4 971.1,269.5 997.2,293.4 C1005.7,301.0 1008.0,302.7 1008.0,301.1 C1008.0,296.9 991.5,224.6 981.6,185.3 C977.5,169.2 977.5,169.0 979.4,169.0 C984.5,169.0 1017.7,299.3 1031.4,373.0 C1041.5,427.2 1045.0,463.2 1045.0,511.0 C1045.0,557.5 1041.1,585.3 1025.6,649.6 C1009.8,714.8 1004.6,744.3 1003.3,774.7 L1002.7,788.8 L1008.2,801.7 C1011.3,808.7 1014.6,816.9 1015.6,819.8 C1016.6,822.6 1017.9,825.0 1018.4,825.0 C1018.9,825.0 1018.9,821.0 1018.6,815.8 Z M560.4,813.4 C558.2,810.1 560.0,807.8 562.8,810.3 C565.2,812.5 567.6,812.5 568.8,810.3 C569.8,808.6 573.0,809.1 573.0,811.0 C573.0,813.2 568.9,816.0 565.5,816.0 C562.9,816.0 561.6,815.4 560.4,813.4 Z M668.7,808.2 C666.2,805.5 666.6,802.2 669.9,798.9 C673.3,795.5 677.8,795.0 680.3,797.8 C682.8,800.6 682.4,802.8 678.6,806.6 C674.8,810.4 671.2,811.0 668.7,808.2 Z M552.6,806.1 C550.3,803.6 552.0,799.7 555.2,800.2 C558.1,800.6 559.8,803.5 558.4,805.8 C556.8,808.2 554.7,808.4 552.6,806.1 Z M675.8,805.4 C678.3,803.7 678.7,800.2 676.6,799.4 C673.4,798.2 668.8,803.2 670.5,806.0 C671.4,807.4 673.2,807.2 675.8,805.4 Z M573.0,804.5 C571.2,802.3 572.9,799.5 576.1,799.5 C578.1,799.5 578.5,800.0 578.5,802.5 C578.5,804.8 578.0,805.6 576.4,805.8 C575.3,806.0 573.7,805.4 573.0,804.5 Z M595.0,794.1 C595.0,793.6 595.7,793.0 596.5,792.6 C598.2,792.0 598.5,788.4 597.0,787.5 C596.4,787.1 595.3,787.3 594.6,787.9 C592.9,789.3 591.7,788.1 593.1,786.3 C594.5,784.7 598.2,784.6 599.8,786.2 C600.5,786.9 601.0,788.6 601.0,790.0 C601.0,791.4 600.5,793.1 599.8,793.8 C598.4,795.2 595.0,795.4 595.0,794.1 Z M526.7,790.2 C521.5,784.5 528.2,770.9 538.7,765.6 C548.3,760.8 557.5,769.0 550.8,776.3 C549.5,777.7 545.2,781.8 541.2,785.4 C533.3,792.5 529.8,793.6 526.7,790.2 Z M540.5,781.3 C549.8,772.9 551.3,770.4 548.4,768.3 C546.0,766.5 544.4,766.7 539.3,769.1 C532.0,772.6 525.8,783.7 529.0,787.5 C529.7,788.3 530.6,789.0 531.1,789.0 C531.5,789.0 535.8,785.5 540.5,781.3 Z M776.8,762.5 C812.6,755.6 846.5,731.8 865.4,700.4 C867.4,697.2 869.0,694.0 869.0,693.4 C869.0,692.6 864.1,692.4 852.2,692.8 C831.9,693.4 822.6,691.9 810.3,685.9 C799.9,680.9 793.0,674.3 788.7,665.3 C785.9,659.1 785.6,657.6 785.6,649.0 C785.7,624.1 799.2,610.4 837.1,596.9 C845.0,594.1 855.8,589.6 861.0,586.8 C871.1,581.6 883.4,573.0 884.4,570.5 C885.3,568.0 879.2,549.1 873.6,537.4 C859.2,507.3 838.3,486.1 808.5,471.2 C776.9,455.5 730.6,455.8 697.1,472.0 C655.3,492.3 625.7,531.1 616.5,578.0 C614.6,587.6 613.4,612.3 614.4,619.4 C615.3,625.4 616.0,625.6 634.1,627.2 C646.1,628.2 651.6,628.1 673.1,626.6 C699.0,624.7 707.8,624.9 718.4,627.6 C731.8,631.1 742.6,639.5 747.6,650.3 C750.2,655.9 750.5,657.5 750.5,667.0 C750.5,676.8 750.3,677.9 747.2,684.2 C743.5,691.8 735.2,700.7 726.3,706.6 C714.2,714.6 694.5,721.6 675.2,724.6 C669.3,725.5 663.8,726.5 663.0,726.7 C659.6,727.7 680.9,744.0 694.5,750.8 C704.6,755.8 722.8,761.7 733.9,763.5 C744.5,765.3 765.1,764.8 776.8,762.5 Z M739.6,750.0 C731.6,748.7 720.3,745.4 717.4,743.5 C712.8,740.5 716.0,740.2 725.2,742.7 C737.8,746.1 757.8,746.9 770.3,744.6 C796.6,739.6 820.4,726.1 836.3,707.1 C842.8,699.3 844.3,698.1 845.4,699.8 C847.3,703.0 829.9,722.6 818.0,730.5 C804.7,739.3 790.4,745.4 775.5,748.5 C766.0,750.5 747.9,751.3 739.6,750.0 Z M486.3,729.4 C484.1,727.2 483.8,726.2 484.3,722.7 C485.0,717.7 487.9,715.0 492.7,715.0 C497.4,715.0 501.0,718.7 501.0,723.5 C501.0,731.2 491.8,734.9 486.3,729.4 Z M496.0,727.0 C497.1,725.9 498.0,724.3 498.0,723.5 C498.0,721.7 494.5,718.0 492.8,718.0 C490.9,718.0 488.0,721.2 488.0,723.3 C488.0,725.7 490.7,729.0 492.7,729.0 C493.4,729.0 494.9,728.1 496.0,727.0 Z M766.0,724.2 C766.0,723.8 769.0,722.6 772.8,721.6 C776.5,720.5 783.8,717.9 789.0,715.8 C801.9,710.5 803.3,710.2 799.5,713.5 C795.2,717.2 786.3,721.6 779.3,723.4 C772.9,725.1 766.0,725.5 766.0,724.2 Z M874.8,678.6 C899.0,672.5 918.8,661.2 935.6,643.8 C947.7,631.3 956.6,616.1 961.6,599.5 C964.1,591.2 964.4,589.1 964.4,573.0 C964.4,558.0 964.1,554.4 962.2,547.4 C954.1,517.5 935.3,492.6 905.8,473.0 C891.5,463.4 877.3,456.4 848.7,444.7 C826.5,435.6 816.3,430.1 809.3,423.7 C806.9,421.5 804.7,419.9 804.5,420.2 C803.0,421.6 814.5,453.5 819.2,461.1 C820.6,463.3 825.0,467.1 830.0,470.5 C851.5,485.0 865.8,500.1 878.2,521.4 C882.6,528.9 892.0,550.7 892.0,553.4 C892.0,555.8 893.9,555.3 894.5,552.8 C896.7,542.7 897.7,539.6 899.2,538.6 C900.6,537.8 901.4,537.9 902.7,539.3 C904.1,540.7 904.5,542.8 904.5,549.4 C904.4,557.0 904.1,558.4 900.6,565.5 C894.2,578.5 880.8,590.2 862.7,598.5 C858.7,600.3 848.1,604.6 839.0,608.0 C814.5,617.2 806.2,622.6 800.5,633.1 C796.8,640.1 795.8,652.5 798.5,659.5 C802.0,668.8 814.0,677.3 828.0,680.5 C838.3,682.8 861.7,681.9 874.8,678.6 Z M299.3,661.9 C291.5,659.7 284.4,646.3 287.0,638.6 C289.4,631.4 297.7,628.7 304.7,633.0 C308.2,635.1 313.6,643.7 314.6,648.6 C316.2,657.1 307.9,664.3 299.3,661.9 Z M307.9,654.4 C310.3,651.3 310.0,648.6 306.4,642.3 C303.5,637.3 301.1,635.8 296.7,636.2 C289.7,636.9 289.6,646.8 296.5,653.7 C300.7,657.9 304.9,658.2 307.9,654.4 Z M319.0,612.4 C304.6,609.4 287.3,597.9 278.6,585.7 C268.3,571.3 264.4,558.2 265.2,541.1 C266.1,521.8 274.1,505.0 288.0,493.0 C296.3,485.9 301.3,483.0 310.7,479.6 C345.7,467.2 383.2,482.6 398.6,515.5 C416.7,554.5 394.3,601.3 352.2,612.1 C343.3,614.4 328.7,614.5 319.0,612.4 Z M349.5,603.5 C367.0,599.0 382.3,586.7 389.8,571.0 C394.6,560.9 396.0,554.7 396.0,543.8 C396.0,528.2 390.7,514.9 380.0,503.6 C368.4,491.5 355.4,485.2 339.5,484.3 C322.5,483.3 307.5,488.0 294.8,498.3 C288.4,503.6 280.2,515.2 277.1,523.5 C272.6,535.6 272.7,554.4 277.3,566.0 C284.6,583.9 301.7,599.1 319.6,603.4 C327.5,605.3 342.2,605.4 349.5,603.5 Z M791.0,600.5 C781.9,597.7 778.0,589.9 783.0,584.5 C789.6,577.5 810.1,578.2 816.0,585.7 C823.9,595.8 807.4,605.5 791.0,600.5 Z M811.4,595.1 C812.8,593.7 814.0,591.9 814.0,591.0 C814.0,588.8 810.3,585.5 806.1,584.1 C795.3,580.5 781.6,585.7 785.0,592.0 C788.3,598.1 806.0,600.2 811.4,595.1 Z M642.5,589.8 C638.0,588.2 633.4,584.5 632.1,581.2 C628.4,572.3 642.7,565.4 656.5,569.5 C670.5,573.5 673.5,585.5 661.7,589.9 C658.2,591.3 646.5,591.2 642.5,589.8 Z M660.9,585.6 C664.3,584.0 665.8,581.4 664.4,579.2 C659.9,571.9 644.0,569.7 637.3,575.4 C629.2,582.4 649.2,591.1 660.9,585.6 Z M714.4,585.6 C708.8,583.0 702.5,576.3 701.7,572.2 C701.3,570.3 701.7,568.9 703.1,567.5 C705.5,565.0 707.5,566.1 710.5,571.4 C716.5,582.1 731.1,582.6 738.1,572.4 C741.4,567.6 742.8,567.1 745.3,569.8 C747.7,572.4 747.4,574.1 744.1,578.7 C737.8,587.4 724.8,590.5 714.4,585.6 Z M774.6,574.5 C766.4,571.6 762.4,564.9 763.2,555.5 C764.4,541.1 780.6,534.3 791.1,543.7 C805.0,556.2 792.0,580.7 774.6,574.5 Z M866.5,563.8 C863.3,551.6 860.2,543.9 854.9,534.8 C850.1,526.5 849.9,524.2 854.6,529.5 C859.2,534.6 866.4,549.6 868.3,558.0 C872.4,575.5 870.9,580.1 866.5,563.8 Z M97.5,553.5 C100.8,551.1 114.8,542.3 128.6,534.0 C142.4,525.7 158.2,515.9 163.7,512.0 C189.4,494.3 205.2,473.2 205.2,456.4 C205.3,446.8 201.7,441.9 191.8,438.4 C186.1,436.3 173.1,436.3 165.2,438.4 C139.6,445.0 118.3,461.2 100.5,487.5 C89.7,503.7 78.7,530.5 74.1,552.5 C72.9,558.0 71.8,563.5 71.5,564.8 C70.6,568.6 72.5,567.2 74.9,562.2 C85.2,541.1 113.9,506.9 137.0,488.3 C148.0,479.4 160.6,471.6 161.5,472.9 C161.7,473.4 156.3,478.6 149.4,484.5 C125.7,504.8 106.9,525.1 93.1,545.5 C86.3,555.5 80.0,566.0 80.0,567.4 C80.0,567.8 82.6,565.8 85.8,563.1 C88.9,560.3 94.2,556.0 97.5,553.5 Z M667.0,565.4 C657.0,561.1 653.1,549.7 658.3,539.9 C663.2,530.6 675.4,527.8 683.4,534.1 C687.4,537.2 690.0,543.2 690.0,549.0 C690.0,556.9 686.3,562.3 678.8,565.5 C674.2,567.4 671.5,567.4 667.0,565.4 Z M777.2,554.3 C780.4,551.4 778.8,547.0 774.5,547.0 C768.7,547.0 768.6,555.8 774.4,556.0 C774.9,556.0 776.2,555.3 777.2,554.3 Z M671.4,544.8 C672.6,542.8 671.6,540.4 668.7,538.6 C666.8,537.4 663.0,540.3 663.0,543.0 C663.0,547.0 669.2,548.3 671.4,544.8 Z M289.4,540.5 C281.6,535.1 285.0,519.2 296.4,507.6 C308.6,495.1 324.9,490.9 331.0,498.7 C335.7,504.7 332.5,511.3 322.2,516.8 C314.8,520.7 312.0,523.4 307.4,530.7 C301.7,539.7 299.2,542.0 295.0,542.0 C293.1,542.0 290.5,541.3 289.4,540.5 Z M299.2,536.2 C300.0,535.3 302.0,532.3 303.6,529.5 C307.5,522.7 312.9,517.6 319.9,514.1 C329.6,509.2 332.0,504.2 326.8,499.8 C319.6,493.5 298.8,505.9 291.8,520.5 C287.2,530.3 288.6,538.0 295.0,538.0 C296.5,538.0 298.4,537.2 299.2,536.2 Z M349.4,509.6 C343.5,507.0 341.0,500.1 344.8,496.7 C350.0,492.0 361.3,497.0 361.3,504.0 C361.3,510.0 356.0,512.4 349.4,509.6 Z M681.2,509.4 C675.2,505.2 676.5,497.4 684.3,489.6 C693.1,480.9 708.6,474.0 719.2,474.0 C724.4,474.0 725.5,474.4 728.1,476.9 C733.9,482.8 731.1,490.2 720.2,497.3 C703.0,508.7 687.2,513.6 681.2,509.4 Z M357.8,504.5 C358.3,501.2 355.7,498.8 351.6,498.6 C346.0,498.4 344.5,501.2 348.4,504.6 C351.9,507.7 357.3,507.6 357.8,504.5 Z M706.3,500.8 C726.7,490.8 733.5,481.2 722.3,478.1 C712.3,475.3 689.6,486.1 683.4,496.6 C678.9,504.3 680.6,507.4 689.2,506.8 C693.5,506.5 697.5,505.1 706.3,500.8 Z M1008.4,479.2 C994.7,455.5 968.3,426.1 941.8,405.0 C930.0,395.7 928.8,392.5 939.3,398.4 C954.0,406.6 980.3,430.1 994.2,447.5 C999.8,454.5 1015.5,477.2 1016.3,479.3 C1016.5,480.0 1017.0,480.2 1017.4,479.9 C1017.8,479.6 1016.5,473.3 1014.6,465.9 C1005.2,429.4 992.6,404.6 974.0,386.0 C951.3,363.2 921.7,353.2 900.3,361.2 C888.0,365.8 885.2,376.2 891.2,395.0 C895.5,408.5 902.5,419.4 913.7,430.1 C925.1,441.1 936.4,447.6 966.5,460.2 C982.5,466.9 994.2,473.0 1002.6,478.9 C1006.4,481.6 1009.9,483.9 1010.3,483.9 C1010.8,484.0 1010.0,481.9 1008.4,479.2 Z M565.0,471.0 C551.7,469.0 539.1,461.7 529.9,450.7 C520.2,439.2 514.0,424.9 514.0,414.2 C514.0,404.3 519.2,401.0 531.0,403.5 C553.6,408.1 554.4,408.2 566.5,407.7 C580.9,407.1 593.8,403.4 604.0,397.0 C618.3,388.0 622.5,387.3 625.7,393.3 C627.0,395.8 627.4,398.9 627.3,407.5 C627.0,438.1 611.8,461.5 587.5,468.9 C579.7,471.3 571.9,472.0 565.0,471.0 Z M274.8,455.2 C275.4,438.8 272.0,427.9 261.9,414.6 C256.6,407.6 256.1,405.3 260.5,408.8 C267.2,414.1 274.4,426.8 277.1,438.0 C279.3,447.4 278.0,466.0 275.1,466.0 C274.7,466.0 274.5,461.2 274.8,455.2 Z M584.7,461.5 C590.0,459.9 596.1,456.3 596.7,454.3 C597.9,450.8 582.1,440.2 571.6,437.4 C561.0,434.6 543.0,436.6 536.5,441.4 C534.6,442.7 534.6,442.8 537.2,446.2 C541.2,451.4 550.4,458.0 557.3,460.6 C564.8,463.4 577.0,463.8 584.7,461.5 Z M432.3,449.0 C425.4,447.5 419.7,444.6 416.3,440.6 C412.2,436.0 411.4,432.9 412.9,427.8 C416.7,415.2 438.3,405.1 458.5,406.3 C476.9,407.4 486.9,414.7 485.8,426.2 C484.9,434.9 476.1,442.7 462.0,447.1 C454.7,449.4 438.9,450.4 432.3,449.0 Z M461.2,443.0 C473.4,439.2 482.0,431.5 482.0,424.3 C482.0,415.8 468.0,409.2 452.6,410.3 C442.5,411.0 432.7,414.0 426.4,418.3 C411.0,428.6 415.1,441.5 435.0,445.4 C440.0,446.3 454.8,445.0 461.2,443.0 Z M341.5,434.5 C336.4,432.7 331.4,427.3 330.0,422.1 C327.9,414.2 332.1,405.2 339.4,401.9 C352.8,395.8 366.7,406.2 364.5,420.7 C363.7,426.4 357.8,433.1 352.2,434.8 C347.3,436.3 346.5,436.3 341.5,434.5 Z M353.0,428.5 C357.2,426.3 359.0,423.2 359.0,417.8 C359.0,413.9 358.4,412.4 355.9,409.6 C348.5,401.1 336.3,405.5 335.2,417.0 C334.8,421.8 334.9,422.2 338.8,426.0 C343.2,430.5 347.7,431.3 353.0,428.5 Z M672.0,411.6 C658.7,408.1 652.8,398.5 657.6,388.4 C662.7,377.8 686.7,367.7 703.0,369.4 C716.4,370.9 727.2,377.3 728.6,384.7 C730.6,395.5 719.1,406.8 701.3,411.4 C694.1,413.3 678.5,413.4 672.0,411.6 Z M700.3,407.5 C711.0,404.7 720.0,398.6 723.6,391.7 C726.4,386.4 723.3,380.8 715.0,376.4 C709.5,373.4 689.8,373.7 680.7,376.8 C656.3,385.3 652.8,402.8 674.5,408.1 C679.8,409.4 694.4,409.0 700.3,407.5 Z M468.3,397.5 C451.9,393.9 436.9,380.3 430.9,363.5 C427.8,354.9 427.8,338.9 430.8,330.6 C436.8,314.4 451.8,300.8 468.0,297.1 C502.5,289.1 535.0,321.8 527.6,357.0 C523.1,378.2 507.4,393.9 487.2,397.6 C477.9,399.2 476.2,399.2 468.3,397.5 Z M481.7,389.4 C481.9,388.9 480.3,387.6 478.3,386.7 C471.9,383.9 467.3,379.3 463.8,372.2 C460.9,366.4 460.5,364.6 460.5,357.5 C460.5,347.3 462.8,341.2 469.2,334.4 C475.7,327.5 482.3,324.6 491.5,324.6 C500.8,324.6 507.5,327.5 513.5,334.3 C516.0,337.0 518.3,340.3 518.6,341.6 C519.5,345.2 521.0,344.5 520.4,340.8 C518.5,329.9 511.9,318.2 504.8,312.9 C496.9,307.1 490.5,304.8 481.1,304.3 C467.9,303.5 457.1,307.7 448.0,317.2 C440.3,325.2 435.0,340.7 436.5,351.0 C438.7,366.8 446.8,378.9 459.5,385.7 C467.6,390.0 480.8,392.2 481.7,389.4 Z M627.6,374.4 C595.9,366.7 580.0,331.3 594.6,301.1 C598.1,294.0 608.7,283.4 616.1,279.7 C641.1,267.2 670.6,277.2 683.0,302.4 C692.8,322.3 689.4,344.4 673.9,360.5 C661.7,373.2 644.3,378.5 627.6,374.4 Z M626.0,365.4 C626.0,365.1 624.6,363.7 622.9,362.3 C614.9,355.6 610.9,339.5 614.4,327.9 C618.2,314.9 630.6,305.6 643.8,305.6 C652.6,305.7 659.5,308.7 665.5,315.1 C672.5,322.6 674.5,327.7 674.4,338.3 C674.4,343.1 674.7,346.7 675.2,346.2 C677.6,343.8 680.3,333.0 680.3,325.5 C680.4,306.7 670.5,291.5 654.0,284.8 C649.7,283.1 646.4,282.6 638.5,282.6 C629.3,282.5 628.0,282.7 621.8,285.7 C610.5,291.0 602.2,300.3 598.5,311.8 C597.2,315.9 596.9,319.5 597.2,326.8 C597.5,335.3 598.0,337.4 601.0,343.5 C604.9,351.6 612.4,359.6 619.6,363.3 C624.6,366.0 626.0,366.4 626.0,365.4 Z M310.7,351.6 C307.6,350.9 304.4,349.8 303.8,349.2 C303.1,348.5 302.8,348.0 303.1,348.0 C303.3,347.9 310.2,347.8 318.5,347.6 C330.9,347.4 334.5,347.0 339.3,345.2 C352.1,340.5 362.8,330.2 371.1,314.9 C373.4,310.5 375.7,307.0 376.3,307.0 C377.8,307.0 376.3,311.9 371.9,320.9 C360.6,343.9 334.9,356.8 310.7,351.6 Z M484.1,349.1 C487.3,345.8 487.7,343.3 485.5,339.1 C483.9,335.8 482.2,335.0 477.5,335.0 C473.4,335.0 470.0,338.8 470.0,343.2 C470.0,347.0 474.8,352.0 478.5,352.0 C480.1,352.0 482.3,350.8 484.1,349.1 Z M637.0,330.0 C639.5,327.5 639.7,321.0 637.2,318.1 C636.3,317.0 634.1,315.7 632.3,315.4 C629.6,314.9 628.6,315.3 626.0,317.8 C622.2,321.7 622.0,326.1 625.5,329.5 C628.6,332.7 634.1,332.9 637.0,330.0 Z M733.1,313.7 C727.0,311.5 728.5,310.5 737.7,310.5 C744.9,310.5 747.6,310.0 752.7,307.8 C756.2,306.3 759.2,305.5 759.5,306.0 C760.0,306.8 754.3,310.8 749.7,312.8 C745.4,314.7 736.9,315.2 733.1,313.7 Z M434.7,276.2 C432.5,273.8 432.6,271.8 434.9,267.2 C441.5,254.2 461.2,242.0 475.6,242.0 C480.4,242.0 481.6,242.4 484.1,244.9 C487.4,248.2 487.7,250.5 485.4,253.8 C483.3,256.8 480.9,258.0 472.0,260.2 C462.2,262.6 455.7,265.8 447.4,272.5 C440.1,278.3 437.3,279.1 434.7,276.2 Z M289.5,262.4 C279.7,257.0 275.4,246.3 278.9,235.8 C280.7,230.3 287.6,224.4 294.1,223.0 C301.4,221.4 306.8,222.9 312.5,228.1 C317.8,233.0 319.3,237.2 318.8,245.6 C318.4,252.6 316.9,255.4 310.6,260.4 C307.3,263.1 306.0,263.5 299.7,263.7 C294.5,264.0 291.7,263.6 289.5,262.4 Z M699.5,257.2 C698.1,253.7 697.7,234.4 699.0,228.9 C701.9,216.7 704.2,217.3 702.3,229.7 C701.4,234.8 701.0,242.9 701.2,248.8 C701.5,258.6 701.0,261.0 699.5,257.2 Z M307.5,253.9 C317.3,245.3 311.4,229.0 298.4,229.0 C294.4,229.0 289.0,232.0 286.9,235.4 C284.6,239.1 284.4,246.0 286.5,250.0 C289.0,254.9 292.7,257.0 298.6,257.0 C303.1,257.0 304.5,256.5 307.5,253.9 Z M879.7,248.7 C874.5,247.0 869.4,242.7 866.8,237.7 C862.5,229.5 864.5,217.4 871.2,211.4 C881.0,202.4 896.9,204.1 904.5,214.9 C907.2,218.8 907.5,219.9 907.5,227.4 C907.5,234.7 907.2,236.1 904.8,239.8 C899.7,247.5 888.4,251.5 879.7,248.7 Z M642.5,243.2 C634.2,239.9 632.6,239.6 621.8,239.5 C608.9,239.3 605.6,238.1 604.4,233.4 C601.3,221.1 624.9,217.3 644.6,227.0 C652.8,231.0 661.0,238.3 661.0,241.5 C661.0,248.0 655.7,248.4 642.5,243.2 Z M893.0,241.1 C898.3,238.3 901.0,233.7 901.0,227.5 C901.0,211.9 883.1,206.6 873.6,219.4 C870.4,223.6 870.7,231.6 874.2,236.2 C879.1,242.7 886.5,244.6 893.0,241.1 Z M409.8,214.4 C401.6,210.0 402.2,195.2 411.2,180.2 C420.8,164.3 439.2,150.7 454.2,148.5 C470.6,146.0 477.2,163.1 463.8,173.3 C462.0,174.8 456.8,178.6 452.3,182.0 C445.9,186.8 442.2,190.6 435.3,199.8 C430.5,206.2 425.0,212.5 423.1,213.7 C419.2,216.3 413.8,216.6 409.8,214.4 Z M422.7,208.8 C424.1,207.5 427.6,203.0 430.6,198.7 C437.8,188.5 444.7,181.8 455.2,174.7 C466.8,166.9 469.6,161.2 464.6,155.4 C462.6,153.0 461.5,152.6 457.4,152.7 C441.9,153.0 421.7,168.8 412.2,187.9 C409.1,194.2 408.5,196.4 408.5,201.8 C408.5,207.4 408.8,208.4 411.0,210.2 C414.1,212.7 419.2,212.1 422.7,208.8 Z M275.4,196.6 C261.4,193.9 246.7,184.0 239.0,172.0 C230.6,158.9 228.1,140.4 232.8,125.4 C236.8,112.3 247.8,99.1 259.7,93.2 C292.7,76.5 331.1,94.4 339.6,130.6 C348.4,168.0 313.5,203.8 275.4,196.6 Z M298.3,187.0 C310.9,183.1 321.7,173.9 327.1,162.5 C340.7,133.8 322.9,100.2 291.9,96.0 C277.5,94.0 263.2,98.8 253.1,108.9 C242.5,119.5 237.4,135.0 239.8,149.2 C244.6,177.1 272.3,195.0 298.3,187.0 Z M492.3,160.1 C485.5,156.9 483.9,150.7 488.6,145.1 C494.8,137.7 512.1,139.2 515.8,147.5 C518.3,153.0 516.9,158.0 512.0,160.5 C507.9,162.6 497.5,162.4 492.3,160.1 Z M834.7,161.0 C825.0,158.5 815.5,151.6 810.0,142.9 C792.5,115.8 809.7,80.4 841.8,77.4 C858.9,75.8 874.9,84.9 882.7,100.8 C886.4,108.2 886.5,108.7 886.5,119.4 C886.4,128.6 886.0,131.5 884.1,136.3 C880.8,144.7 872.6,153.1 863.5,157.6 C857.0,160.8 855.0,161.3 847.3,161.6 C842.5,161.8 836.8,161.5 834.7,161.0 Z M510.8,156.4 C515.6,153.1 512.3,146.5 505.2,144.9 C496.9,143.1 489.4,146.7 490.2,152.2 C490.9,157.2 505.4,160.2 510.8,156.4 Z M855.2,152.9 C860.6,151.5 868.0,146.1 872.2,140.5 C880.1,130.1 881.6,117.1 876.2,105.7 C872.2,97.0 868.0,92.6 860.2,88.8 C854.3,85.9 852.6,85.5 845.0,85.5 C834.5,85.5 827.5,88.4 820.2,95.7 C813.2,102.7 810.7,109.8 811.2,121.0 C811.7,131.1 814.4,137.3 821.4,144.3 C830.8,153.6 841.9,156.5 855.2,152.9 Z M251.5,139.5 C246.3,134.4 250.2,120.5 259.0,112.7 C263.9,108.2 272.3,104.0 276.3,104.0 C285.0,104.0 289.5,113.1 283.2,118.0 C281.7,119.2 278.3,121.5 275.7,123.1 C272.7,124.9 269.9,127.7 268.2,130.7 C261.9,141.5 256.4,144.5 251.5,139.5 Z M263.5,131.0 C267.1,125.4 269.4,123.0 275.0,119.5 C278.8,117.0 282.2,114.5 282.5,113.9 C282.9,113.4 282.4,111.8 281.5,110.3 C280.0,108.1 279.3,107.8 275.4,108.3 C266.5,109.3 255.6,119.4 253.0,129.1 C251.6,134.2 253.1,138.0 256.5,138.0 C258.5,138.0 259.9,136.6 263.5,131.0 Z M184.0,122.4 C169.1,115.9 166.0,96.1 178.4,85.3 C188.3,76.5 204.2,78.8 211.7,90.1 C214.9,94.9 215.9,103.7 214.0,109.5 C212.4,114.4 207.4,119.9 202.5,122.1 C197.6,124.4 188.8,124.5 184.0,122.4 Z M200.8,115.0 C213.7,107.1 208.2,87.0 193.2,87.0 C188.3,87.0 184.6,88.7 181.1,92.4 C177.6,96.1 177.0,105.1 179.9,109.8 C182.8,114.3 187.6,117.0 193.0,117.0 C195.7,117.0 198.8,116.2 200.8,115.0 Z M822.7,113.2 C818.8,108.9 821.6,101.5 829.3,95.9 C834.1,92.4 839.1,92.1 842.0,95.0 C845.9,98.9 844.6,101.4 834.2,110.4 C828.5,115.3 825.3,116.1 822.7,113.2 Z M834.8,106.0 C838.3,102.7 841.0,99.5 840.8,98.8 C840.1,96.8 837.4,95.7 834.6,96.4 C830.7,97.4 824.0,104.6 824.0,108.0 C824.0,113.9 827.0,113.4 834.8,106.0 Z M336.1,73.0 C315.5,69.9 297.2,52.6 292.9,32.3 C291.4,24.7 292.3,12.9 295.0,5.7 L297.1,-0.0 L302.0,-0.0 L306.9,0.0 L304.3,5.8 C300.6,14.0 300.0,25.4 302.9,34.8 C312.3,65.9 352.5,75.2 374.9,51.5 C386.8,38.9 390.0,19.6 382.7,4.7 L380.3,-0.1 L385.3,0.2 C390.2,0.5 390.3,0.5 392.2,5.5 C394.7,11.7 395.7,25.7 394.1,32.9 C391.3,46.2 381.8,59.2 369.9,66.3 C359.7,72.3 347.6,74.7 336.1,73.0 Z M892.6,66.0 C883.5,63.1 876.7,53.7 876.7,44.1 C876.7,25.2 898.7,15.0 913.3,27.1 C926.0,37.6 923.5,57.3 908.7,64.4 C904.2,66.5 896.5,67.3 892.6,66.0 Z M785.8,59.8 C767.2,57.7 750.6,45.5 742.0,27.6 C738.1,19.5 736.0,11.1 736.0,3.8 L736.0,0.0 L740.5,0.0 L745.0,0.0 L745.0,3.8 C745.0,9.6 747.7,19.5 751.1,26.2 C759.8,43.4 781.8,54.6 800.2,51.2 C814.5,48.6 828.8,38.3 834.9,26.2 C838.3,19.5 841.0,9.7 841.0,3.8 C841.0,0.1 841.1,-0.0 844.9,-0.0 C849.7,-0.0 850.2,1.3 849.0,10.8 C847.3,24.1 841.5,35.6 831.9,44.6 C824.6,51.4 819.5,54.5 810.8,57.4 C802.3,60.2 795.2,60.9 785.8,59.8 Z M903.0,59.0 C905.0,58.5 908.1,56.4 910.0,54.5 C912.9,51.5 913.4,50.2 913.7,45.3 C914.0,40.7 913.7,38.8 912.1,36.2 C904.0,23.4 884.0,28.8 884.0,43.8 C884.0,51.5 887.9,56.9 894.9,59.0 C898.5,60.1 899.0,60.1 903.0,59.0 Z M221.2,50.0 C212.0,47.8 207.3,36.6 211.9,28.0 C216.9,18.6 230.7,18.3 237.4,27.3 C240.2,31.2 240.2,39.9 237.4,43.7 C233.1,49.4 227.6,51.6 221.2,50.0 Z M229.8,42.4 C235.1,38.7 234.6,30.4 228.8,27.4 C219.9,22.8 211.8,33.9 218.9,41.1 C222.2,44.4 226.3,44.9 229.8,42.4 Z M768.2,32.3 C761.2,28.9 755.6,18.5 754.4,6.6 C753.8,0.3 753.8,0.0 755.9,0.0 C757.8,0.0 758.0,0.5 758.0,5.5 C758.0,17.2 766.4,30.5 773.3,29.8 C777.9,29.4 777.9,26.3 773.6,17.6 C769.7,9.7 767.7,0.0 770.1,0.0 C771.1,0.0 771.9,2.1 772.7,5.9 C773.3,9.4 775.3,14.3 777.4,17.7 C781.6,24.6 781.9,28.2 778.5,31.5 C775.7,34.4 772.8,34.6 768.2,32.3 Z M315.7,12.2 C314.0,10.4 313.4,4.6 314.6,1.6 C314.9,0.7 316.1,0.0 317.1,0.0 C318.8,0.0 318.9,0.3 318.0,2.0 C317.4,3.2 317.0,5.5 317.2,7.3 C317.4,10.0 318.0,10.6 320.3,10.8 C322.6,11.1 324.1,10.1 328.6,5.6 C332.6,1.4 334.7,0.0 336.8,0.1 L339.5,0.1 L336.1,2.8 C334.2,4.3 330.7,7.4 328.4,9.8 C323.5,14.6 318.6,15.5 315.7,12.2 Z" fill="#000000" fill-rule="evenodd"/></g><path class="bubble" d="M104,24 L738,24 A34,34 0 0 1 772,58 L772,158 A34,34 0 0 1 738,192 L275,192 L316,268 L200,192 L104,192 A34,34 0 0 1 70,158 L70,58 A34,34 0 0 1 104,24 Z" fill="#fff" stroke="#000" stroke-width="5" stroke-linejoin="round"/><g id="labels-en" class="labellayer" style="display:inline"><text font-family="Baloo 2, Comic Sans MS, system-ui, sans-serif" font-weight="700" text-anchor="middle" font-size="46" fill="#000"><tspan x="421" y="98">I don&#x27;t chase lunch — I</tspan><tspan x="421" y="153">hug it!</tspan></text></g><g id="labels-de" class="labellayer" style="display:none"><text font-family="Baloo 2, Comic Sans MS, system-ui, sans-serif" font-weight="700" text-anchor="middle" font-size="46" fill="#000"><tspan x="421" y="98">Mittagessen jage ich</tspan><tspan x="421" y="153">nicht — ich umarme es!</tspan></text></g></svg>