<svg xmlns="http://www.w3.org/2000/svg" viewBox="0 0 1080 1527" role="img" aria-label="Coloring page of prion"><rect x="0" y="0" width="1080" height="1527" fill="#ffffff"/><g transform="translate(0,190)"><path d="M1022.8,1046.0 C1020.4,1044.5 1012.0,1029.5 1004.6,1013.2 C996.0,994.3 987.4,981.2 974.1,966.5 C955.2,945.7 951.2,935.0 949.0,900.0 C948.5,890.9 947.5,881.6 947.0,879.2 C944.4,868.3 937.9,859.7 925.1,850.2 C907.8,837.5 900.4,826.9 894.5,806.6 C892.0,797.9 891.3,796.2 890.7,797.1 C890.5,797.3 888.3,800.5 885.8,804.1 C880.2,812.0 870.9,819.7 857.7,827.5 C845.3,834.7 836.1,843.2 832.9,850.2 C830.8,854.8 830.5,857.0 830.6,866.5 C830.7,872.5 831.5,882.6 832.4,888.8 C836.3,915.9 832.9,929.0 816.9,948.2 C805.2,962.2 798.0,972.1 794.8,978.3 C792.9,982.2 790.5,990.5 787.9,1001.9 C782.7,1025.3 782.3,1026.7 779.7,1028.5 C775.4,1031.5 772.2,1030.5 766.1,1024.1 C763.0,1020.8 755.8,1014.4 750.0,1009.9 C744.2,1005.4 731.8,994.2 722.5,985.1 C708.9,971.8 702.0,966.0 688.0,956.1 C670.8,943.9 656.1,932.2 644.7,921.8 C636.4,914.1 636.3,912.3 643.9,903.0 C647.2,898.9 653.4,889.7 657.6,882.6 C668.8,863.6 673.6,857.6 686.2,846.3 C706.8,827.9 713.4,819.9 716.0,810.1 C717.6,804.1 717.4,791.3 715.5,781.0 C713.3,768.8 713.5,755.7 716.0,747.6 C718.1,741.0 724.4,730.7 732.2,721.4 C759.1,689.1 763.0,683.6 770.2,667.8 C776.5,653.9 783.9,633.7 783.1,632.7 C782.7,632.3 779.7,632.5 776.4,633.1 C767.4,634.8 740.7,633.7 728.2,631.1 C711.0,627.5 688.7,620.2 651.8,606.1 C639.6,601.4 635.6,601.1 625.5,604.0 C621.7,605.1 616.3,606.0 613.6,606.0 C610.4,606.0 606.9,606.9 603.6,608.5 C597.5,611.5 590.0,613.0 581.6,613.0 C571.6,613.0 568.2,611.6 561.5,604.7 L555.5,598.5 L550.6,601.8 C547.9,603.6 543.8,605.5 541.4,606.1 C537.5,607.1 536.9,607.7 534.0,613.6 C530.0,621.7 525.1,625.0 516.9,625.0 C512.2,625.0 509.7,624.1 498.1,618.3 C484.8,611.6 477.3,605.8 471.5,597.7 L469.5,595.0 L457.5,598.3 C439.6,603.2 426.5,610.8 409.6,625.8 C407.5,627.7 403.3,630.4 400.3,631.7 C395.7,633.8 393.8,634.2 388.9,633.7 C380.3,632.9 375.5,629.8 369.2,621.0 C366.2,616.9 363.4,613.4 363.0,613.2 C362.5,613.0 357.7,615.4 352.3,618.6 C346.9,621.7 340.6,625.4 338.2,626.7 C334.7,628.8 332.4,629.2 326.0,629.4 C321.6,629.4 318.0,629.8 318.0,630.2 C318.0,630.5 326.7,643.8 337.3,659.7 C428.6,795.9 441.8,816.1 459.1,845.3 C465.8,856.6 466.1,857.4 465.5,860.8 C463.6,871.2 444.2,909.3 411.7,966.5 C407.3,974.2 398.6,990.6 392.2,1003.0 C379.3,1028.4 372.9,1039.3 369.7,1041.5 C368.5,1042.3 365.9,1043.0 364.0,1043.0 C359.2,1043.0 356.9,1040.4 348.0,1025.0 C332.7,998.6 316.4,971.9 291.5,933.0 C283.9,921.2 274.2,905.9 269.8,899.0 C265.5,892.1 258.7,881.5 254.8,875.5 C243.5,857.9 215.6,813.1 203.8,793.5 C197.8,783.6 192.4,775.5 191.8,775.5 C191.3,775.5 185.1,785.6 178.1,798.0 C171.1,810.4 154.8,839.2 141.8,862.0 C128.8,884.8 109.9,918.1 99.8,936.0 C89.6,953.9 75.4,979.5 68.0,993.0 C47.1,1031.6 44.9,1035.3 42.2,1038.2 C38.6,1042.1 35.0,1041.9 30.0,1037.4 C26.4,1034.1 10.2,1009.2 5.0,999.0 C3.8,996.5 2.1,993.8 1.4,992.9 C0.2,991.6 0.0,987.9 0.2,975.4 L0.5,959.5 L10.4,977.0 C24.9,1002.8 34.3,1017.9 35.7,1018.0 C36.4,1018.0 38.4,1015.2 40.1,1011.8 C47.3,997.6 74.3,948.5 93.7,914.5 C98.1,906.8 108.1,889.2 116.0,875.5 C144.6,825.3 171.1,778.2 212.0,705.0 C214.6,700.3 220.9,689.1 226.0,680.0 C231.1,670.9 239.2,656.3 244.0,647.5 C260.9,616.8 270.8,599.5 274.2,595.0 C277.2,591.0 277.8,589.3 278.3,582.9 C278.7,578.8 279.9,571.2 281.0,566.0 C282.1,560.8 283.0,553.3 283.0,549.3 C283.0,541.9 283.9,539.9 286.0,542.5 C287.3,544.0 287.2,548.1 285.4,578.5 C285.0,587.0 285.1,589.0 286.7,592.0 C290.4,599.1 315.9,615.0 323.6,615.0 C326.8,615.0 327.4,614.4 335.5,602.1 C345.2,587.3 348.6,583.0 350.6,583.0 C351.4,583.0 352.0,583.3 352.0,583.6 C352.0,583.9 349.3,589.2 346.0,595.4 C342.7,601.6 340.0,607.0 340.0,607.3 C340.0,608.6 342.0,607.9 347.7,604.6 C355.0,600.3 363.2,597.6 366.5,598.4 C370.0,599.3 376.6,605.4 379.6,610.6 C381.0,612.9 382.8,615.4 383.7,616.1 C385.1,617.3 385.2,616.8 384.6,611.5 C384.2,608.2 383.6,599.5 383.1,592.2 C382.7,584.9 382.0,578.6 381.4,578.0 C380.8,577.4 378.5,578.6 375.2,581.2 C371.4,584.2 369.6,585.0 368.8,584.2 C366.4,581.8 376.8,570.0 381.3,570.0 C388.1,570.0 389.8,575.6 390.7,600.8 C391.0,610.3 391.7,618.3 392.1,618.6 C393.5,619.4 399.1,616.1 405.0,611.0 C418.9,599.1 434.3,590.9 452.5,585.6 C463.7,582.4 464.5,582.0 464.1,579.8 C463.3,574.8 463.5,573.6 465.2,573.2 C468.2,572.6 472.0,576.1 479.0,586.0 C486.6,596.7 490.0,600.0 496.9,603.4 C499.4,604.6 504.5,607.3 508.1,609.3 C516.9,614.2 520.3,613.7 523.2,607.2 L525.2,602.8 L518.2,595.6 C509.8,587.1 507.0,582.2 507.0,576.0 C507.0,570.4 509.0,567.1 517.3,558.6 C524.0,551.8 525.8,550.9 528.1,553.6 C529.2,554.9 529.0,555.8 527.0,559.5 L524.6,563.8 L530.1,568.8 C534.8,573.1 535.3,573.9 534.1,575.4 C532.3,577.6 531.1,577.4 525.6,574.5 C519.7,571.4 519.2,571.4 518.4,574.5 C517.6,577.6 521.0,582.9 528.1,589.5 C533.1,594.2 535.6,594.9 540.7,592.9 C544.9,591.3 547.9,588.1 549.0,583.8 C549.9,580.7 549.4,576.1 546.0,557.4 C543.7,545.0 540.9,532.3 539.8,529.3 C537.2,522.8 533.3,518.5 528.9,517.6 C525.1,516.9 499.8,517.0 471.9,517.8 L451.3,518.5 L445.9,522.1 C434.7,529.5 418.3,538.0 415.2,538.0 C412.6,538.0 411.6,537.2 408.9,533.3 C403.5,525.4 398.8,520.0 397.4,520.0 C396.6,520.0 394.3,521.5 392.3,523.2 C390.2,525.0 387.6,527.0 386.5,527.6 C385.4,528.2 380.7,535.0 376.0,542.7 C367.1,557.5 365.3,560.0 363.9,560.0 C361.0,560.0 365.5,546.0 372.0,534.7 L377.1,525.9 L375.0,523.3 C373.9,521.9 372.7,519.0 372.4,516.8 C372.0,514.7 371.4,513.0 371.0,513.0 C370.6,513.0 366.3,516.5 361.5,520.8 C356.6,525.0 351.2,529.7 349.4,531.3 C339.6,539.6 325.9,540.3 321.9,532.8 C319.8,528.9 314.0,505.6 314.9,504.7 C316.3,503.3 321.9,511.8 323.6,517.9 C327.0,530.5 327.0,530.5 332.6,530.5 C336.2,530.4 338.5,529.7 341.4,527.7 C346.9,524.0 360.9,512.6 360.9,511.8 C361.0,511.5 358.6,510.9 355.7,510.5 C347.1,509.4 340.9,505.8 332.5,496.8 C324.9,488.7 319.4,479.8 318.8,474.5 C318.3,469.9 320.5,470.6 324.6,476.2 C334.2,489.4 349.4,503.9 351.6,501.8 C351.9,501.4 350.5,498.0 348.4,494.3 C342.5,483.9 340.3,478.8 336.2,466.1 C332.5,454.5 332.5,454.5 332.6,437.5 C332.6,415.9 336.0,396.6 339.2,399.8 C339.8,400.4 339.8,405.4 339.1,414.1 C337.3,436.3 337.6,444.8 340.7,455.1 C342.2,460.0 343.8,463.9 344.4,463.7 C345.0,463.5 345.8,460.7 346.2,457.4 C347.3,448.5 349.2,443.6 361.7,417.0 C382.5,372.9 389.1,358.8 397.2,340.5 C406.3,320.0 421.0,283.6 421.0,281.7 C421.0,279.3 402.3,235.7 392.0,214.0 C380.8,190.3 348.3,120.0 343.0,107.7 C341.1,103.5 339.2,100.1 338.6,100.3 C338.1,100.5 337.2,101.9 336.7,103.6 C329.5,126.1 307.4,177.9 277.5,242.0 C261.0,277.5 210.9,377.4 197.8,401.0 C172.8,446.0 143.7,498.3 131.5,520.0 C124.0,533.5 112.2,554.9 105.3,567.5 C98.4,580.1 88.8,597.5 84.1,606.0 C58.0,652.4 14.9,730.4 7.6,744.5 C4.4,750.5 1.4,755.9 0.9,756.5 C0.4,757.0 0.0,750.6 0.0,740.7 C0.0,724.2 0.0,724.0 2.8,719.3 C4.4,716.6 9.3,708.0 13.7,700.0 C91.3,560.5 84.4,573.3 83.1,570.2 C82.4,568.7 76.7,558.5 70.5,547.5 C49.4,510.2 15.2,445.3 3.1,419.8 L-0.0,413.1 L0.2,396.3 L0.5,379.5 L20.6,419.5 C48.6,475.0 91.3,554.9 93.2,555.0 C93.9,555.0 101.0,542.8 117.2,513.5 C126.2,497.3 141.8,469.3 148.5,457.5 C154.8,446.3 173.6,412.2 180.5,399.5 L184.3,392.4 L166.5,363.0 C156.7,346.8 144.2,326.1 138.7,317.0 C107.9,265.9 47.1,148.5 37.0,120.8 C34.6,114.3 32.4,109.0 32.1,109.0 C31.5,109.0 13.6,155.6 5.9,177.0 C3.6,183.3 1.4,188.9 0.8,189.5 C0.3,190.1 0.0,182.2 0.2,169.0 L0.5,147.5 L5.7,134.5 C8.6,127.3 14.2,112.9 18.3,102.3 C22.4,91.7 26.4,82.0 27.3,80.6 C31.5,74.3 73.8,65.7 127.5,60.4 C153.0,57.9 227.4,57.3 257.5,59.4 C296.4,62.1 333.7,67.6 339.6,71.5 C344.3,74.5 349.1,83.8 372.5,135.0 C381.6,154.8 393.7,181.0 399.6,193.2 C415.9,227.4 429.7,258.9 434.6,273.3 L436.9,280.1 L435.0,287.3 C431.2,302.2 409.8,352.0 384.5,405.0 C357.4,461.6 357.7,460.7 362.6,484.7 C364.7,495.1 365.8,496.6 371.5,497.3 C378.3,498.0 382.6,501.8 385.4,509.5 C385.6,510.1 387.1,509.5 388.8,508.2 C396.5,502.7 401.4,503.9 411.0,513.9 L418.5,521.8 L425.5,517.4 C429.4,514.9 435.8,511.3 439.9,509.3 L447.3,505.6 L472.4,504.7 C486.2,504.3 505.4,504.0 515.0,504.2 C530.5,504.6 533.0,504.8 536.5,506.7 C541.6,509.4 547.2,515.3 549.9,520.8 L552.1,525.1 L556.8,520.2 C563.4,513.4 568.3,511.9 585.0,511.2 C597.7,510.8 598.8,510.6 603.9,507.7 C608.4,505.1 610.7,504.6 617.5,504.2 C625.1,503.8 626.2,504.0 635.6,507.8 C667.6,520.6 719.0,531.3 740.9,529.6 C745.6,529.2 749.8,528.6 750.1,528.2 C751.2,527.1 747.3,500.3 745.0,493.6 C742.0,484.5 735.0,475.9 718.8,461.2 C699.7,444.0 695.0,437.4 689.9,421.0 C687.2,412.4 686.9,401.7 688.4,364.5 C689.3,341.4 689.6,344.1 682.5,317.5 C679.2,305.3 678.7,302.0 678.7,292.0 C678.6,283.0 679.1,278.8 680.8,272.7 C684.5,259.8 693.5,243.6 706.0,227.5 C714.9,216.0 727.2,196.9 731.5,187.7 C736.6,177.0 739.8,167.6 744.6,149.2 C753.8,114.0 759.8,101.4 772.7,90.7 C783.1,82.1 794.1,78.1 813.4,76.0 C831.1,74.1 835.9,72.4 852.3,61.8 C871.8,49.3 883.7,45.5 901.0,46.3 C913.5,46.8 919.5,48.9 939.5,59.9 C958.1,70.1 962.2,71.3 979.5,70.9 C1010.5,70.2 1009.9,70.1 1019.4,74.8 C1026.8,78.5 1029.0,80.2 1036.3,88.3 C1052.1,105.8 1058.0,115.5 1070.0,143.0 C1074.5,153.2 1078.5,161.9 1079.1,162.4 C1079.6,163.0 1080.0,170.6 1080.0,179.4 C1080.0,189.3 1079.6,195.0 1079.1,194.4 C1076.9,192.2 1063.7,166.8 1059.0,155.6 C1047.9,129.6 1036.2,108.5 1032.1,107.2 C1031.1,106.9 1030.9,107.2 1031.3,108.4 C1034.5,116.8 1035.4,151.9 1032.7,166.5 C1030.5,178.5 1025.5,193.3 1017.0,213.1 C1005.7,239.2 1003.1,246.4 998.5,264.0 C996.1,273.1 993.1,283.3 991.7,286.7 C988.1,295.5 981.4,305.4 972.9,314.5 C962.0,326.3 961.2,327.7 959.0,338.9 C956.8,350.6 954.8,354.8 947.6,363.4 C939.5,372.9 938.3,375.9 936.6,390.8 C934.0,413.0 928.6,432.2 919.5,451.7 C912.1,467.4 905.2,476.9 888.2,494.3 C867.5,515.6 868.0,514.9 852.5,548.0 C843.8,566.7 838.6,575.4 829.3,586.4 C809.9,609.2 806.1,616.2 792.9,652.5 C782.4,681.5 773.8,695.8 749.9,724.1 C728.7,749.3 726.8,755.1 731.0,781.5 C733.6,797.7 733.3,807.4 729.6,817.4 C725.7,828.3 722.2,833.0 708.6,846.0 C682.5,870.9 681.2,872.4 672.0,888.4 C667.3,896.5 662.0,904.9 660.2,907.1 C658.3,909.2 657.0,911.6 657.2,912.4 C657.6,914.2 670.2,924.6 682.5,933.3 C711.2,953.5 718.1,959.0 736.0,976.5 C754.4,994.4 769.1,1006.7 770.9,1005.6 C771.4,1005.3 772.1,1002.9 772.5,1000.3 C773.8,991.5 778.8,976.3 782.9,968.4 C785.2,964.1 790.4,956.5 794.5,951.5 C814.0,927.9 818.0,921.1 818.3,910.0 L818.5,904.5 L812.5,901.5 C809.2,899.8 797.0,892.6 785.5,885.4 C759.1,869.0 752.9,865.5 741.7,860.5 C736.7,858.3 732.5,855.9 732.2,855.2 C731.7,853.5 738.0,853.6 744.8,855.4 C752.4,857.4 775.3,869.3 789.3,878.4 C795.7,882.6 801.6,886.0 802.2,886.0 C802.9,886.0 790.7,873.3 775.2,857.7 C759.7,842.1 747.0,828.8 747.0,828.2 C747.0,822.6 761.0,834.1 794.2,866.9 C806.2,878.7 816.2,888.1 816.5,887.8 C816.8,887.5 816.6,883.2 815.9,878.4 C815.3,873.5 815.0,865.4 815.2,860.2 C815.7,852.0 816.2,850.0 819.5,843.2 C824.6,832.8 833.2,824.5 847.4,816.0 C873.2,800.6 879.1,792.2 892.7,751.0 C902.4,722.0 909.2,711.1 937.2,679.3 C954.4,659.7 959.9,649.7 967.4,623.5 C972.5,605.9 979.1,591.4 986.6,581.1 C989.2,577.5 998.8,566.7 1007.9,557.0 C1036.0,527.2 1037.5,523.9 1047.6,473.1 C1052.6,448.1 1056.2,436.1 1064.1,419.0 C1069.7,406.8 1077.7,391.1 1079.1,389.6 C1079.6,389.0 1080.0,395.6 1080.0,404.8 C1080.0,419.3 1079.8,421.5 1077.9,425.1 C1071.3,438.1 1066.2,455.6 1061.0,483.0 C1056.3,507.8 1053.3,518.5 1048.0,529.5 C1042.4,541.1 1035.9,549.3 1016.2,570.3 C1003.0,584.2 993.0,597.2 993.0,600.2 C993.0,602.5 1000.8,615.8 1008.0,625.9 C1011.9,631.3 1016.5,638.8 1018.3,642.6 L1021.5,649.5 L1021.5,670.0 C1021.6,693.5 1021.9,694.7 1029.7,703.1 C1032.3,706.0 1039.0,711.9 1044.5,716.4 C1058.7,727.8 1064.3,734.0 1068.9,743.4 C1074.0,753.5 1075.8,760.4 1077.1,774.5 C1077.6,780.5 1078.5,790.5 1079.1,796.5 C1079.7,802.5 1080.0,815.1 1079.8,824.5 L1079.5,841.5 L1075.6,834.6 C1067.6,820.5 1064.8,809.5 1063.1,785.5 C1061.5,762.4 1057.8,750.7 1049.0,740.7 C1046.7,738.1 1039.9,732.2 1034.0,727.5 C1021.1,717.4 1013.9,709.6 1010.2,701.8 C1008.7,698.7 1007.2,696.1 1006.9,696.1 C1006.6,696.0 1005.3,701.1 1004.1,707.2 C999.5,730.5 996.0,740.0 991.8,740.0 C990.1,740.0 989.9,739.6 990.5,737.2 C990.9,735.7 992.7,727.5 994.5,718.9 C998.3,701.2 1002.2,685.5 1005.1,676.1 C1006.3,672.2 1007.0,666.9 1007.0,662.0 C1007.0,655.0 1006.6,653.4 1003.6,647.5 C1001.7,643.9 997.9,637.9 995.2,634.1 C992.4,630.4 989.2,625.4 988.1,623.1 C986.9,620.9 985.6,619.0 985.1,619.0 C984.7,619.0 983.5,622.0 982.5,625.8 C974.9,654.3 965.8,671.1 947.5,691.0 C935.0,704.5 929.4,711.3 923.3,720.7 C916.2,731.6 912.5,740.0 905.5,760.8 C899.8,778.0 899.8,778.2 901.4,781.8 C902.3,783.9 904.6,790.7 906.6,797.0 C913.5,819.0 917.3,824.5 935.4,839.0 C958.2,857.3 962.0,865.5 964.5,901.5 C966.6,932.4 967.9,935.6 986.6,957.6 C1002.5,976.4 1007.5,983.9 1018.0,1005.6 C1023.4,1016.7 1028.3,1026.1 1028.9,1026.5 C1030.6,1027.5 1038.3,1018.4 1049.9,1001.6 C1060.4,986.4 1075.5,966.5 1078.4,964.1 C1079.8,962.9 1080.0,963.8 1080.0,973.9 L1080.0,985.1 L1067.3,1003.3 C1050.6,1027.2 1049.2,1029.1 1039.9,1038.8 C1032.7,1046.2 1031.7,1047.0 1028.3,1047.0 C1026.2,1047.0 1023.7,1046.5 1022.8,1046.0 Z M377.5,997.0 C383.9,984.6 390.6,972.0 392.3,969.0 C393.9,966.0 402.6,950.5 411.5,934.5 C420.4,918.5 430.6,899.9 434.3,893.0 C440.5,881.2 449.0,862.0 449.0,859.7 C449.0,856.3 413.8,802.3 336.7,687.2 C295.4,625.6 285.0,610.7 283.5,610.6 C283.0,610.5 278.4,617.9 273.5,627.0 C268.5,636.1 254.4,661.5 242.1,683.5 C229.8,705.5 215.4,731.1 210.2,740.5 L200.8,757.5 L203.5,762.5 C208.6,771.6 221.1,792.0 243.0,827.0 C264.4,861.1 269.8,869.7 288.0,898.0 C319.1,946.5 335.8,973.2 352.5,1001.3 C359.0,1012.2 364.6,1020.8 365.0,1020.3 C365.5,1019.9 371.1,1009.4 377.5,997.0 Z M983.7,925.3 C982.1,923.7 983.3,919.4 987.8,910.8 C994.4,898.2 1000.0,889.8 1016.0,868.0 C1031.9,846.5 1042.3,831.1 1047.0,822.2 C1051.9,813.0 1053.2,813.8 1050.5,824.3 C1047.6,835.6 1040.9,846.8 1018.6,877.5 C1011.0,888.0 1001.7,901.7 997.9,908.1 C988.9,923.4 985.7,927.3 983.7,925.3 Z M1008.4,915.6 C1006.3,910.0 1021.8,898.1 1047.8,885.4 C1068.3,875.4 1071.4,874.2 1072.4,875.9 C1074.0,878.4 1064.3,885.7 1049.5,893.2 C1031.4,902.5 1024.3,906.7 1016.8,912.6 C1010.8,917.3 1009.3,917.8 1008.4,915.6 Z M787.2,830.1 C784.6,827.4 780.0,821.1 777.0,816.0 C770.4,805.1 761.6,792.6 754.0,783.7 C745.9,774.2 741.7,766.6 741.6,761.8 C741.5,756.4 743.4,755.2 749.4,756.8 C757.0,758.8 766.9,764.0 779.5,772.6 C792.8,781.6 816.4,793.9 825.5,796.6 C831.3,798.2 841.6,798.2 849.2,796.4 C851.3,795.9 852.0,796.1 852.0,797.2 C852.0,803.0 834.9,807.0 823.5,803.9 C816.1,801.9 786.2,786.2 775.3,778.7 C766.1,772.4 753.3,765.0 751.5,765.0 C749.5,765.0 752.3,769.5 761.3,780.7 C771.9,794.0 776.7,801.2 781.6,811.5 C783.2,814.7 787.1,821.0 790.2,825.4 C793.3,829.8 795.7,833.8 795.4,834.2 C794.2,836.0 791.6,834.7 787.2,830.1 Z M935.0,808.9 C935.0,802.8 956.4,785.1 997.6,757.2 C1002.6,753.8 1010.3,747.7 1014.7,743.6 C1019.1,739.4 1023.0,736.3 1023.3,736.6 C1024.1,737.4 1022.4,742.7 1019.9,746.6 C1017.0,751.4 1006.1,760.6 992.7,769.6 C962.7,789.7 942.9,804.1 938.6,808.9 C936.2,811.6 935.0,811.6 935.0,808.9 Z M550.2,733.7 C549.6,733.0 548.3,729.0 547.4,724.9 C544.2,711.2 545.7,655.5 549.2,653.4 C552.3,651.5 554.4,661.5 556.1,685.5 C558.2,716.0 555.3,739.8 550.2,733.7 Z M622.2,718.4 C620.6,717.7 617.0,710.7 617.0,708.2 C617.0,705.4 619.5,703.7 622.5,704.4 C626.0,705.3 629.1,710.6 628.8,715.0 C628.5,717.9 628.1,718.5 626.0,718.7 C624.6,718.8 622.9,718.6 622.2,718.4 Z M490.0,702.5 C486.9,698.8 492.7,685.4 505.7,665.8 C515.6,651.0 520.0,646.2 520.0,650.5 C520.0,653.4 511.8,674.6 506.4,685.5 C498.4,701.8 493.6,706.8 490.0,702.5 Z M603.0,686.2 C599.4,682.3 591.9,668.2 586.6,655.1 C582.1,644.1 583.6,641.4 590.0,648.7 C595.7,655.2 606.1,670.3 609.4,676.8 C615.0,687.9 610.7,694.2 603.0,686.2 Z M446.7,673.3 C445.4,672.1 446.0,669.3 448.1,666.6 C449.7,664.5 450.9,664.0 453.4,664.2 C457.7,664.6 458.3,668.8 454.4,671.9 C451.8,674.0 448.0,674.7 446.7,673.3 Z M469.0,653.4 C466.8,650.8 469.0,646.8 475.0,642.8 C478.0,640.8 481.7,638.8 483.2,638.4 C485.6,637.9 486.0,638.1 486.0,640.0 C486.0,643.4 482.4,648.5 477.8,652.0 C473.1,655.4 470.9,655.7 469.0,653.4 Z M631.9,650.0 C628.3,648.1 621.1,640.9 619.1,637.2 C618.2,635.4 618.3,634.9 619.9,634.0 C622.3,632.8 624.7,633.6 631.8,638.0 C638.1,641.8 641.6,647.0 640.0,650.0 C638.7,652.5 636.6,652.5 631.9,650.0 Z M784.9,616.7 C790.2,615.4 793.0,613.1 793.0,610.0 C793.0,606.7 778.8,579.8 770.5,567.4 C765.7,560.3 760.2,551.7 758.3,548.2 C755.5,543.2 754.4,542.0 753.1,542.6 C752.2,543.1 745.2,543.6 737.5,543.8 C720.7,544.2 707.7,542.6 683.5,536.9 C658.7,531.2 653.0,529.5 637.5,523.3 C619.2,516.0 613.0,516.0 606.3,523.2 C601.8,527.9 597.0,543.7 597.0,553.5 C597.0,557.6 600.4,562.0 603.5,562.0 C606.9,562.0 613.0,556.3 615.3,551.0 C617.9,544.9 619.8,543.0 623.1,543.0 C627.0,543.0 629.4,546.7 628.5,551.2 C628.1,553.0 626.3,557.1 624.4,560.2 C621.0,565.9 621.0,565.9 622.0,572.7 C622.8,577.6 622.8,581.0 622.0,584.4 C621.4,587.1 621.1,589.5 621.4,589.7 C621.7,590.0 624.2,589.7 627.1,589.0 C638.7,586.2 645.1,587.8 694.0,606.0 C707.5,611.0 717.4,613.7 733.5,616.6 C744.8,618.7 748.7,618.9 763.0,618.5 C772.1,618.3 781.9,617.5 784.9,616.7 Z M915.4,608.2 C913.7,607.3 910.8,605.3 908.8,603.8 C904.5,600.4 902.3,600.3 896.0,603.5 C885.8,608.7 878.4,605.8 873.9,595.2 C870.4,586.8 869.9,586.4 865.3,587.8 C858.8,589.8 856.2,584.5 862.2,581.4 C869.8,577.4 877.6,580.5 880.6,588.8 C883.9,597.7 885.8,598.5 893.8,594.5 C901.4,590.7 906.4,591.1 913.8,596.0 C922.3,601.7 924.8,601.5 930.0,594.6 C935.0,588.0 938.1,586.5 945.4,587.4 L950.8,588.1 L953.7,583.8 C956.0,580.4 957.2,579.5 959.5,579.5 C966.0,579.5 964.7,589.1 957.4,594.6 C954.1,597.2 953.0,597.5 946.9,597.3 L940.1,597.1 L936.7,601.9 C931.2,609.5 922.5,612.1 915.4,608.2 Z M597.2,595.5 C606.4,590.9 609.0,587.2 609.0,579.0 L609.0,574.0 L603.2,574.0 C596.1,574.0 591.1,571.0 587.8,564.7 C584.4,558.5 584.6,543.5 588.2,533.2 C591.2,524.4 591.2,524.4 580.3,525.4 C560.3,527.0 557.4,537.2 565.0,579.1 C566.9,589.6 570.4,595.8 575.5,598.1 C579.3,599.8 591.5,598.4 597.2,595.5 Z M311.9,593.1 C309.9,590.9 307.2,586.6 306.1,583.4 C303.0,575.3 297.6,547.0 298.8,545.8 C300.6,544.0 302.8,548.9 306.4,562.8 C310.7,578.9 313.2,584.9 317.2,588.6 L320.2,591.5 L324.3,586.9 C326.6,584.4 331.6,576.7 335.4,569.9 C339.2,563.1 344.3,554.4 346.8,550.7 C351.8,543.1 357.5,538.1 359.1,539.7 C360.3,540.9 358.4,545.0 352.0,555.6 C349.8,559.1 346.4,565.2 344.4,569.2 C338.7,580.7 330.4,592.8 326.8,595.0 C325.0,596.1 321.7,597.0 319.6,597.0 C316.3,597.0 315.1,596.3 311.9,593.1 Z M814.5,580.2 C827.6,564.7 830.8,559.3 841.6,535.5 C846.2,525.2 852.0,513.7 854.5,509.9 C856.9,506.1 865.8,495.9 874.2,487.3 C882.6,478.6 891.5,468.9 893.8,465.8 C898.1,460.2 898.2,460.0 897.0,456.3 C893.5,445.6 889.9,440.6 874.6,425.5 C857.0,408.1 853.6,402.9 851.8,390.2 C850.8,383.6 850.9,380.2 852.4,369.2 C853.5,361.5 854.0,354.2 853.6,351.7 C852.6,345.4 848.5,339.4 839.4,331.5 C828.2,321.7 815.9,308.8 808.8,299.5 C796.0,282.7 790.5,265.4 786.5,228.6 C783.9,204.5 781.9,195.5 773.5,169.0 C771.1,161.6 768.4,150.9 767.4,145.2 C766.5,139.6 765.4,135.0 765.0,135.0 C764.6,135.0 762.9,140.3 761.1,146.8 C753.9,173.0 750.7,183.0 746.1,192.5 C740.3,204.7 731.2,219.3 721.6,232.0 C706.1,252.4 697.7,267.1 694.5,279.5 C691.9,289.6 692.5,297.0 697.6,316.6 C703.6,340.0 704.8,352.5 703.2,374.3 C700.8,406.7 701.8,415.7 709.5,428.5 C714.0,436.0 714.6,436.6 730.8,451.5 C755.7,474.5 759.6,481.8 764.6,515.0 C767.1,532.1 768.9,537.0 778.0,550.8 C787.9,566.0 796.3,580.2 799.6,587.5 C801.0,590.5 802.5,593.0 803.0,593.0 C803.5,593.0 808.6,587.3 814.5,580.2 Z M409.1,586.6 C406.4,585.1 404.1,581.4 404.0,578.6 C404.0,576.3 413.0,557.0 414.2,557.0 C415.8,557.0 415.0,565.8 412.6,572.7 C410.1,580.0 410.2,581.0 413.0,581.0 C416.8,581.0 422.3,572.2 427.4,558.2 C430.9,548.2 431.5,547.4 438.3,540.2 C447.2,531.0 448.5,531.8 441.8,542.6 C439.5,546.4 435.9,554.2 433.8,560.0 C425.6,582.5 417.5,591.2 409.1,586.6 Z M194.7,581.4 C182.4,578.7 175.3,575.2 168.2,568.6 C164.9,565.5 164.1,562.3 166.2,560.2 C168.3,558.1 171.9,558.9 178.7,563.0 C189.3,569.4 193.7,570.5 208.0,570.5 C221.5,570.4 226.3,569.1 233.8,563.4 C239.0,559.4 242.7,558.4 245.0,560.5 C247.9,563.1 247.5,565.5 243.3,570.1 C234.2,580.2 212.1,585.4 194.7,581.4 Z M397.6,564.2 C392.3,553.9 391.8,541.3 396.3,532.3 C401.0,523.1 403.1,524.6 400.6,535.4 C398.6,544.0 398.6,549.5 400.6,557.5 C402.2,563.9 402.0,567.0 400.1,567.0 C399.5,567.0 398.4,565.8 397.6,564.2 Z M311.1,558.2 C310.1,556.1 306.9,547.2 304.2,538.5 C298.9,521.2 294.9,511.1 289.4,501.1 C286.8,496.3 286.2,494.4 287.0,493.6 C289.3,491.4 300.5,506.7 305.0,518.0 C312.1,536.0 317.0,559.6 314.0,561.5 C313.5,561.8 312.2,560.3 311.1,558.2 Z M932.5,559.5 C931.1,558.2 930.0,556.1 930.0,554.8 C930.1,548.1 937.9,538.7 944.4,537.5 C952.4,536.0 963.5,545.2 962.8,552.9 C962.2,559.6 956.0,559.7 951.6,553.0 C950.1,550.6 948.2,549.0 947.0,549.0 C944.9,549.0 942.0,552.5 942.0,555.3 C942.0,557.2 937.8,562.0 936.0,562.0 C935.4,562.0 933.8,560.9 932.5,559.5 Z M872.9,555.1 C870.6,552.8 870.0,551.3 870.0,548.0 C870.0,537.2 879.8,531.3 887.0,537.8 C891.2,541.5 892.0,547.1 889.2,552.7 C886.8,557.3 885.5,558.0 879.8,558.0 C876.8,558.0 875.2,557.3 872.9,555.1 Z M164.8,531.4 C161.3,529.6 159.0,525.2 159.0,520.4 C159.0,517.5 159.8,516.0 162.9,512.9 C166.1,509.6 167.4,509.0 170.8,509.0 C175.7,509.0 181.4,513.4 182.3,517.8 C183.2,522.2 181.4,528.3 178.5,530.8 C175.4,533.4 169.0,533.7 164.8,531.4 Z M236.7,530.6 C231.5,525.8 231.7,516.3 237.1,511.8 C242.2,507.5 247.1,507.9 252.2,513.0 C256.1,516.9 256.2,517.2 255.8,522.2 C255.4,526.4 254.7,527.9 252.1,530.2 C247.9,534.0 240.6,534.2 236.7,530.6 Z M1012.8,515.1 C1004.2,509.7 1000.8,500.6 1000.9,484.1 C1001.0,463.6 997.1,454.4 980.5,437.0 C967.4,423.3 961.6,415.3 954.0,400.5 C948.4,389.6 946.2,382.4 947.9,380.7 C948.9,379.7 952.6,384.9 959.5,397.0 C967.1,410.6 972.6,417.7 985.6,431.1 C996.4,442.3 998.3,444.7 1002.3,453.1 C1007.8,464.5 1009.1,470.5 1008.8,483.5 C1008.5,496.0 1009.7,500.2 1016.1,508.6 C1023.2,517.8 1021.7,520.7 1012.8,515.1 Z M609.0,480.5 C609.0,478.0 614.2,470.1 618.3,466.4 C622.3,462.8 623.9,462.0 626.4,462.2 C630.9,462.6 631.2,466.6 627.1,471.2 C622.8,476.1 609.0,483.2 609.0,480.5 Z M784.0,479.1 C784.0,476.4 794.7,469.4 812.9,460.4 C824.0,455.0 833.0,450.2 833.0,449.9 C833.0,449.6 827.0,449.0 819.8,448.7 C812.5,448.3 800.6,447.5 793.5,446.9 C778.1,445.6 763.1,446.2 753.2,448.6 C741.2,451.5 742.6,447.8 755.0,443.9 C766.3,440.4 779.0,439.6 803.2,441.0 C815.5,441.8 830.4,442.0 837.7,441.7 C851.5,441.0 853.0,441.4 853.0,445.6 C853.0,448.6 850.2,450.6 838.9,456.0 C833.7,458.4 822.8,463.9 814.5,468.1 C794.2,478.4 784.0,482.0 784.0,479.1 Z M471.7,475.6 C463.6,472.7 454.6,464.6 455.2,460.6 C455.8,456.2 461.5,457.3 468.5,463.1 C474.3,467.9 477.0,471.6 477.0,474.8 C477.0,477.3 476.8,477.4 471.7,475.6 Z M304.1,470.8 C303.0,468.4 300.4,461.1 298.4,454.5 C294.3,441.1 293.0,429.6 295.0,423.6 C296.1,420.1 298.0,418.7 298.0,421.2 C298.2,427.3 300.6,439.2 303.6,448.4 C307.4,460.1 309.2,473.2 307.1,474.4 C306.5,474.8 305.3,473.4 304.1,470.8 Z M514.6,469.8 C503.0,456.3 487.0,427.9 487.0,420.9 C487.0,413.3 492.5,415.1 498.8,424.8 C502.6,430.7 515.5,458.8 518.4,467.4 C520.7,474.2 519.1,475.2 514.6,469.8 Z M579.6,466.2 C582.1,454.7 586.6,443.2 597.0,421.5 C602.3,410.4 607.4,403.0 609.7,403.0 C610.2,403.0 611.5,403.6 612.5,404.4 C614.3,405.7 614.4,406.2 613.2,410.7 C611.0,419.5 589.2,460.9 583.8,466.8 C580.8,469.9 578.8,469.7 579.6,466.2 Z M547.0,464.8 C544.5,458.8 540.6,408.5 541.3,390.9 C541.8,378.2 542.8,374.0 545.6,374.0 C550.2,374.0 552.4,392.2 552.2,429.0 C552.2,457.7 551.5,466.0 549.3,466.7 C548.6,467.0 547.6,466.1 547.0,464.8 Z M643.7,448.3 C641.1,445.8 645.7,439.0 650.1,439.0 C652.7,439.0 654.4,442.5 653.0,445.0 C651.3,448.2 645.6,450.3 643.7,448.3 Z M911.3,432.4 C915.9,419.7 918.8,407.7 921.4,389.7 C922.8,380.5 924.8,371.0 925.8,368.7 C926.8,366.3 930.7,360.7 934.4,356.2 C942.2,346.6 943.3,344.4 945.4,333.0 C947.6,321.8 949.7,317.7 958.3,308.3 C975.8,289.3 978.4,284.4 984.1,259.1 C985.8,251.6 988.1,243.2 989.1,240.5 C991.0,235.7 991.0,235.4 989.3,234.2 C985.2,231.2 958.1,213.4 953.6,210.8 C946.1,206.4 935.1,203.0 928.0,203.0 C918.8,203.0 911.2,205.3 893.8,213.6 C872.2,223.8 869.4,224.4 848.8,223.7 C835.6,223.2 830.8,223.4 826.3,224.6 C819.6,226.3 804.1,234.5 803.3,236.7 C802.5,238.7 804.5,252.1 807.2,263.0 C811.8,282.1 820.8,295.4 840.0,312.0 C856.0,325.8 861.0,331.2 864.7,338.4 C869.2,347.3 869.7,353.1 867.5,369.5 C864.5,392.2 865.9,395.7 886.4,415.7 C896.7,425.8 901.4,431.1 903.5,435.2 C905.2,438.4 906.9,440.9 907.4,440.7 C908.0,440.5 909.7,436.8 911.3,432.4 Z M726.0,429.1 C726.0,427.8 728.2,426.0 733.2,423.2 C748.1,415.0 783.1,390.9 798.0,378.5 C810.1,368.4 814.9,365.1 827.6,358.1 C838.2,352.3 842.0,350.9 842.0,352.9 C842.0,353.9 835.4,359.4 825.7,366.4 C821.7,369.3 812.9,376.3 806.0,382.1 C784.0,400.5 751.0,423.1 738.8,428.0 C729.8,431.5 726.0,431.9 726.0,429.1 Z M1019.5,425.1 C1014.2,423.2 1002.3,417.4 1000.3,415.8 C997.0,413.1 1001.0,413.6 1011.8,417.0 C1018.3,419.1 1026.2,421.1 1029.3,421.5 C1034.5,422.2 1035.0,422.1 1035.0,420.3 C1035.0,416.1 1024.0,402.9 1004.5,383.5 C985.6,364.7 976.8,354.1 975.4,348.4 C973.6,341.1 985.1,336.0 1003.5,336.0 C1012.3,336.0 1021.7,338.3 1030.0,342.5 C1044.9,350.1 1062.1,351.1 1073.8,345.3 L1080.0,342.2 L1080.0,346.1 C1080.0,350.0 1079.8,350.2 1074.2,352.8 C1069.7,354.8 1066.5,355.5 1059.4,355.8 C1047.8,356.3 1042.4,355.1 1028.5,349.0 C1016.1,343.5 1006.0,341.4 997.1,342.5 C989.8,343.4 983.1,345.0 982.4,346.1 C981.3,348.0 989.1,357.2 1007.6,375.8 C1027.2,395.4 1034.3,403.8 1038.6,412.2 C1041.6,418.1 1041.8,424.5 1039.1,426.0 C1036.1,427.6 1025.1,427.1 1019.5,425.1 Z M473.1,395.5 C468.5,390.3 469.1,383.0 474.0,383.0 C478.2,383.0 483.7,394.3 481.0,397.5 C479.0,399.9 476.4,399.3 473.1,395.5 Z M738.0,392.7 C738.0,392.0 755.3,382.3 766.6,376.7 C784.3,367.9 819.2,345.6 820.4,342.3 C821.8,338.8 815.3,332.8 805.7,328.6 C802.6,327.2 795.4,324.9 789.8,323.5 C776.8,320.2 764.4,315.3 751.0,308.3 C735.1,299.8 728.0,295.1 728.0,292.9 C728.0,291.9 728.2,291.0 728.5,291.0 C728.8,291.0 733.0,293.0 737.8,295.4 C754.7,303.8 777.6,312.9 789.5,316.0 C809.6,321.1 823.6,329.5 826.1,338.0 C828.6,346.2 824.2,350.8 800.4,365.0 C780.6,376.8 773.6,380.3 757.0,386.9 C744.4,391.9 738.0,393.8 738.0,392.7 Z M198.5,366.0 C206.3,351.5 256.2,251.2 262.9,236.7 C266.7,228.5 268.9,222.5 268.4,222.0 C266.2,219.8 225.3,216.0 203.0,216.0 C178.7,216.0 150.9,218.4 127.5,222.6 C119.8,224.0 112.0,225.4 110.2,225.7 C108.5,226.0 107.0,226.8 107.0,227.4 C107.0,231.1 140.9,290.5 173.7,344.5 C179.7,354.4 186.4,365.6 188.4,369.3 C190.5,373.1 192.6,375.8 193.1,375.3 C193.6,374.8 196.0,370.6 198.5,366.0 Z M993.0,217.6 C993.0,217.4 992.3,215.3 991.5,213.0 C989.8,208.2 987.5,190.7 986.5,175.5 C985.2,155.6 982.7,147.5 974.8,136.7 C970.7,131.1 970.5,130.6 970.5,123.7 C970.5,117.8 970.9,115.9 972.8,113.2 C975.8,109.0 977.4,109.0 976.4,113.2 C974.6,121.6 976.1,127.5 982.2,135.2 C988.6,143.4 992.2,155.2 993.5,173.0 C994.5,186.0 996.0,200.1 997.0,204.0 C997.4,205.9 998.1,208.7 998.4,210.2 C998.8,211.8 999.4,213.0 999.9,213.0 C1001.1,213.0 1009.7,193.1 1014.0,180.0 C1018.0,168.0 1019.2,161.0 1021.0,139.5 C1022.4,123.3 1020.8,106.7 1016.8,95.5 C1015.1,90.9 1009.1,85.1 1005.2,84.4 C1003.3,84.0 994.8,84.3 986.4,85.0 C962.5,87.1 953.6,85.0 930.5,72.1 C915.6,63.8 910.2,61.9 900.0,61.3 C886.4,60.5 877.9,63.3 860.7,74.4 C842.3,86.3 834.3,89.0 811.0,91.5 C791.6,93.6 781.4,99.7 779.9,110.2 C777.7,125.6 779.4,137.4 787.6,163.9 C792.9,181.2 796.8,195.9 799.0,207.2 C799.6,210.4 800.5,213.0 801.0,213.0 C803.4,213.0 814.1,192.9 821.2,175.0 C826.7,161.1 829.7,155.7 831.2,156.6 C832.5,157.4 831.5,165.2 828.9,175.0 C826.6,183.5 819.1,199.8 813.6,208.4 C811.6,211.6 810.0,214.4 810.2,214.6 C810.4,214.8 813.5,213.7 817.0,212.2 C823.4,209.6 823.9,209.5 844.5,209.5 C868.6,209.5 867.3,209.8 887.5,199.9 C906.0,190.9 914.4,188.6 928.0,188.6 C944.9,188.6 952.4,191.6 976.6,207.9 C990.0,217.0 993.0,218.8 993.0,217.6 Z M124.3,207.5 C148.0,203.5 165.9,201.9 194.5,201.3 C223.8,200.7 244.0,201.8 263.6,205.0 C270.0,206.1 275.7,206.7 276.2,206.4 C279.4,204.4 326.9,91.9 327.3,85.1 C327.5,82.0 327.6,82.1 296.1,78.5 C261.9,74.7 251.3,74.0 216.5,73.3 C170.6,72.4 129.3,74.9 83.5,81.1 C65.2,83.6 44.0,87.7 42.3,89.1 C40.3,90.8 49.0,113.4 63.2,143.0 C71.5,160.5 96.7,208.8 98.7,211.2 C100.0,212.7 100.6,212.7 105.0,211.4 C107.7,210.6 116.4,208.9 124.3,207.5 Z M942.8,173.8 C939.1,169.8 934.8,161.5 932.2,153.0 C928.3,140.1 923.7,104.9 925.8,103.6 C927.8,102.4 929.7,108.2 933.5,126.5 C937.6,146.7 940.4,155.9 945.5,166.0 C947.4,169.8 949.0,173.9 949.0,175.0 C949.0,178.0 946.2,177.5 942.8,173.8 Z M852.5,148.8 C851.5,146.4 860.4,111.3 864.5,101.0 C869.3,89.1 876.0,76.8 877.3,77.3 C879.1,77.9 878.3,82.3 873.9,95.5 C871.7,102.1 868.1,113.5 865.9,120.9 C861.9,134.3 857.7,144.6 854.7,148.5 C853.3,150.3 853.1,150.4 852.5,148.8 Z" fill="#000000" fill-rule="evenodd"/></g><path d="M104,24 L738,24 A34,34 0 0 1 772,58 L772,213 A34,34 0 0 1 738,247 L275,247 L316,317 L200,247 L104,247 A34,34 0 0 1 70,213 L70,58 A34,34 0 0 1 104,24 Z" fill="#fff" stroke="#000" stroke-width="5" stroke-linejoin="round"/><g id="labels-en" class="labellayer" style="display:inline"><text font-family="Baloo 2, Comic Sans MS, system-ui, sans-serif" font-weight="700" text-anchor="middle" font-size="46" fill="#000"><tspan x="421" y="125">High five... oops, now</tspan><tspan x="421" y="180">YOU&#x27;RE crumpled too!</tspan></text></g><g id="labels-de" class="labellayer" style="display:none"><text font-family="Baloo 2, Comic Sans MS, system-ui, sans-serif" font-weight="700" text-anchor="middle" font-size="46" fill="#000"><tspan x="421" y="98">Toppen... und schon</tspan><tspan x="421" y="153">bist du auch</tspan><tspan x="421" y="207">verknautscht!</tspan></text></g></svg>