<svg xmlns="http://www.w3.org/2000/svg" viewBox="0 0 1080 1527" width="1080" height="1527" role="img" aria-label="Coloring page of schwann-cell"><rect x="0" y="0" width="1080" height="1527" fill="#ffffff"/><g transform="translate(0,190)"><path class="artwork" d="M991.5,1075.8 C989.5,1073.4 985.8,1068.0 983.3,1063.8 C979.7,1057.7 977.8,1055.5 974.1,1053.4 C960.1,1045.3 945.4,1031.4 939.0,1020.2 C937.1,1016.8 934.7,1012.7 933.8,1011.1 C932.9,1009.4 929.6,1006.8 926.2,1005.0 C922.9,1003.2 917.3,999.5 913.9,996.8 C907.8,991.8 907.6,991.8 905.1,993.4 C888.3,1004.2 865.8,1010.4 844.0,1010.4 C813.2,1010.4 791.1,1001.6 738.5,968.7 C694.5,941.1 676.1,926.0 664.0,907.4 C657.4,897.4 632.3,846.7 630.5,839.9 C625.9,822.6 631.7,808.2 645.7,801.8 C651.3,799.3 652.0,798.7 652.0,796.2 C652.0,788.4 658.6,769.7 665.8,757.0 C667.8,753.4 669.6,750.2 669.8,749.9 C670.0,749.5 668.4,748.2 666.3,746.9 C653.6,739.3 641.4,726.2 634.9,713.4 C631.6,706.6 630.4,705.4 623.8,700.9 C619.8,698.1 613.3,692.7 609.4,688.8 L602.2,681.8 L597.9,690.0 C585.6,713.0 565.3,729.6 542.7,735.0 C532.7,737.4 515.6,737.7 504.6,735.6 C477.3,730.3 451.6,716.3 428.8,694.2 C399.1,665.3 375.9,625.6 367.3,589.0 C363.7,573.3 363.1,551.1 365.9,537.2 C368.6,524.1 370.9,518.2 377.0,508.0 C383.7,496.8 388.9,490.2 399.2,479.4 C404.1,474.4 408.0,469.9 407.9,469.4 C407.9,468.9 405.6,466.8 402.9,464.7 C396.9,460.2 387.0,447.8 382.6,439.5 C379.9,434.4 378.2,432.7 371.3,428.0 C366.8,425.0 361.5,421.0 359.5,419.1 L356.0,415.6 L346.8,417.6 C333.2,420.4 315.9,420.2 306.1,417.2 C287.1,411.2 267.6,398.7 235.0,371.6 C206.2,347.6 168.3,312.1 151.7,293.5 C136.8,276.7 130.5,260.6 131.1,240.5 C131.4,230.5 131.4,230.5 128.1,226.0 C123.4,219.6 120.2,212.4 118.3,203.5 C116.8,196.9 116.8,194.7 117.8,187.4 C118.5,182.8 119.3,178.4 119.6,177.7 C119.9,176.8 117.8,174.9 113.9,172.5 C102.8,165.7 94.6,157.7 87.6,147.1 C81.5,137.9 80.5,136.9 73.3,132.7 C59.6,124.8 48.8,114.3 41.6,101.8 C39.3,97.8 37.5,96.3 31.0,93.0 C21.1,87.8 10.3,78.7 4.5,70.6 L0.0,64.2 L0.0,55.5 C0.0,47.6 0.2,46.9 1.8,47.5 C8.0,50.1 8.6,48.9 3.5,44.0 C1.0,41.6 0.0,39.7 0.0,37.6 C0.0,34.7 0.3,34.9 7.0,42.2 C10.9,46.4 15.7,50.9 17.6,52.1 C20.8,54.0 31.9,57.4 32.7,56.6 C32.8,56.5 29.9,53.3 26.2,49.4 C22.4,45.6 17.4,39.2 15.1,35.3 C11.3,28.8 10.4,28.0 7.2,27.4 C0.1,26.2 0.0,26.2 0.0,21.5 L-0.0,17.1 L3.4,18.5 C7.1,20.1 20.0,21.7 20.0,20.6 C20.0,20.2 15.6,15.6 10.2,10.2 C1.6,1.6 0.8,0.5 2.9,0.2 C4.7,-0.1 7.2,1.8 14.4,8.7 C26.7,20.7 28.2,21.6 36.2,22.2 C39.9,22.5 43.1,22.5 43.4,22.3 C44.3,21.4 38.0,12.9 31.6,6.2 C25.7,0.1 25.7,0.0 28.6,0.0 C30.9,0.0 32.6,1.3 36.9,6.3 C39.9,9.7 43.8,14.8 45.6,17.6 L48.9,22.7 L56.1,23.4 C60.0,23.8 63.7,23.7 64.1,23.3 C65.3,22.1 58.4,12.1 51.7,5.2 L46.6,0.0 L49.7,0.0 C52.4,0.0 53.7,1.1 59.0,7.6 C62.3,11.8 66.1,17.3 67.4,19.9 C69.8,24.5 69.9,24.6 76.6,25.7 C80.4,26.4 83.6,26.7 83.9,26.5 C85.6,24.7 71.7,8.2 63.5,2.3 L60.5,0.1 L72.5,0.1 L84.5,0.0 L90.0,3.7 C100.9,10.9 110.6,20.9 116.2,30.7 C118.8,35.3 120.2,36.5 127.0,40.1 C140.3,47.0 152.7,58.7 160.4,71.4 C163.3,76.2 165.1,77.9 170.2,80.8 C177.6,84.8 183.9,89.7 189.5,95.7 C193.5,99.9 193.6,100.0 197.5,98.8 C203.0,97.3 217.7,97.3 222.3,98.9 C225.6,100.0 226.3,100.0 228.4,98.3 C266.5,68.9 287.0,58.1 314.3,53.5 C344.4,48.5 385.6,54.9 426.4,71.2 C444.1,78.3 462.4,87.2 472.0,93.6 C497.0,110.0 513.8,136.3 521.2,170.3 C524.2,184.2 524.5,219.3 521.7,234.0 C516.6,261.0 504.9,284.1 488.4,300.1 C479.7,308.5 473.3,313.0 462.0,318.7 C456.9,321.3 454.4,323.1 454.2,324.5 C453.3,331.0 450.4,341.4 447.7,347.3 L444.7,354.0 L449.6,363.6 C454.5,373.1 454.5,373.2 464.2,379.6 C470.5,383.8 476.6,389.0 481.9,394.7 L489.9,403.3 L495.2,400.0 C524.7,381.2 551.4,369.0 572.8,364.4 C583.0,362.2 602.8,362.2 613.5,364.5 C648.5,371.8 682.9,393.6 704.5,422.2 C712.6,432.8 718.9,448.6 720.9,463.3 C721.8,469.8 722.1,470.3 728.8,477.5 C741.2,490.8 747.0,506.3 747.0,526.3 C747.0,546.7 740.1,568.2 727.7,586.5 C722.4,594.3 708.6,608.6 701.0,614.1 C697.7,616.5 695.0,618.8 695.0,619.2 C695.0,619.6 696.6,622.1 698.7,624.7 C700.7,627.4 703.5,632.2 705.1,635.5 C707.4,640.7 708.7,642.2 715.1,646.5 C724.3,652.8 735.4,663.6 740.9,671.8 C743.2,675.2 745.3,678.0 745.6,678.0 C745.8,678.0 749.5,676.0 753.8,673.6 C784.8,656.1 813.8,651.2 842.3,658.4 C858.0,662.4 891.3,675.6 912.5,686.3 C953.1,706.6 975.1,724.3 987.6,746.5 C1003.2,774.5 1010.4,814.9 1005.5,847.5 C1002.4,868.0 996.0,887.7 988.0,901.4 C985.8,905.1 984.0,908.6 984.0,909.1 C984.0,909.7 986.3,913.0 989.0,916.7 C991.8,920.3 995.4,925.9 997.1,929.2 C999.0,933.0 1001.2,935.8 1003.1,936.8 C1020.5,946.4 1037.0,961.6 1043.3,973.8 C1046.7,980.2 1047.7,981.3 1052.3,983.7 C1060.8,987.9 1067.2,992.3 1073.8,998.4 L1080.0,1004.2 L1080.0,1012.9 L1079.9,1021.5 L1076.7,1017.5 C1069.7,1008.7 1064.2,1003.6 1056.4,998.4 C1047.1,992.2 1044.5,991.5 1048.8,996.4 C1053.4,1001.6 1057.6,1008.1 1061.4,1015.7 C1063.4,1019.6 1065.5,1023.1 1066.2,1023.7 C1066.9,1024.2 1070.3,1025.3 1073.8,1026.0 L1080.0,1027.3 L1080.0,1031.6 C1080.0,1035.0 1079.6,1036.0 1078.3,1036.0 C1076.8,1036.0 1076.8,1036.1 1078.3,1037.8 C1079.3,1038.8 1080.0,1040.7 1080.0,1042.0 C1080.0,1044.0 1079.3,1043.6 1073.5,1038.6 C1067.2,1033.0 1063.1,1031.0 1058.1,1031.0 C1055.6,1031.0 1055.7,1031.1 1059.2,1034.8 C1068.0,1043.9 1080.0,1065.8 1080.0,1072.8 C1080.0,1076.4 1079.8,1076.8 1077.8,1076.2 C1076.0,1075.8 1075.8,1076.0 1076.2,1077.8 C1077.1,1081.2 1072.6,1080.7 1070.1,1077.2 C1068.3,1074.7 1067.1,1074.2 1060.3,1073.2 C1056.1,1072.6 1052.2,1072.4 1051.8,1072.6 C1051.3,1072.9 1052.2,1074.7 1053.6,1076.6 L1056.2,1080.0 L1053.8,1080.0 C1052.0,1080.0 1050.7,1078.8 1048.6,1075.6 C1046.0,1071.5 1045.5,1071.2 1040.2,1070.5 C1037.1,1070.2 1033.5,1069.6 1032.2,1069.3 C1029.2,1068.6 1029.3,1070.6 1032.5,1075.2 C1035.6,1079.7 1035.6,1080.2 1032.8,1079.8 C1031.4,1079.6 1029.5,1077.6 1027.4,1074.0 C1024.6,1069.1 1023.7,1068.4 1019.4,1067.3 C1012.0,1065.4 1011.5,1066.1 1015.5,1072.7 C1019.6,1079.4 1019.7,1080.0 1017.0,1080.0 C1015.5,1080.0 1014.0,1078.0 1011.1,1072.2 C1007.2,1064.5 1007.1,1064.4 1001.5,1062.6 C998.4,1061.6 995.6,1061.1 995.2,1061.4 C994.2,1062.5 997.4,1067.1 1003.7,1073.6 L1010.0,1080.0 L1002.6,1080.0 L995.2,1080.0 L991.5,1075.8 Z M1074.0,1066.0 C1074.0,1064.3 1069.0,1055.0 1064.4,1048.0 C1062.0,1044.4 1057.2,1038.7 1053.7,1035.2 C1047.5,1029.0 1047.1,1028.8 1041.1,1028.3 C1037.8,1028.0 1035.0,1028.0 1035.0,1028.3 C1035.0,1028.7 1037.2,1032.0 1039.9,1035.7 C1042.6,1039.5 1047.9,1047.5 1051.7,1053.5 L1058.6,1064.5 L1064.1,1065.7 C1071.1,1067.2 1074.0,1067.2 1074.0,1066.0 Z M1052.2,1063.4 C1053.5,1062.2 1038.4,1038.7 1031.3,1030.9 C1028.5,1027.8 1027.2,1027.2 1022.4,1026.6 C1016.0,1025.9 1014.2,1026.5 1016.3,1028.8 C1017.1,1029.8 1020.3,1034.6 1023.4,1039.7 C1029.8,1050.1 1041.2,1062.6 1045.0,1063.3 C1048.9,1064.0 1051.6,1064.1 1052.2,1063.4 Z M1035.0,1061.4 C1035.0,1061.1 1032.5,1058.1 1029.5,1054.8 C1026.5,1051.5 1021.8,1044.9 1019.0,1040.1 C1010.9,1026.4 1010.6,1026.1 1002.0,1025.1 C997.9,1024.5 994.3,1024.3 994.1,1024.5 C993.3,1025.3 1003.5,1041.2 1008.2,1046.4 C1015.0,1054.1 1023.0,1059.9 1028.1,1060.9 C1033.8,1062.0 1035.0,1062.1 1035.0,1061.4 Z M1009.7,1053.9 C1006.7,1051.4 997.5,1038.5 989.7,1025.9 C988.5,1023.8 987.0,1023.1 982.0,1022.3 C978.7,1021.8 975.7,1021.6 975.5,1022.0 C974.9,1023.0 980.9,1034.0 984.8,1039.2 C992.2,1048.9 1003.8,1056.8 1011.0,1057.0 C1013.3,1057.0 1013.3,1056.8 1009.7,1053.9 Z M981.1,1040.7 C978.8,1037.8 975.5,1031.9 973.5,1027.7 C970.3,1020.8 969.6,1020.0 966.2,1019.0 C960.0,1017.3 959.8,1017.6 963.2,1024.6 C966.4,1031.5 972.3,1038.8 977.6,1042.6 C984.5,1047.5 985.7,1046.9 981.1,1040.7 Z M958.6,1023.4 C957.0,1019.5 955.2,1016.9 953.3,1015.8 C949.9,1013.7 948.0,1013.5 948.0,1015.4 C948.0,1016.8 960.0,1030.4 960.6,1029.7 C960.8,1029.5 959.9,1026.7 958.6,1023.4 Z M1060.0,1021.9 C1060.0,1021.3 1058.6,1018.2 1056.9,1015.1 C1050.4,1003.5 1040.2,991.2 1034.6,988.3 C1030.8,986.3 1021.9,983.7 1021.3,984.4 C1021.0,984.7 1023.5,988.0 1027.0,991.6 C1033.7,998.9 1038.0,1005.0 1042.8,1014.7 C1045.9,1020.7 1046.1,1020.9 1050.7,1021.5 C1053.4,1021.9 1056.0,1022.3 1056.5,1022.5 C1058.6,1023.2 1060.0,1023.0 1060.0,1021.9 Z M1040.0,1018.7 C1040.0,1016.3 1031.1,1002.4 1025.3,995.8 C1015.1,984.2 1011.1,981.7 1000.0,980.1 C995.9,979.6 992.4,979.3 992.2,979.5 C992.0,979.7 995.8,983.8 1000.7,988.7 C1005.7,993.5 1013.0,1002.0 1017.1,1007.5 C1021.2,1013.0 1025.6,1018.0 1027.0,1018.7 C1030.4,1020.4 1040.0,1020.4 1040.0,1018.7 Z M1019.0,1017.9 C1019.0,1016.2 1004.2,997.3 997.9,991.2 C989.8,983.1 982.9,979.3 975.2,978.4 C970.7,977.9 969.0,978.1 969.0,978.9 C969.0,981.0 983.2,1000.3 988.9,1006.1 C996.7,1013.9 1002.3,1017.4 1008.4,1018.1 C1016.7,1019.1 1019.0,1019.1 1019.0,1017.9 Z M992.0,1015.1 C992.0,1014.6 990.7,1013.1 989.1,1011.8 C985.1,1008.7 976.0,997.4 968.9,986.8 L963.0,978.2 L957.3,977.5 C954.1,977.2 950.5,976.7 949.3,976.4 C945.8,975.7 945.9,977.3 949.7,983.6 C957.8,996.7 968.7,1008.2 977.2,1012.6 C982.0,1015.1 992.0,1016.7 992.0,1015.1 Z M959.4,1002.7 C955.6,998.7 950.9,992.6 949.0,989.2 C941.8,976.2 941.3,975.8 932.5,973.9 C928.1,972.9 924.2,972.4 923.8,972.8 C922.6,974.0 932.8,989.0 939.0,995.0 C947.1,1003.0 951.0,1005.8 957.1,1008.0 C966.6,1011.4 966.9,1010.7 959.4,1002.7 Z M864.6,998.1 C873.6,996.2 894.4,988.1 898.2,985.0 C900.0,983.5 900.0,983.4 897.8,980.8 L895.5,978.0 L889.5,981.0 C878.5,986.5 869.2,988.3 853.0,988.4 C839.9,988.4 837.7,988.1 830.5,985.7 C819.7,982.1 811.0,976.8 803.1,969.0 C790.4,956.5 782.6,942.2 767.0,903.0 C758.1,880.6 750.4,869.0 736.3,856.8 C705.6,830.1 665.6,808.0 652.6,810.4 C648.2,811.2 643.2,815.4 641.4,819.7 C639.4,824.3 639.7,832.7 641.9,839.3 C645.9,850.7 670.7,898.2 677.5,907.2 C687.5,920.5 702.8,932.9 735.0,953.7 C780.2,982.9 807.9,996.3 829.5,999.3 C838.1,1000.5 856.0,999.9 864.6,998.1 Z M930.3,991.2 C927.7,987.9 923.7,981.9 921.5,977.8 L917.5,970.5 L909.1,967.7 C904.6,966.1 900.6,965.1 900.2,965.4 C899.5,966.2 903.4,971.6 910.4,979.5 C915.5,985.3 933.6,998.8 934.7,997.6 C934.9,997.4 933.0,994.5 930.3,991.2 Z M863.0,980.0 C871.4,978.7 885.5,974.2 888.2,972.1 L890.2,970.4 L888.0,966.1 C886.2,962.5 885.5,961.9 883.7,962.5 C861.3,969.2 838.8,960.3 829.0,941.0 C821.2,925.6 821.0,901.9 828.5,880.1 C832.7,867.6 841.9,853.4 849.4,847.7 C855.6,842.9 855.6,844.4 849.5,852.5 C843.3,860.8 835.5,876.1 832.8,885.6 C830.8,892.4 830.5,895.8 830.5,910.0 C830.5,928.9 831.5,933.2 838.0,942.3 C842.1,947.9 850.5,954.3 855.5,955.6 C858.0,956.2 858.2,956.1 857.5,954.4 C856.1,951.1 855.7,936.7 856.9,930.5 C858.6,920.8 865.4,908.6 873.5,900.4 C882.2,891.6 889.2,886.8 899.3,883.0 C923.4,873.7 942.9,875.5 955.2,888.3 C958.0,891.2 960.5,893.0 961.3,892.7 C963.5,891.9 971.6,874.5 974.4,864.8 C979.0,848.8 980.0,830.8 977.0,817.6 C976.6,815.6 976.6,813.8 977.0,813.5 C978.5,812.6 980.0,815.8 982.1,824.6 C983.9,832.2 984.1,835.5 983.7,847.0 C983.2,862.8 980.7,872.6 973.3,887.9 L968.8,897.4 L971.0,899.2 C972.2,900.2 973.8,901.0 974.6,901.0 C978.8,901.0 990.4,871.0 994.1,850.2 C997.0,834.2 996.4,810.0 992.7,793.0 C981.2,740.7 957.8,717.3 919.0,719.3 C901.1,720.3 881.3,726.8 861.1,738.6 C847.3,746.5 845.2,747.3 850.5,742.6 C860.4,733.6 881.8,722.2 897.5,717.4 C905.7,714.9 908.0,714.7 922.7,714.6 C931.7,714.5 939.0,714.2 939.0,713.8 C939.0,712.8 913.2,698.4 900.8,692.6 C888.1,686.6 866.8,678.0 851.1,672.6 C815.7,660.3 786.7,665.1 748.6,689.4 C733.3,699.2 722.2,708.0 709.7,719.9 C698.8,730.3 685.5,746.0 679.5,755.4 C669.9,770.4 660.0,796.7 662.5,800.6 C663.1,801.4 666.4,803.1 670.0,804.4 C694.9,813.2 736.3,841.7 753.8,862.3 C761.3,871.0 766.0,879.3 772.6,895.2 C775.7,902.8 778.6,909.0 778.9,909.0 C779.2,909.0 779.6,903.0 779.7,895.7 C780.1,861.7 794.2,825.8 818.9,795.6 C826.9,785.9 844.8,768.8 854.7,761.4 C867.7,751.6 887.7,742.0 903.5,737.8 C913.1,735.3 928.8,734.9 937.0,736.9 C948.8,739.8 961.0,747.6 967.1,756.1 C970.7,761.2 968.1,761.3 962.6,756.3 C951.2,745.8 938.6,741.5 922.0,742.3 C897.9,743.4 868.6,757.8 844.1,780.6 C800.0,821.7 779.3,880.5 791.6,929.5 C792.4,932.8 795.1,939.6 797.5,944.5 C809.8,970.0 836.0,984.2 863.0,980.0 Z M1031.9,974.7 C1026.7,967.1 1008.8,950.8 1007.3,952.3 C1007.0,952.6 1008.1,954.5 1009.6,956.6 C1011.2,958.6 1014.1,963.5 1016.1,967.4 C1019.6,974.5 1019.7,974.5 1026.1,976.6 C1029.6,977.8 1032.8,978.5 1033.3,978.3 C1033.7,978.1 1033.1,976.4 1031.9,974.7 Z M1013.5,973.0 C1014.6,971.3 1006.0,957.3 999.7,950.5 C995.0,945.3 992.7,943.7 987.0,941.4 C983.1,939.9 979.7,938.9 979.4,939.3 C979.1,939.6 981.6,943.1 984.9,947.0 C988.2,950.9 992.9,958.2 995.5,963.0 L1000.0,971.9 L1004.8,972.5 C1007.4,972.9 1010.0,973.3 1010.5,973.5 C1012.3,974.1 1012.9,974.0 1013.5,973.0 Z M994.0,969.9 C994.0,967.5 986.6,954.9 981.6,948.8 C974.0,939.6 967.8,935.3 959.1,933.4 C955.1,932.5 951.7,932.0 951.4,932.3 C951.1,932.6 953.7,935.7 957.2,939.3 C960.7,942.8 966.7,950.4 970.5,956.1 C980.5,971.3 980.2,971.0 987.7,971.0 C991.6,971.0 994.0,970.6 994.0,969.9 Z M973.4,969.2 C974.2,967.9 961.6,949.7 955.9,943.9 C952.9,940.9 948.1,936.5 945.2,934.2 C940.5,930.6 939.2,930.0 934.9,930.0 C932.2,930.0 930.0,930.4 930.0,930.9 C930.0,932.5 944.1,951.4 949.3,956.9 C958.8,966.7 963.6,970.0 968.5,970.0 C970.9,970.0 973.1,969.7 973.4,969.2 Z M954.0,968.4 C954.0,968.1 950.7,964.2 946.6,959.9 C942.5,955.5 935.7,946.9 931.5,940.6 L923.8,929.3 L916.7,928.7 C912.7,928.4 909.3,928.4 909.1,928.6 C908.3,929.3 918.2,944.7 924.0,951.6 C929.9,958.9 941.2,967.4 946.0,968.3 C949.9,969.0 954.0,969.1 954.0,968.4 Z M775.0,962.8 C772.6,959.9 766.6,949.0 761.5,938.5 C752.5,919.8 748.9,914.1 744.6,911.8 C743.5,911.2 738.7,910.3 734.0,910.0 C729.3,909.6 724.1,908.7 722.5,908.0 C720.9,907.3 717.4,906.6 714.8,906.5 C706.3,906.1 699.1,899.5 695.1,888.4 C694.0,885.1 692.8,883.4 691.5,883.2 C686.4,882.5 684.8,881.8 681.6,879.0 C679.8,877.4 677.3,873.8 676.1,871.0 C674.5,867.2 673.0,865.5 670.1,864.0 C667.9,862.9 665.2,860.7 664.0,859.1 C661.6,855.6 659.3,846.2 660.4,843.5 C661.3,840.9 662.5,842.5 664.3,849.0 C665.4,852.7 667.1,855.7 669.4,857.9 C673.1,861.5 672.9,861.5 674.5,856.5 C675.3,853.8 676.8,854.9 677.4,858.8 C678.9,867.5 683.7,875.3 689.1,878.0 C691.1,879.1 693.0,879.6 693.4,879.3 C693.7,878.9 694.0,876.3 694.0,873.3 C694.0,868.0 695.5,863.2 698.2,859.6 C700.6,856.5 702.0,858.4 700.4,862.7 C699.7,864.8 699.1,870.1 699.1,874.5 C699.0,883.1 700.7,888.4 705.6,894.7 C708.1,898.0 713.3,901.4 714.2,900.4 C714.5,900.1 714.1,898.0 713.3,895.7 C710.5,887.7 713.2,874.6 718.6,869.9 C721.0,867.9 726.4,866.0 730.0,866.0 C734.5,866.0 741.6,868.9 745.8,872.6 C749.6,875.8 754.8,884.7 756.5,890.8 C757.6,894.6 755.6,893.2 752.5,887.8 C743.4,872.3 728.6,866.8 721.6,876.3 C718.6,880.4 718.2,891.3 720.9,895.7 C724.0,900.6 727.0,902.1 735.2,902.6 C750.1,903.5 755.9,909.3 764.1,931.5 C769.1,945.0 774.7,957.1 779.0,963.7 C782.5,969.0 779.4,968.3 775.0,962.8 Z M930.0,964.4 C930.0,964.1 927.0,960.5 923.2,956.5 C919.5,952.5 914.3,945.5 911.6,940.9 C903.9,927.5 904.1,927.7 897.1,926.4 C893.5,925.8 890.7,925.7 890.4,926.2 C889.2,928.1 899.8,943.7 908.3,952.6 C915.5,960.1 918.1,962.2 921.8,963.4 C927.0,964.9 930.0,965.3 930.0,964.4 Z M876.5,956.4 C876.5,955.3 865.6,946.0 864.4,946.0 C863.6,946.0 864.6,955.6 865.5,957.1 C866.4,958.4 876.5,957.8 876.5,956.4 Z M906.0,957.2 C906.0,956.7 904.6,955.1 902.9,953.4 C899.3,950.0 890.3,936.7 886.6,929.3 C884.4,925.0 883.4,923.9 880.3,923.1 C872.6,920.9 872.5,921.4 878.2,931.9 C883.0,940.8 894.3,953.0 900.4,955.9 C905.0,958.1 906.0,958.4 906.0,957.2 Z M879.2,941.3 C878.1,939.8 875.6,935.2 873.6,931.2 C871.6,927.3 869.5,924.0 869.0,924.0 C868.5,924.0 867.5,925.8 866.9,928.0 C865.7,931.9 865.8,932.2 869.1,935.7 C873.1,939.8 880.1,945.2 880.8,944.6 C881.0,944.3 880.3,942.9 879.2,941.3 Z M986.0,931.1 C986.0,929.9 977.8,919.0 975.2,916.6 C972.3,914.1 972.4,914.4 976.5,923.3 C978.5,927.6 980.7,931.0 981.7,931.3 C984.7,932.1 986.0,932.0 986.0,931.1 Z M974.0,927.4 C974.0,927.0 971.7,922.3 968.8,916.9 C964.6,908.8 962.8,906.4 959.2,904.0 C952.0,899.2 951.8,899.7 957.2,907.8 C958.8,910.1 961.7,915.4 963.5,919.4 C965.3,923.5 967.4,927.0 968.2,927.3 C970.1,928.1 974.0,928.1 974.0,927.4 Z M961.3,925.4 C962.9,923.7 951.3,905.2 944.0,897.9 C939.7,893.6 929.8,888.8 928.3,890.3 C928.0,890.6 929.6,893.0 931.8,895.7 C936.6,901.5 941.7,909.4 945.8,917.7 C948.9,923.7 949.0,923.9 954.2,924.8 C957.1,925.3 959.8,925.8 960.1,925.9 C960.4,925.9 960.9,925.7 961.3,925.4 Z M943.0,921.9 C943.0,920.1 934.1,904.9 929.7,899.2 C927.5,896.2 924.0,892.5 922.1,890.9 C919.0,888.3 917.9,888.0 914.6,888.5 C912.5,888.8 909.8,889.6 908.7,890.2 C906.7,891.3 906.7,891.3 909.3,893.6 C913.9,897.5 921.9,907.1 927.1,914.7 C930.2,919.3 932.8,922.0 934.2,922.3 C938.8,923.2 943.0,923.0 943.0,921.9 Z M926.0,921.2 C926.0,919.4 915.5,905.4 909.1,898.7 L902.4,891.7 L899.0,893.5 C897.1,894.5 894.7,895.9 893.7,896.8 C892.1,898.2 892.1,898.5 894.7,901.9 C899.8,908.8 906.2,915.8 909.3,918.1 C913.1,920.9 926.0,923.2 926.0,921.2 Z M903.3,919.4 C903.7,919.0 901.9,916.5 899.4,913.7 C896.9,910.9 893.7,906.9 892.2,904.8 C890.7,902.8 889.1,901.0 888.7,901.0 C887.3,901.0 882.0,905.1 882.0,906.2 C882.0,906.7 883.4,909.0 885.1,911.1 C889.3,916.4 892.3,918.0 902.1,919.9 C902.4,919.9 903.0,919.7 903.3,919.4 Z M881.7,912.2 C879.2,909.8 876.0,909.7 876.0,912.0 C876.0,913.3 882.1,916.0 883.3,915.3 C883.8,915.0 883.1,913.6 881.7,912.2 Z M914.0,870.7 C904.9,868.2 898.3,862.2 894.0,852.9 C891.5,847.2 891.5,843.8 894.1,841.4 C895.9,839.8 897.9,839.5 908.8,839.5 C922.9,839.4 927.1,838.3 938.2,831.5 C944.7,827.4 947.4,827.8 948.5,832.8 C949.4,837.2 947.2,848.9 944.4,854.8 C938.3,867.4 925.7,873.9 914.0,870.7 Z M926.1,864.8 C928.2,864.2 930.7,862.9 931.5,862.0 C932.9,860.5 932.8,860.2 931.1,858.6 C926.5,854.4 917.0,853.0 908.4,855.1 C903.3,856.4 902.8,858.0 906.9,861.0 C913.8,865.8 919.2,866.9 926.1,864.8 Z M878.0,835.1 C872.1,833.9 865.8,829.8 861.9,824.7 C857.5,818.8 856.0,814.2 856.0,806.3 C856.0,790.8 866.0,779.4 880.5,778.2 C886.1,777.8 887.7,778.1 892.4,780.4 C902.9,785.5 908.4,794.7 908.4,807.0 C908.4,819.1 903.6,827.6 894.0,832.5 C888.7,835.1 882.9,836.1 878.0,835.1 Z M901.1,817.5 C903.4,812.6 903.6,802.4 901.6,797.6 C899.0,791.5 893.3,786.1 887.4,784.4 C882.5,783.0 881.5,783.0 876.7,784.4 C867.3,787.1 861.7,795.5 861.7,806.5 C861.8,812.4 863.3,817.6 866.2,821.4 C867.5,823.1 867.6,822.5 867.3,815.4 C866.9,808.7 867.2,807.0 868.9,804.2 C875.3,794.1 888.5,794.8 894.8,805.5 C896.7,808.8 897.0,810.6 896.7,815.5 C896.5,818.8 895.9,822.4 895.5,823.5 L894.7,825.5 L897.0,823.5 C898.2,822.4 900.1,819.7 901.1,817.5 Z M941.2,819.6 C931.0,816.3 923.5,806.0 922.3,793.7 C920.8,777.7 930.6,764.8 945.4,763.3 C949.8,762.9 951.4,763.3 957.0,766.2 C962.4,769.0 964.1,770.5 966.8,775.0 C971.1,782.2 972.3,787.1 971.8,795.0 C970.5,812.4 955.8,824.3 941.2,819.6 Z M890.4,808.8 C892.0,806.2 890.0,803.5 886.4,803.5 C884.1,803.5 883.4,804.0 883.2,805.8 C882.5,810.5 887.9,812.7 890.4,808.8 Z M965.0,801.0 C968.5,788.7 962.6,773.8 952.7,770.1 C947.9,768.2 942.0,768.8 937.4,771.5 C929.4,776.2 925.6,789.1 929.0,799.5 C930.5,804.1 931.9,804.0 931.3,799.2 C930.8,794.7 934.1,787.6 938.3,784.6 C942.2,781.7 949.8,781.8 953.6,784.6 C959.4,788.9 960.5,791.4 960.5,800.6 C960.4,808.9 960.5,809.0 962.2,806.8 C963.2,805.5 964.4,802.9 965.0,801.0 Z M954.4,793.8 C955.9,791.4 954.1,788.6 950.7,788.2 C947.4,787.8 945.4,791.0 947.0,794.1 C948.4,796.6 952.8,796.4 954.4,793.8 Z M545.7,794.3 C543.3,792.0 549.0,786.4 576.3,764.1 C580.6,760.6 583.9,757.3 583.7,756.7 C583.5,756.1 580.8,754.8 577.6,753.7 C571.8,751.8 569.8,749.8 571.8,747.8 C572.3,747.3 579.2,744.4 587.1,741.5 C595.0,738.6 601.5,735.9 601.7,735.4 C601.8,734.9 598.8,732.8 594.9,730.7 C589.1,727.6 587.9,726.5 588.2,724.7 C588.5,722.7 589.3,722.4 597.0,721.7 C607.5,720.8 619.5,721.2 619.5,722.5 C619.5,723.7 611.1,725.8 605.8,725.9 C601.2,726.0 600.9,727.5 605.1,729.8 C606.9,730.7 609.4,732.5 610.9,733.7 C613.3,735.7 613.4,736.0 611.9,737.5 C611.0,738.4 604.5,741.3 597.4,744.0 C590.3,746.7 584.6,749.2 584.8,749.7 C584.9,750.1 586.2,750.8 587.6,751.2 C590.9,752.1 593.0,753.9 593.0,755.9 C593.0,756.8 588.5,761.3 583.0,765.9 C571.0,775.9 569.5,777.5 573.5,776.0 C575.0,775.4 586.8,769.5 599.6,763.0 C612.4,756.4 623.5,751.0 624.3,751.0 C627.4,751.0 628.0,753.4 626.5,759.4 C624.1,768.6 624.5,769.0 629.9,763.0 C634.1,758.3 635.1,757.7 636.7,758.6 C637.7,759.2 638.9,761.3 639.3,763.4 C639.8,765.4 640.5,767.0 640.8,767.0 C641.2,767.0 643.0,764.7 644.8,762.0 C647.8,757.3 650.0,755.7 650.0,758.0 C650.0,758.6 648.0,763.3 645.5,768.6 C640.4,779.6 638.4,780.5 636.1,773.0 C635.3,770.5 634.5,768.3 634.3,768.0 C634.0,767.7 630.3,771.3 626.0,776.0 C619.0,783.6 618.0,784.3 616.6,783.0 C615.2,781.6 615.3,780.5 617.6,771.2 C619.1,765.5 619.9,760.6 619.6,760.2 C619.2,759.9 603.2,767.6 584.0,777.3 C564.9,787.0 548.5,795.0 547.7,795.0 C547.0,795.0 546.0,794.7 545.7,794.3 Z M752.9,748.6 C744.5,745.6 741.0,741.0 741.0,732.9 C741.0,722.3 750.5,707.7 763.3,698.6 C777.5,688.6 788.8,684.6 801.9,685.2 C809.7,685.5 811.1,685.8 814.3,688.3 C819.1,692.0 821.0,695.8 821.0,701.9 C821.0,719.1 796.9,741.5 771.4,748.0 C762.5,750.3 758.0,750.4 752.9,748.6 Z M776.0,740.2 C787.7,735.5 795.9,730.3 803.6,722.6 C811.7,714.4 815.0,708.4 815.0,701.7 C815.0,695.3 812.2,692.3 804.9,690.8 C800.2,689.8 798.1,689.9 792.4,691.3 C768.3,697.3 747.0,716.7 747.0,732.9 C747.0,737.8 748.4,739.9 753.5,742.9 C756.9,744.9 767.7,743.6 776.0,740.2 Z M675.2,735.7 C674.0,734.4 671.1,729.8 668.7,725.5 L664.5,717.7 L656.5,714.9 C652.1,713.3 647.9,712.1 647.1,712.3 C645.0,712.6 656.9,726.9 663.2,731.7 C671.4,737.8 675.4,740.0 676.4,739.0 C677.0,738.4 676.6,737.2 675.2,735.7 Z M685.0,730.6 C687.3,728.1 689.1,725.8 689.0,725.3 C688.8,724.6 674.3,720.2 671.8,720.0 C670.1,719.9 671.2,722.8 675.0,728.8 C677.2,732.2 679.4,735.0 680.0,735.0 C680.5,735.0 682.8,733.0 685.0,730.6 Z M534.8,723.5 C542.5,720.0 551.1,711.2 555.1,702.5 C558.4,695.5 561.7,683.3 560.5,682.2 C560.1,681.8 559.5,682.1 559.3,682.8 C558.0,686.4 551.6,694.1 546.4,698.3 C535.7,706.9 527.2,709.9 513.0,710.0 C501.6,710.0 489.9,707.1 477.2,701.0 C463.1,694.3 454.3,688.1 442.7,677.1 C417.0,652.5 399.2,622.1 391.5,590.0 C389.1,579.8 388.5,560.0 390.4,551.1 C394.3,532.5 406.0,518.3 421.8,512.9 C430.9,509.7 440.0,509.4 450.3,511.9 C474.2,517.6 487.1,525.9 513.5,552.6 C536.1,575.5 544.3,581.7 557.4,585.9 C562.4,587.5 569.2,589.2 572.5,589.5 L578.5,590.2 L581.3,586.0 C582.8,583.6 583.9,581.6 583.8,581.5 C583.6,581.3 580.6,580.4 577.0,579.5 C564.8,576.4 550.2,568.0 539.1,557.6 C534.7,553.5 524.0,540.2 524.0,538.8 C524.0,538.1 528.2,541.7 533.2,546.6 C547.9,560.9 559.4,568.5 573.7,573.4 C586.1,577.6 599.4,579.2 597.6,576.2 C597.3,575.7 591.3,571.4 584.1,566.7 C567.9,555.8 560.7,548.0 555.5,535.8 C553.1,530.0 555.3,531.3 559.8,538.4 C565.4,546.9 574.9,555.6 586.8,562.9 C592.2,566.2 597.7,570.1 599.0,571.5 C601.8,574.5 603.1,574.6 605.4,572.1 C607.1,570.2 607.0,569.9 603.7,564.8 C599.2,557.8 593.0,552.3 588.6,551.4 C583.6,550.5 584.1,549.0 589.3,549.0 C592.5,549.0 594.7,549.8 597.6,551.8 C602.6,555.4 607.9,561.6 609.1,565.0 C610.0,567.6 610.3,567.6 617.8,567.7 C623.4,567.7 627.1,568.3 631.4,570.0 C636.0,571.7 638.5,572.1 642.9,571.7 C654.4,570.6 674.2,562.2 683.9,554.2 C687.3,551.5 689.3,548.4 692.5,541.6 C707.6,509.3 713.8,479.0 709.5,459.4 C705.1,439.3 695.0,423.8 676.0,407.8 C654.3,389.6 630.1,378.0 606.5,374.3 C582.2,370.6 557.8,377.0 524.0,395.7 C490.6,414.3 463.1,434.4 429.3,465.1 C416.7,476.6 397.6,495.9 398.2,496.5 C398.4,496.7 402.8,495.3 408.0,493.3 C425.2,486.9 443.7,487.7 463.0,495.7 C472.0,499.4 482.0,505.0 482.0,506.2 C482.0,507.3 482.0,507.3 473.7,503.5 C450.4,492.7 425.3,491.3 406.9,499.8 C397.8,504.0 392.7,508.1 387.0,515.8 C378.6,527.2 375.0,539.8 375.0,558.4 C375.0,579.1 380.2,600.0 390.9,622.5 C412.4,667.5 446.8,703.2 482.7,717.7 C506.2,727.2 522.6,729.0 534.8,723.5 Z M765.0,722.0 C762.5,719.5 762.5,717.0 765.0,712.0 C768.5,705.2 777.1,700.0 785.0,700.0 C790.2,700.0 794.0,702.3 794.0,705.5 C794.0,716.4 772.0,729.0 765.0,722.0 Z M555.3,718.8 C565.2,713.7 577.0,702.8 583.7,692.7 C586.2,688.9 592.0,678.6 596.7,669.7 C601.3,660.9 607.5,650.4 610.5,646.4 C613.5,642.5 616.0,639.0 616.0,638.6 C616.0,638.2 614.6,638.1 612.9,638.5 C606.3,640.0 596.0,634.4 596.0,629.4 C596.0,628.0 592.2,626.0 589.5,626.0 C587.8,626.0 584.3,636.8 583.4,644.6 C583.0,647.6 582.3,650.0 581.7,650.0 C579.9,650.0 581.5,631.1 583.9,625.0 C585.0,622.0 586.0,618.2 586.0,616.7 C586.0,615.2 586.9,612.1 588.0,609.9 C591.3,603.5 588.1,601.5 583.8,607.2 C576.4,616.9 571.8,631.7 569.5,652.7 C565.7,688.7 565.1,692.0 559.5,703.8 C557.2,708.7 554.1,713.0 550.1,717.1 C546.7,720.4 544.8,723.0 545.7,723.0 C546.5,723.0 550.9,721.1 555.3,718.8 Z M781.0,716.7 C787.5,712.9 791.3,707.2 789.1,704.6 C787.3,702.4 784.4,702.6 778.5,705.4 C771.2,708.8 765.5,715.8 767.5,719.0 C768.8,721.1 775.6,720.0 781.0,716.7 Z M701.4,713.1 C703.9,710.5 705.1,708.6 704.7,707.6 C703.2,703.8 695.7,694.0 689.8,688.2 C683.7,682.3 683.0,681.9 676.7,680.8 C673.0,680.2 669.7,679.9 669.4,680.3 C668.6,681.0 673.0,689.3 678.4,697.4 C684.1,705.8 694.0,716.8 696.0,716.9 C696.9,717.0 699.3,715.2 701.4,713.1 Z M687.0,715.4 C687.0,715.1 684.6,711.9 681.6,708.2 C675.2,700.2 669.6,691.5 667.1,685.7 C666.1,683.4 664.4,680.8 663.4,679.9 C661.2,678.0 644.8,673.8 643.8,674.8 C642.3,676.3 652.6,692.4 659.9,700.2 C667.9,708.7 673.4,712.5 680.8,714.5 C686.4,716.1 687.0,716.2 687.0,715.4 Z M655.1,701.4 C649.5,695.3 643.2,685.1 640.2,677.4 C638.3,672.6 638.2,672.5 630.1,669.6 C625.6,668.0 621.7,667.0 621.4,667.3 C620.7,668.0 625.5,677.4 630.1,684.0 C638.0,695.6 651.7,706.7 658.4,706.9 C659.7,707.0 658.9,705.6 655.1,701.4 Z M712.9,702.4 C716.8,699.2 716.8,697.4 712.9,692.8 C710.6,689.9 708.4,688.6 703.3,687.0 C692.8,683.8 692.1,684.1 697.3,690.2 C699.7,693.1 703.1,697.6 704.9,700.2 C706.7,702.9 708.5,705.0 709.0,705.0 C709.5,705.0 711.2,703.8 712.9,702.4 Z M522.1,700.6 C531.0,698.7 537.8,695.1 543.9,689.0 C553.5,679.4 556.8,671.6 560.5,649.9 C564.7,624.6 568.2,614.4 576.4,603.8 C578.3,601.2 579.6,598.9 579.3,598.6 C578.9,598.3 576.4,598.0 573.6,598.0 C567.0,598.0 557.2,595.7 549.2,592.4 C545.8,590.9 542.8,589.9 542.6,590.1 C542.4,590.3 544.5,595.3 547.4,601.1 C552.1,610.6 556.0,623.3 556.0,629.0 C556.0,632.9 554.4,630.9 552.7,624.6 C550.2,615.9 542.0,599.3 535.5,589.6 C527.8,578.0 490.7,541.5 478.4,533.3 C463.4,523.4 447.0,518.1 434.6,519.3 C416.9,521.0 404.6,531.7 400.0,549.5 C394.9,569.5 399.8,598.2 412.6,623.0 C434.8,666.1 469.9,695.8 504.8,700.9 C513.1,702.1 514.8,702.1 522.1,700.6 Z M630.0,691.5 C630.0,691.2 628.5,688.8 626.6,686.2 C622.7,680.9 617.0,669.3 617.0,667.0 C617.0,665.1 615.1,663.0 613.3,663.0 C612.6,663.0 611.1,664.8 610.0,667.0 L607.9,671.1 L609.9,673.9 C612.5,677.5 627.8,692.0 629.1,692.0 C629.6,692.0 630.0,691.8 630.0,691.5 Z M492.0,687.7 C489.8,686.8 490.5,686.5 497.5,686.0 C516.6,684.6 523.8,675.4 522.8,653.7 C521.7,630.3 507.9,602.5 487.1,581.9 C462.5,557.4 438.3,550.2 427.7,564.2 C415.3,580.4 425.8,617.1 449.4,640.6 C458.1,649.2 464.4,653.6 471.8,656.2 C486.4,661.3 495.3,653.4 492.9,637.7 C490.6,623.3 477.4,604.3 465.2,598.1 C460.0,595.5 457.0,595.4 453.7,598.0 C448.3,602.3 449.6,612.2 456.6,620.0 C461.9,625.8 460.8,627.9 454.5,624.0 C451.1,621.9 446.8,616.3 445.1,611.7 C443.3,607.0 443.8,598.9 446.0,595.2 C453.9,582.3 472.6,587.7 487.7,607.2 C500.4,623.8 505.1,643.1 499.1,654.8 C490.5,671.7 468.0,669.2 446.4,648.8 C428.9,632.2 417.9,611.9 415.0,591.1 C411.1,562.5 429.1,544.2 454.1,551.6 C483.1,560.2 512.9,593.3 525.0,630.5 C529.3,643.5 530.3,660.4 527.4,669.6 C523.4,682.3 514.4,689.1 501.6,688.9 C497.7,688.9 493.4,688.4 492.0,687.7 Z M733.5,686.4 C734.9,685.5 736.0,684.3 736.0,683.8 C736.0,681.2 718.1,660.0 715.9,660.0 C715.4,660.0 716.6,662.8 718.4,666.2 C720.3,669.7 722.8,675.4 724.0,679.0 C727.2,688.5 728.6,689.6 733.5,686.4 Z M720.5,681.2 C718.9,674.4 711.7,661.8 706.1,655.8 C700.4,649.7 689.6,642.1 688.3,643.3 C688.0,643.7 689.0,645.6 690.6,647.7 C692.2,649.7 696.7,657.7 700.5,665.4 L707.6,679.4 L713.0,681.6 C720.6,684.6 721.4,684.6 720.5,681.2 Z M701.0,676.5 C701.0,674.4 692.8,657.9 689.1,652.7 C682.1,642.7 671.9,635.0 665.5,635.0 C662.5,635.0 662.3,636.1 665.0,638.5 C668.4,641.5 676.9,654.6 682.1,664.7 L687.2,674.5 L692.8,676.2 C700.1,678.3 701.0,678.3 701.0,676.5 Z M682.0,673.1 C682.0,672.6 679.5,667.7 676.4,662.3 C671.1,652.8 666.3,646.1 660.3,639.3 L657.5,636.0 L650.2,637.2 C646.3,637.8 643.0,638.6 643.0,639.0 C643.0,640.6 657.9,660.2 663.3,665.7 C668.5,671.0 670.1,672.0 674.4,672.8 C681.4,674.1 682.0,674.1 682.0,673.1 Z M661.0,669.2 C661.0,668.8 659.2,666.6 657.0,664.5 C654.8,662.3 649.5,655.5 645.3,649.3 C638.3,639.0 637.3,638.0 634.5,638.0 C632.3,638.0 630.4,639.0 628.0,641.5 C624.3,645.3 624.0,644.3 631.8,653.7 C638.4,661.7 644.1,665.9 651.2,668.0 C658.2,670.1 661.0,670.4 661.0,669.2 Z M631.1,659.2 C630.5,658.3 628.2,655.5 626.0,653.0 L622.0,648.5 L619.5,651.3 C618.1,652.9 617.3,654.6 617.6,655.2 C618.5,656.5 628.0,660.9 630.3,660.9 C631.7,661.0 631.9,660.6 631.1,659.2 Z M754.5,659.0 C753.9,658.0 756.6,656.0 761.2,653.9 C765.2,652.1 764.7,651.3 758.9,650.5 C753.6,649.8 752.1,648.2 753.6,645.0 C754.1,644.0 760.1,637.2 767.0,629.9 C773.9,622.6 778.6,616.9 777.6,617.3 C776.5,617.7 772.0,620.3 767.5,623.0 C763.0,625.7 758.2,628.1 756.9,628.2 C754.7,628.5 754.5,628.1 754.2,623.6 L753.9,618.8 L745.5,627.0 C734.8,637.4 732.4,637.1 732.1,625.8 C732.0,623.7 731.7,622.0 731.2,622.0 C730.8,622.0 729.0,624.3 727.2,627.0 C725.5,629.8 723.3,632.0 722.5,632.0 C720.4,632.0 720.5,632.0 725.2,622.5 C733.2,606.5 736.1,605.3 736.8,618.0 C737.1,622.3 737.7,625.0 738.4,625.0 C739.0,625.0 743.6,620.7 748.7,615.3 C756.6,606.8 758.1,605.6 759.7,606.6 C761.2,607.6 761.4,608.8 761.2,613.4 C760.9,617.3 761.2,619.0 762.0,619.0 C762.7,619.0 770.4,614.7 779.0,609.4 C787.8,604.1 795.6,600.0 796.7,600.2 C801.0,601.0 798.9,604.2 783.8,620.1 C767.0,637.8 761.6,643.9 762.2,644.5 C762.4,644.7 765.7,645.4 769.5,646.0 C781.6,647.9 781.1,650.0 766.9,655.8 C755.6,660.4 755.4,660.4 754.5,659.0 Z M363.7,641.8 C351.2,626.1 342.2,605.5 338.4,583.7 C336.0,570.3 336.9,547.8 340.3,535.0 C343.2,523.8 346.6,515.2 350.4,509.1 C354.8,502.2 355.2,505.5 351.5,516.5 C338.6,554.1 342.7,593.6 363.6,634.7 C366.6,640.6 369.0,645.5 369.0,645.7 C369.0,647.1 366.6,645.3 363.7,641.8 Z M693.0,634.2 C693.0,633.8 691.3,631.5 689.2,629.1 L685.3,624.6 L682.0,626.6 C680.2,627.6 678.7,628.9 678.8,629.4 C678.8,629.9 681.5,631.4 684.7,632.6 C690.9,635.0 693.0,635.4 693.0,634.2 Z M617.0,629.5 C619.8,628.5 626.6,627.8 635.9,627.5 C650.9,627.0 655.5,626.1 667.5,621.6 C691.6,612.4 714.4,591.2 726.9,566.3 C737.6,545.0 738.9,516.3 730.2,497.5 C727.4,491.7 721.7,484.0 720.0,484.0 C719.6,484.0 718.9,486.1 718.5,488.8 C717.8,493.7 712.2,515.8 709.6,524.5 C708.1,529.3 708.1,529.4 709.8,527.3 C710.7,526.2 713.2,522.0 715.3,518.1 C720.8,507.7 723.0,509.0 719.1,520.3 C710.3,545.7 686.5,568.3 659.3,577.0 C654.2,578.7 648.9,580.0 647.5,580.0 C644.3,580.0 643.4,581.7 645.6,584.1 C648.1,586.9 646.4,587.8 642.7,585.5 C631.5,578.7 624.7,576.0 619.0,576.0 C614.9,576.0 612.6,576.5 610.9,577.8 L608.7,579.7 L613.1,582.7 C619.2,586.9 621.6,589.8 620.3,591.1 C619.5,591.9 617.6,591.4 613.9,589.7 C602.9,584.5 596.4,584.2 590.2,588.5 C585.4,592.0 589.5,597.4 597.8,598.5 C607.4,599.8 609.7,602.7 603.8,605.8 C602.0,606.7 599.0,608.9 597.2,610.7 C594.5,613.3 593.9,614.6 594.2,617.2 C594.5,620.1 594.9,620.5 597.7,620.8 C599.7,621.0 603.1,620.0 607.0,618.1 C614.0,614.6 615.0,614.4 615.0,616.5 C615.0,617.3 612.5,619.8 609.5,622.1 C603.7,626.5 602.9,628.2 605.8,629.9 C608.3,631.4 612.1,631.2 617.0,629.5 Z M328.4,615.4 C323.4,606.5 319.5,596.1 317.6,586.8 C314.7,572.8 316.0,552.5 320.5,541.2 C322.6,536.1 325.3,535.3 324.2,540.2 C323.8,542.0 323.5,552.5 323.5,563.5 C323.5,585.8 324.5,592.7 330.6,610.8 C334.4,622.5 334.3,622.0 333.0,622.0 C332.5,622.0 330.4,619.0 328.4,615.4 Z M751.3,582.8 C751.6,582.1 753.9,576.7 756.4,570.9 C763.2,555.1 765.1,546.9 765.7,530.5 C766.1,519.7 765.8,514.6 764.5,508.0 C762.4,497.5 757.1,483.7 751.5,474.5 C749.1,470.6 747.4,467.1 747.7,466.7 C749.3,464.0 760.2,476.9 765.5,487.7 C775.8,508.9 776.9,534.5 768.4,558.0 C765.3,566.9 760.0,576.2 755.7,580.8 C752.6,584.0 750.4,585.0 751.3,582.8 Z M636.8,560.0 C632.4,558.7 627.5,555.3 623.0,550.4 C618.2,545.2 616.0,540.5 616.0,535.7 C616.0,530.2 617.7,529.5 631.9,529.4 C646.0,529.4 651.5,527.9 661.1,521.4 C670.7,515.0 674.0,517.7 672.3,530.6 C670.4,543.8 663.8,554.3 654.5,558.6 C649.3,561.1 642.1,561.6 636.8,560.0 Z M783.0,560.7 C783.0,560.6 784.2,556.0 785.6,550.5 C790.6,531.0 789.8,508.3 783.5,491.6 C782.1,487.8 781.2,484.5 781.5,484.2 C782.6,483.1 786.9,488.4 789.4,494.0 C796.8,510.4 798.0,529.4 792.6,545.3 C789.9,553.3 785.7,561.0 784.0,561.0 C783.4,561.0 783.0,560.9 783.0,560.7 Z M653.0,553.0 C655.2,551.9 657.0,550.5 657.0,549.9 C657.0,547.8 646.7,544.0 641.0,544.0 C634.9,544.0 628.0,545.6 628.0,547.0 C628.0,548.2 633.8,552.6 637.0,553.9 C641.3,555.6 648.8,555.2 653.0,553.0 Z M597.9,524.8 C592.0,523.3 584.8,517.1 581.8,510.9 C574.2,495.6 579.3,478.0 593.5,470.7 C598.4,468.2 607.8,468.0 613.2,470.3 C618.8,472.7 625.5,479.4 628.1,485.3 C631.3,492.4 631.4,503.5 628.3,510.2 C622.9,522.1 610.4,528.2 597.9,524.8 Z M597.8,516.2 C585.8,503.7 598.2,480.9 612.9,488.4 C617.1,490.6 621.6,496.3 622.4,500.4 C623.5,505.9 625.0,504.7 625.0,498.2 C625.0,488.3 619.2,479.1 610.8,475.6 C598.2,470.3 584.1,480.8 584.0,495.5 C584.0,504.6 587.9,512.8 594.4,517.0 C599.0,519.9 600.9,519.6 597.8,516.2 Z M665.0,508.1 C649.9,503.5 641.1,488.9 643.9,473.4 C645.1,466.9 647.4,462.9 652.7,457.9 C657.1,453.7 661.5,452.0 667.7,452.0 C673.8,452.0 678.7,454.3 684.3,459.8 C699.2,474.5 694.4,501.9 675.9,507.4 C670.2,509.1 668.8,509.2 665.0,508.1 Z M616.0,499.9 C616.9,498.3 616.8,497.3 615.5,495.4 C613.7,492.6 612.3,492.4 609.8,494.7 C607.6,496.7 607.5,497.8 609.7,500.2 C611.8,502.6 614.7,502.5 616.0,499.9 Z M686.1,490.2 C688.3,483.7 687.8,476.2 684.7,469.7 C678.8,457.8 666.7,454.1 656.8,461.1 C649.7,466.2 646.9,480.1 651.2,489.0 L653.4,493.5 L654.0,487.0 C654.5,480.2 655.9,477.5 660.4,473.9 C666.6,469.0 674.6,470.7 680.0,478.2 C682.5,481.6 683.0,483.2 683.0,488.2 C683.0,494.8 684.3,495.7 686.1,490.2 Z M299.7,488.3 C297.5,486.1 298.9,484.9 328.8,462.7 C338.3,455.6 340.7,453.3 339.8,452.5 C339.1,451.8 334.9,450.3 330.5,449.0 C321.9,446.6 320.0,445.5 320.0,443.4 C320.0,441.6 322.9,440.5 335.0,437.5 C349.2,434.1 351.0,433.8 351.0,435.4 C351.0,436.6 343.9,439.8 335.6,442.5 C332.9,443.3 334.1,444.1 341.7,446.4 C348.9,448.7 351.2,450.9 349.4,453.8 C348.8,454.7 344.3,458.3 339.4,461.8 C334.5,465.3 328.7,469.7 326.5,471.6 L322.5,475.0 L329.4,472.5 C338.1,469.3 339.8,469.3 341.2,472.8 C341.9,474.3 342.5,475.7 342.7,475.9 C342.8,476.1 345.3,474.2 348.2,471.8 C357.4,464.0 365.0,458.9 366.8,459.2 C368.2,459.5 368.6,460.9 368.8,466.4 L369.1,473.2 L374.1,468.5 C376.8,466.0 379.4,464.2 380.0,464.5 C380.9,465.1 370.0,482.9 367.4,485.1 C366.7,485.7 365.3,486.0 364.5,485.6 C363.3,485.2 363.0,483.2 363.0,476.5 C363.0,471.8 362.7,468.0 362.2,468.0 C361.8,468.1 356.8,471.9 351.0,476.6 C339.2,486.1 336.7,486.8 336.2,480.8 C336.0,478.5 335.4,477.0 334.6,477.0 C333.9,477.0 326.6,479.7 318.4,483.0 C303.8,488.9 301.0,489.7 299.7,488.3 Z M676.8,482.7 C677.2,479.3 675.4,476.8 672.7,477.2 C669.6,477.7 668.4,480.4 669.8,483.5 C670.8,485.6 671.6,486.1 673.8,485.8 C675.9,485.6 676.6,484.9 676.8,482.7 Z M417.5,460.8 C417.8,460.1 416.2,456.1 414.0,451.9 C410.1,444.4 410.0,444.3 403.8,442.1 C392.9,438.2 393.3,438.1 397.1,443.5 C400.7,448.5 414.6,462.0 416.1,462.0 C416.6,462.0 417.3,461.4 417.5,460.8 Z M425.9,453.6 C427.7,451.7 428.8,450.0 428.3,449.7 C426.6,448.7 416.9,446.8 416.3,447.3 C415.6,448.0 420.8,457.0 421.8,457.0 C422.3,457.0 424.1,455.5 425.9,453.6 Z M514.3,452.9 C510.9,452.5 506.7,451.4 504.8,450.5 C486.5,441.2 493.2,420.3 518.4,408.0 C530.1,402.2 537.4,400.6 551.0,400.5 C560.9,400.5 563.2,400.8 567.5,402.8 C579.9,408.5 583.3,417.7 577.0,428.7 C572.0,437.5 562.0,444.2 546.7,449.3 C540.1,451.6 524.9,454.3 521.5,453.9 C521.0,453.8 517.7,453.4 514.3,452.9 Z M540.9,445.0 C556.3,440.7 570.0,431.4 573.4,423.0 C574.8,419.5 574.8,418.5 573.6,415.7 C570.8,409.0 564.0,406.0 551.6,406.0 C540.5,406.0 531.0,408.2 521.5,412.9 C496.4,425.4 492.5,443.2 514.0,447.4 C518.8,448.3 533.8,446.9 540.9,445.0 Z M439.5,441.7 C441.2,440.4 441.0,439.9 435.8,433.7 C432.8,430.0 428.0,423.0 425.1,418.1 C422.2,413.1 419.3,408.7 418.7,408.2 C417.4,407.2 403.7,404.0 403.1,404.6 C401.4,406.3 414.5,426.0 423.1,434.8 C431.1,443.0 435.3,444.7 439.5,441.7 Z M416.9,434.2 C410.9,428.0 406.8,421.9 401.9,411.6 C397.9,403.3 397.8,403.2 393.2,402.1 C390.6,401.4 387.7,400.7 386.8,400.4 C383.7,399.5 384.7,403.2 390.2,412.4 C398.9,427.0 412.0,438.9 419.5,439.0 C421.0,439.0 420.5,438.1 416.9,434.2 Z M450.5,432.5 L455.5,428.0 L447.5,420.2 C440.0,413.0 438.9,412.2 432.6,410.6 C428.8,409.7 425.5,409.1 425.3,409.4 C423.8,410.8 442.5,437.1 444.9,437.0 C445.2,436.9 447.8,434.9 450.5,432.5 Z M521.5,433.0 C514.7,430.9 514.2,425.4 520.3,419.6 C527.4,412.7 539.7,410.6 544.5,415.5 C547.8,418.7 547.6,421.2 543.8,425.6 C538.5,431.6 528.2,435.0 521.5,433.0 Z M397.0,429.6 C397.0,429.3 394.9,426.3 392.2,422.8 C389.6,419.3 386.0,413.1 384.2,409.0 C379.5,398.5 379.8,398.8 375.9,397.5 C369.2,395.1 366.0,394.7 366.0,396.2 C366.0,398.9 373.7,410.4 380.0,417.3 C387.1,425.0 397.0,432.1 397.0,429.6 Z M534.5,428.1 C540.2,425.5 543.8,421.4 542.3,419.2 C541.5,417.9 539.8,417.5 535.2,417.5 C530.1,417.5 528.5,418.0 524.8,420.6 C520.2,423.8 519.1,426.2 521.0,428.5 C522.7,430.6 529.7,430.3 534.5,428.1 Z M461.8,424.1 C463.0,423.0 464.0,421.7 464.0,421.2 C464.0,420.1 454.0,416.0 451.4,416.0 C450.4,416.0 451.3,417.7 454.1,421.0 C456.4,423.8 458.6,426.0 458.9,426.0 C459.2,425.9 460.5,425.1 461.8,424.1 Z M364.8,402.5 L359.5,391.7 L353.6,389.3 C350.4,388.0 347.6,387.1 347.3,387.4 C347.0,387.6 348.5,390.5 350.6,393.7 C354.5,399.7 368.7,414.7 369.6,413.8 C369.8,413.5 367.7,408.4 364.8,402.5 Z M470.5,411.8 C469.1,407.2 461.8,394.1 458.5,390.2 C455.0,386.2 445.3,379.3 444.4,380.2 C444.2,380.5 445.6,383.1 447.6,386.1 C449.6,389.1 452.8,394.9 454.7,399.0 C456.6,403.1 458.5,407.2 458.9,408.0 C459.7,409.6 467.6,413.9 469.8,414.0 C470.7,414.0 470.9,413.3 470.5,411.8 Z M478.4,411.1 C480.6,408.7 479.8,407.1 473.6,401.0 C468.4,396.0 468.0,396.5 471.4,404.1 C472.7,407.1 474.0,410.3 474.3,411.2 C475.1,413.5 476.3,413.5 478.4,411.1 Z M344.2,407.5 C346.7,406.5 346.5,405.7 342.4,399.6 C339.0,394.4 338.7,394.2 335.2,394.7 C329.9,395.4 317.6,392.5 312.3,389.4 C301.5,383.1 294.9,372.5 292.8,358.3 C291.2,347.3 293.3,334.4 299.5,317.8 C312.9,282.0 318.1,263.5 323.0,234.9 C328.6,202.2 333.1,186.0 340.9,170.6 C353.7,145.5 374.0,127.1 397.8,118.9 C407.3,115.6 407.9,115.5 424.0,115.5 C439.4,115.5 441.0,115.7 447.8,118.2 C458.0,121.9 465.2,126.4 473.7,134.3 C506.3,165.1 511.3,224.5 484.7,265.4 C470.4,287.3 450.7,298.9 427.1,299.2 C417.2,299.3 409.2,297.6 400.1,293.4 C390.2,288.9 383.9,283.9 377.4,275.7 C371.0,267.6 367.0,259.4 363.8,248.5 C360.5,236.7 360.6,218.2 364.2,205.0 C369.2,186.7 376.2,174.6 388.5,163.2 C400.2,152.2 412.4,147.5 427.5,148.2 C435.4,148.5 437.7,149.0 443.2,151.8 C449.3,154.8 457.0,161.6 457.0,164.0 C457.0,165.7 456.1,165.2 450.2,160.5 C443.0,155.0 437.6,153.0 429.1,153.0 C407.8,153.1 389.6,165.8 378.2,188.6 C371.3,202.3 369.0,212.4 369.0,228.0 C369.0,259.6 387.5,284.7 415.3,290.7 C447.1,297.5 477.6,275.9 489.4,238.2 C490.8,233.6 492.0,228.7 492.0,227.3 L492.0,224.6 L489.2,227.2 C484.9,231.3 480.5,233.0 474.5,233.0 C460.8,233.0 450.5,221.0 450.6,205.0 C450.6,195.8 453.2,189.5 459.3,183.2 C467.5,174.8 480.6,174.2 489.3,181.8 C492.0,184.2 492.2,182.8 489.9,175.4 C483.7,155.0 470.1,138.0 453.9,130.2 C436.5,121.8 420.7,121.0 400.2,127.5 C386.0,132.0 371.9,142.3 360.4,156.6 C341.6,179.9 331.1,219.4 336.1,247.6 C338.9,263.5 346.3,279.1 356.0,289.3 C367.4,301.5 378.8,308.3 396.5,313.6 C404.5,316.0 407.2,316.3 420.0,316.3 C435.2,316.3 441.5,315.2 455.3,310.0 C467.9,305.3 483.4,292.1 493.0,277.9 C505.8,259.1 513.1,232.6 513.2,204.5 C513.3,180.8 509.6,162.1 501.0,144.1 C491.6,124.6 482.1,114.1 466.7,106.3 C453.4,99.7 441.5,96.9 426.0,96.9 C407.7,96.9 396.8,99.6 379.1,108.4 C374.0,111.0 369.6,112.9 369.3,112.7 C368.4,111.7 380.5,103.6 388.6,99.8 C393.2,97.7 401.1,95.0 406.2,93.9 C416.1,91.7 433.0,90.9 441.2,92.3 C444.2,92.8 446.0,92.8 446.0,92.2 C446.0,90.5 419.1,79.3 404.0,74.7 C352.2,58.8 323.1,58.0 290.1,71.6 C266.1,81.5 232.2,106.3 202.5,135.7 C162.3,175.3 141.5,212.6 141.7,244.5 C141.8,254.7 144.5,264.1 150.2,273.8 C156.0,283.8 203.7,330.9 236.0,358.5 C250.0,370.5 275.9,390.4 276.6,389.8 C276.8,389.5 275.9,386.9 274.6,383.9 C270.1,374.1 268.6,366.5 268.7,353.5 C268.8,338.8 271.3,328.0 279.6,308.1 C294.0,273.1 296.0,267.9 298.5,259.5 C299.9,254.5 302.1,245.4 303.3,239.3 C304.5,233.1 305.8,228.0 306.2,228.0 C307.3,228.0 307.2,231.0 305.4,242.8 C303.3,257.2 298.5,273.4 289.2,297.3 C276.3,330.3 274.0,339.0 274.0,354.4 C274.0,370.6 278.9,383.5 289.2,394.5 C299.6,405.7 309.7,409.2 329.5,408.6 C336.6,408.4 343.3,407.9 344.2,407.5 Z M454.0,407.0 C454.0,405.3 447.0,391.8 443.0,386.0 C436.4,376.3 428.7,370.6 419.1,368.5 L415.8,367.8 L421.4,374.7 C424.4,378.4 428.8,384.9 431.1,389.0 C439.0,403.2 439.9,404.2 446.5,406.1 C453.8,408.2 454.0,408.2 454.0,407.0 Z M427.7,391.2 C423.2,383.3 419.5,378.4 413.6,372.4 L405.5,364.3 L396.1,362.1 C391.0,360.9 386.5,360.1 386.3,360.4 C384.8,361.9 397.3,379.3 406.5,388.6 L416.5,398.7 L424.5,400.7 C428.9,401.8 432.8,402.5 433.2,402.3 C433.6,402.1 431.1,397.1 427.7,391.2 Z M407.0,396.4 C407.0,396.0 404.1,392.7 400.7,389.0 C397.2,385.3 391.1,377.1 387.1,370.7 C383.2,364.3 379.2,358.9 378.2,358.6 C373.5,357.2 363.9,355.8 363.3,356.4 C361.6,358.0 372.8,376.4 380.0,383.8 C385.8,389.8 391.0,393.0 398.3,395.1 C405.1,397.0 407.0,397.3 407.0,396.4 Z M373.6,382.4 C370.6,378.7 365.7,371.0 362.7,365.1 L357.3,354.5 L350.4,352.9 C346.6,352.0 343.1,351.5 342.7,351.7 C341.5,352.4 350.5,368.6 356.0,375.5 C358.7,378.9 362.2,382.6 363.7,383.6 C367.6,386.2 374.1,388.9 376.8,388.9 C378.8,389.0 378.5,388.3 373.6,382.4 Z M334.1,385.7 C334.0,385.3 334.0,384.4 334.0,383.7 C334.0,383.0 331.2,380.3 327.8,377.7 C324.3,375.2 320.1,371.9 318.3,370.4 C314.1,367.0 312.7,367.9 313.6,373.8 C314.6,381.0 316.8,382.8 327.5,385.5 C332.8,386.9 334.2,386.9 334.1,385.7 Z M488.0,383.0 C488.0,382.4 491.1,380.5 495.0,378.7 C502.4,375.3 503.6,374.0 499.4,374.0 C496.0,374.0 493.0,372.3 493.0,370.3 C493.0,369.3 494.4,367.1 496.2,365.3 C499.7,361.7 499.3,361.2 492.0,360.8 C488.7,360.6 487.4,360.1 487.2,358.7 C487.0,357.7 490.5,352.6 496.0,345.9 C501.1,339.9 505.1,334.7 504.9,334.5 C504.6,334.3 498.0,338.4 490.1,343.6 C482.2,348.9 475.1,352.9 474.4,352.6 C473.4,352.2 473.0,350.2 473.0,345.5 C473.0,341.9 472.6,339.0 472.2,339.0 C471.7,339.0 469.1,341.7 466.5,345.0 C460.4,352.7 458.3,351.6 463.0,343.3 C469.8,331.3 474.0,325.9 476.3,326.2 C478.4,326.5 478.5,327.0 478.5,335.2 C478.5,340.1 478.7,344.0 479.0,344.0 C479.3,344.0 481.3,342.8 483.5,341.3 C485.7,339.8 495.1,333.7 504.5,327.7 C517.6,319.3 521.8,317.0 523.0,317.8 C523.8,318.3 524.4,319.4 524.4,320.2 C524.3,321.0 518.3,328.7 510.9,337.4 C503.5,346.0 497.4,353.5 497.2,354.1 C497.0,354.6 498.9,355.0 501.5,355.0 C506.5,355.0 510.0,356.3 510.0,358.3 C510.0,359.0 508.2,361.3 506.0,363.5 C503.9,365.6 502.3,367.7 502.6,368.1 C502.8,368.5 505.2,369.2 507.8,369.6 C514.3,370.5 517.0,371.7 517.0,373.4 C517.0,375.6 513.1,377.3 500.5,380.9 C488.0,384.4 488.0,384.4 488.0,383.0 Z M353.0,378.4 C353.0,378.1 351.7,376.2 350.0,374.2 C348.4,372.2 345.2,366.4 343.0,361.5 C340.7,356.6 338.6,351.9 338.2,351.2 C337.4,349.7 324.5,344.9 323.6,345.7 C322.1,347.2 336.1,368.3 342.1,373.6 C346.2,377.3 353.0,380.3 353.0,378.4 Z M306.8,362.8 C311.5,337.3 334.6,317.6 363.3,314.5 C367.0,314.1 370.0,313.5 370.0,313.1 C369.9,312.8 365.6,310.5 360.2,308.0 C349.6,303.1 331.7,292.6 325.7,287.8 C323.6,286.2 321.6,285.1 321.3,285.4 C320.6,286.1 310.9,311.5 306.9,323.0 C302.5,335.8 300.6,346.2 301.3,354.4 C301.9,361.6 303.8,369.0 305.0,369.0 C305.4,369.0 306.2,366.2 306.8,362.8 Z M440.0,367.1 C440.0,364.1 420.7,343.0 415.2,340.1 C412.2,338.5 412.4,339.2 416.4,345.0 C418.3,347.7 420.6,352.1 421.6,354.7 C423.9,361.0 424.7,361.8 432.2,365.0 C439.3,368.2 440.0,368.3 440.0,367.1 Z M329.8,365.2 C329.3,364.0 321.7,350.5 321.2,350.0 C320.6,349.2 318.0,353.2 318.0,354.9 C318.0,356.5 327.6,366.0 329.2,366.0 C329.7,366.0 330.0,365.7 329.8,365.2 Z M419.0,358.9 C419.0,355.8 411.7,344.6 405.2,337.8 C399.4,331.7 396.6,329.6 392.3,328.0 C389.2,326.9 386.5,326.2 386.2,326.5 C385.9,326.8 387.0,328.5 388.7,330.3 C393.5,335.4 396.6,340.0 400.8,348.0 C404.7,355.5 404.7,355.5 411.1,357.7 C418.7,360.3 419.0,360.3 419.0,358.9 Z M398.4,353.1 C399.1,352.1 392.9,341.8 387.3,334.6 C382.2,328.1 374.8,323.0 370.6,323.0 C365.7,323.0 360.0,324.2 360.0,325.2 C360.0,325.6 361.7,327.9 363.9,330.3 C366.0,332.6 370.3,338.1 373.5,342.5 L379.2,350.5 L386.8,352.1 C396.1,354.1 397.7,354.3 398.4,353.1 Z M373.0,348.4 C373.0,348.0 369.5,343.5 365.2,338.2 C361.0,333.0 357.0,328.1 356.4,327.4 C355.8,326.6 354.3,326.0 353.2,326.0 C350.4,326.0 343.0,329.0 343.0,330.1 C343.0,331.6 354.6,344.4 357.1,345.7 C361.5,348.0 373.0,349.9 373.0,348.4 Z M441.5,334.1 C442.4,330.3 442.9,326.7 442.6,326.2 C442.0,325.3 431.4,326.9 429.2,328.3 C428.6,328.8 428.0,330.8 428.0,332.8 C428.0,335.7 428.8,337.3 432.2,340.8 C436.4,345.0 436.5,345.1 438.1,343.1 C439.0,342.0 440.5,337.9 441.5,334.1 Z M344.0,338.0 C341.1,334.7 338.5,332.0 338.1,332.0 C337.7,332.0 335.9,333.3 334.0,334.9 C331.7,336.9 330.8,338.2 331.5,338.8 C332.9,340.2 344.0,343.9 346.8,344.0 C349.0,344.0 348.7,343.5 344.0,338.0 Z M423.0,329.5 C423.0,328.7 422.1,328.0 421.0,328.0 C419.0,328.0 418.4,329.1 419.7,330.3 C420.9,331.6 423.0,331.0 423.0,329.5 Z M792.1,322.9 C737.1,319.8 693.5,308.2 659.3,287.6 L650.3,282.1 L645.8,283.4 C630.8,288.0 607.2,289.2 590.0,286.5 C567.6,282.8 548.0,274.0 548.0,267.4 C548.0,263.9 551.2,262.5 563.5,260.5 C581.0,257.7 599.6,250.1 609.9,241.5 L612.9,238.9 L609.5,232.2 C602.2,217.4 599.0,201.3 599.0,179.5 C599.0,156.7 602.8,139.3 611.6,121.8 C633.8,77.7 684.9,48.9 757.5,39.6 C795.6,34.7 850.3,34.7 888.5,39.6 C959.4,48.7 1010.6,77.1 1032.8,119.6 C1046.9,146.8 1050.6,182.8 1042.5,214.5 C1035.1,243.4 1016.8,267.8 989.0,286.0 C980.1,291.7 958.4,302.2 947.5,306.0 C907.3,320.0 850.0,326.2 792.1,322.9 Z M861.8,310.9 C935.7,305.7 990.5,282.1 1016.2,244.6 C1021.8,236.5 1028.4,222.2 1031.5,211.6 C1036.2,195.1 1036.5,167.5 1032.1,150.3 C1026.7,129.4 1018.5,114.9 1003.9,99.9 C977.4,72.8 935.8,56.4 876.0,49.4 C857.5,47.3 809.8,46.4 788.5,47.9 C691.6,54.6 633.1,86.7 615.7,142.5 C611.8,155.0 610.5,164.3 610.5,180.0 C610.5,201.7 613.4,214.8 621.8,231.9 L626.4,241.3 L620.5,246.6 C617.2,249.5 611.0,254.0 606.7,256.6 C599.1,261.2 578.7,269.0 574.2,269.0 C570.4,269.0 572.2,271.2 577.0,272.6 C597.0,278.5 623.9,278.4 644.7,272.4 L653.1,270.0 L661.8,275.7 C675.1,284.5 687.9,290.4 706.2,296.5 C730.3,304.4 757.7,309.4 787.5,311.3 C800.3,312.1 848.6,311.9 861.8,310.9 Z M349.0,292.5 C349.0,292.2 347.2,289.6 345.1,286.7 C339.8,279.6 333.4,266.6 331.3,258.6 C330.3,255.0 329.3,252.0 329.0,252.0 C328.7,252.0 327.5,257.2 326.2,263.5 C325.0,269.8 323.7,275.6 323.4,276.4 C323.0,277.4 326.7,280.2 335.1,285.4 C346.6,292.6 349.0,293.8 349.0,292.5 Z M427.2,275.4 C418.8,271.2 411.8,260.9 410.6,250.8 C410.2,247.1 410.5,245.7 412.1,243.6 C414.6,240.4 416.5,240.4 425.2,243.5 C434.9,247.0 446.1,247.0 457.0,243.4 C463.8,241.1 465.2,240.9 466.6,242.1 C470.1,245.0 465.0,260.2 457.6,268.7 C449.6,277.8 437.5,280.5 427.2,275.4 Z M445.2,271.4 C448.4,269.4 441.1,262.7 433.3,260.4 C427.5,258.7 420.9,258.9 420.3,260.7 C419.6,262.7 428.6,270.7 432.7,271.8 C436.3,272.8 443.3,272.6 445.2,271.4 Z M403.0,233.5 C400.5,232.7 396.6,230.5 394.3,228.5 C379.7,216.0 382.1,190.1 398.7,180.3 C402.7,178.0 404.6,177.5 410.5,177.5 C416.3,177.5 418.3,178.0 422.1,180.2 C427.3,183.3 431.2,187.9 434.2,194.7 C436.9,200.9 436.4,213.4 433.2,219.7 C427.0,231.6 414.7,237.3 403.0,233.5 Z M402.3,223.8 C400.0,220.4 399.5,218.5 399.5,213.6 C399.5,206.5 401.8,201.7 407.0,198.3 C411.1,195.5 414.9,195.4 419.9,198.0 C424.1,200.1 428.0,206.5 428.0,211.3 C428.0,215.6 429.7,214.4 430.4,209.7 C431.9,200.0 426.8,189.0 419.1,185.0 C411.7,181.3 401.9,183.1 396.4,189.2 C388.5,197.8 388.0,212.7 395.3,221.5 C397.7,224.4 402.3,227.6 404.8,228.0 C404.9,228.0 403.8,226.1 402.3,223.8 Z M491.7,214.2 C499.3,194.3 482.0,174.7 465.8,184.9 C456.9,190.6 453.1,205.1 458.0,215.8 C459.0,218.1 460.1,220.0 460.3,220.0 C460.5,220.0 460.6,217.2 460.6,213.8 C460.4,202.7 465.9,195.7 474.7,195.7 C479.4,195.7 482.9,197.7 486.3,202.2 C488.7,205.4 489.6,213.7 488.1,218.0 C486.3,223.3 489.5,219.8 491.7,214.2 Z M138.5,207.5 C147.6,183.1 169.5,153.2 199.3,124.3 C207.9,116.0 215.0,108.8 215.0,108.4 C215.0,108.0 211.7,108.0 207.8,108.3 C200.2,109.0 189.6,112.1 182.0,116.0 C162.8,125.7 142.6,147.5 134.1,167.7 C131.0,174.9 128.0,187.6 128.0,193.4 C128.0,201.3 133.1,217.3 135.0,215.4 C135.5,214.9 137.0,211.4 138.5,207.5 Z M421.8,210.8 C425.4,207.2 420.7,201.2 416.9,204.6 C414.6,206.7 414.5,207.8 416.7,210.2 C418.6,212.3 420.1,212.5 421.8,210.8 Z M483.0,209.4 C485.0,207.0 483.1,202.5 480.1,202.5 C476.8,202.5 475.3,205.2 476.8,208.4 C478.1,211.3 481.1,211.8 483.0,209.4 Z M119.6,159.9 C117.8,157.7 114.8,153.3 113.1,150.1 C110.1,144.5 109.8,144.2 103.9,142.6 C100.6,141.6 97.6,141.1 97.3,141.4 C96.3,142.3 102.2,150.1 107.0,154.2 C113.2,159.5 121.3,164.9 122.3,164.3 C122.7,164.1 121.5,162.1 119.6,159.9 Z M128.9,154.4 C130.9,150.8 131.5,148.8 130.7,148.5 C128.5,147.8 118.9,146.0 117.5,146.0 C116.7,146.0 116.0,146.5 116.0,147.1 C116.0,148.5 124.1,160.0 125.1,160.0 C125.5,160.0 127.2,157.5 128.9,154.4 Z M140.0,137.8 C141.5,135.8 142.0,134.3 141.4,133.4 C140.9,132.8 136.3,127.3 131.3,121.2 C122.0,110.3 122.0,110.3 116.8,109.6 C108.5,108.7 103.0,108.9 103.0,110.2 C103.0,111.8 107.4,117.4 114.5,124.9 C120.2,131.0 133.9,141.0 136.4,141.0 C137.1,141.0 138.7,139.6 140.0,137.8 Z M115.1,131.4 C111.2,127.8 105.6,121.1 102.6,116.6 L97.1,108.3 L88.3,107.3 C83.5,106.7 79.2,106.4 78.7,106.7 C77.6,107.3 83.5,115.6 89.9,122.3 C99.3,132.2 109.3,137.5 119.4,137.9 C122.1,138.0 121.8,137.6 115.1,131.4 Z M285.7,130.6 C275.7,127.8 271.6,122.2 272.3,112.2 C273.2,100.4 283.1,88.5 298.5,80.9 C308.9,75.8 317.5,73.7 328.0,73.6 C338.4,73.5 344.5,75.6 349.3,80.9 C360.3,93.1 350.1,111.7 325.8,123.8 C311.9,130.7 295.6,133.4 285.7,130.6 Z M149.0,127.5 L152.3,124.1 L147.5,118.5 C144.9,115.4 141.6,112.4 140.3,111.9 C137.1,110.7 129.0,110.7 129.0,112.0 C129.0,112.5 131.8,116.2 135.2,120.1 C138.7,124.0 142.1,128.1 142.9,129.1 C144.7,131.6 145.1,131.5 149.0,127.5 Z M84.0,121.8 C81.2,118.3 77.8,113.3 76.5,110.6 L74.0,105.7 L64.4,103.3 C59.1,101.9 54.6,101.1 54.3,101.4 C53.3,102.3 62.9,112.9 68.6,117.2 C74.4,121.6 85.8,127.9 87.8,128.0 C88.5,128.0 86.8,125.2 84.0,121.8 Z M306.8,124.5 C323.3,120.6 340.8,109.2 346.0,99.0 C353.4,84.4 337.6,74.9 315.5,80.5 C297.6,85.1 280.1,99.4 277.5,111.7 C276.7,115.5 279.2,121.5 282.3,123.2 C288.1,126.3 297.1,126.8 306.8,124.5 Z M159.3,118.2 C161.1,116.2 161.1,116.1 159.3,115.2 C156.7,113.8 148.0,112.6 148.0,113.7 C148.0,114.1 149.4,116.2 151.1,118.3 C154.4,122.3 155.7,122.3 159.3,118.2 Z M293.8,108.5 C290.5,106.6 289.6,104.1 291.0,100.4 C292.7,96.1 294.9,94.0 300.5,91.4 C306.3,88.6 313.5,88.3 316.8,90.6 C326.3,97.2 304.3,114.4 293.8,108.5 Z M166.1,107.5 C165.8,102.9 147.5,82.8 140.4,79.2 C135.6,76.9 123.2,73.5 122.4,74.3 C122.0,74.6 123.3,76.2 125.1,77.7 C130.3,81.9 136.6,89.0 142.3,97.0 L147.5,104.3 L156.0,106.6 C165.1,108.9 166.2,109.0 166.1,107.5 Z M177.4,106.4 C179.9,105.0 182.0,103.5 182.0,103.1 C182.0,100.5 158.0,84.7 156.4,86.2 C156.0,86.6 157.4,88.8 159.4,91.1 C161.5,93.3 165.2,98.3 167.6,102.1 C170.1,105.9 172.2,109.0 172.4,109.0 C172.6,109.0 174.8,107.8 177.4,106.4 Z M309.4,102.6 C314.5,99.6 316.3,95.8 313.7,93.3 C310.6,90.2 298.1,94.8 295.1,100.2 C291.6,106.5 300.3,107.9 309.4,102.6 Z M141.4,103.2 C142.2,101.9 130.0,87.0 123.9,81.8 C116.2,75.2 106.9,71.0 100.1,71.0 L94.8,71.0 L106.1,83.1 C122.1,100.2 124.7,102.2 132.3,103.0 C135.7,103.4 139.0,103.8 139.7,103.9 C140.3,103.9 141.1,103.6 141.4,103.2 Z M118.0,101.1 C118.0,100.6 116.7,99.2 115.2,98.1 C113.6,97.0 108.2,91.4 103.2,85.7 C91.8,72.8 88.0,70.1 80.6,69.3 C76.1,68.8 75.0,69.0 75.0,70.1 C75.0,72.5 87.7,87.6 93.7,92.6 C100.0,97.6 104.0,100.0 108.5,101.1 C112.9,102.1 118.0,102.1 118.0,101.1 Z M87.2,91.2 C82.3,86.4 76.4,79.6 74.1,76.0 C71.1,71.5 69.0,69.3 67.2,68.9 C63.6,68.0 54.5,67.9 53.7,68.6 C51.8,70.5 66.3,86.9 75.8,93.8 C82.4,98.4 85.8,99.7 92.3,99.9 L96.0,100.0 L87.2,91.2 Z M72.0,96.6 C72.0,96.4 68.5,92.8 64.2,88.7 C60.0,84.5 54.6,78.0 52.4,74.3 L48.3,67.5 L41.1,66.1 C37.2,65.4 33.6,65.0 33.3,65.4 C31.3,67.3 41.0,79.6 51.2,88.2 C56.6,92.7 72.0,98.9 72.0,96.6 Z M38.0,80.9 C35.6,78.2 32.3,73.2 30.5,69.8 L27.2,63.7 L19.0,61.3 C14.4,60.0 10.5,59.2 10.2,59.5 C9.4,60.3 14.5,67.1 19.7,72.2 C24.7,77.0 38.4,86.0 40.8,86.0 C41.6,86.0 40.4,83.9 38.0,80.9 Z M148.0,71.9 C148.0,69.5 131.7,54.0 130.4,55.3 C130.2,55.5 131.5,58.1 133.5,61.0 C135.4,63.8 137.0,66.8 137.0,67.6 C137.0,68.4 138.9,69.9 141.2,71.0 C146.2,73.2 148.0,73.4 148.0,71.9 Z M133.0,67.4 C133.0,65.7 123.4,53.6 118.8,49.6 C113.7,45.2 101.6,39.1 100.4,40.3 C100.0,40.7 102.3,43.7 105.4,47.1 C108.6,50.5 112.5,55.7 114.2,58.6 C117.7,64.9 117.7,64.9 124.4,66.5 C130.3,68.0 133.0,68.2 133.0,67.4 Z M112.0,62.9 C112.0,60.6 101.5,47.7 95.4,42.5 C88.7,36.8 83.2,34.5 73.6,33.5 L68.5,32.9 L71.5,35.2 C77.6,39.8 85.5,47.7 91.3,55.0 C96.9,62.0 97.6,62.5 101.9,63.1 C109.7,64.1 112.0,64.0 112.0,62.9 Z M91.0,61.2 C91.0,59.5 77.7,45.0 72.7,41.2 C63.6,34.2 56.5,31.3 47.3,30.6 C42.8,30.2 38.9,30.4 38.6,30.8 C37.9,32.0 47.3,43.3 54.4,49.8 C63.0,57.6 68.3,60.4 76.0,61.1 C86.3,62.0 91.0,62.1 91.0,61.2 Z M59.0,59.2 C59.0,58.8 56.6,56.6 53.6,54.2 C48.9,50.6 41.2,41.8 34.5,32.5 C32.6,29.9 31.8,29.7 24.2,29.2 C19.7,29.0 16.0,29.0 16.0,29.4 C16.0,31.2 23.7,41.8 28.3,46.5 C35.0,53.1 40.9,57.0 46.8,58.6 C52.1,60.0 59.0,60.4 59.0,59.2 Z M100.9,26.9 C98.6,24.2 94.9,20.4 92.6,18.6 C87.5,14.4 78.8,8.9 78.2,9.4 C78.0,9.7 79.2,11.6 80.9,13.7 C82.5,15.8 85.3,20.0 86.9,23.0 C89.8,28.3 90.2,28.6 96.7,30.6 C100.4,31.7 103.9,32.5 104.3,32.3 C104.7,32.0 103.2,29.6 100.9,26.9 Z" fill="#000000" fill-rule="evenodd"/></g><path class="bubble" d="M104,24 L738,24 A34,34 0 0 1 772,58 L772,213 A34,34 0 0 1 738,247 L275,247 L316,317 L200,247 L104,247 A34,34 0 0 1 70,213 L70,58 A34,34 0 0 1 104,24 Z" fill="#fff" stroke="#000" stroke-width="5" stroke-linejoin="round"/><g id="labels-en" class="labellayer" style="display:inline"><text font-family="Baloo 2, Comic Sans MS, system-ui, sans-serif" font-weight="700" text-anchor="middle" font-size="46" fill="#000"><tspan x="421" y="125">I wrap just my nerve,</tspan><tspan x="421" y="180">wire by wire!</tspan></text></g><g id="labels-de" class="labellayer" style="display:none"><text font-family="Baloo 2, Comic Sans MS, system-ui, sans-serif" font-weight="700" text-anchor="middle" font-size="46" fill="#000"><tspan x="421" y="98">Ich isoliere ganz</tspan><tspan x="421" y="153">allein meine eine</tspan><tspan x="421" y="207">Faser!</tspan></text></g></svg>