<svg xmlns="http://www.w3.org/2000/svg" viewBox="0 0 1080 1527" width="1080" height="1527" role="img" aria-label="Coloring page of type-iia-fibre"><rect x="0" y="0" width="1080" height="1527" fill="#ffffff"/><g transform="translate(0,190)"><path class="artwork" d="M462.5,954.3 C444.8,952.1 417.6,943.5 398.1,934.0 C367.2,918.9 356.0,907.3 356.0,890.4 C356.0,884.2 356.5,882.3 359.5,876.2 C364.9,865.4 374.8,857.8 387.5,854.4 C395.8,852.1 410.5,852.6 420.1,855.4 C424.7,856.8 428.8,857.6 429.1,857.2 C429.5,856.8 430.5,850.6 431.4,843.3 C435.2,814.3 443.2,793.4 455.9,779.8 C459.8,775.7 465.4,770.6 468.5,768.5 C471.5,766.4 474.0,764.4 474.0,764.2 C474.0,763.9 465.8,755.3 455.7,745.1 C388.3,676.6 323.2,595.3 284.0,530.8 C279.4,523.2 275.1,517.0 274.5,517.0 C273.8,517.0 269.0,520.6 263.9,525.1 C242.9,543.2 220.1,558.8 205.2,565.2 C198.3,568.1 196.5,568.5 188.0,568.5 C180.4,568.5 177.4,568.0 172.9,566.2 C150.8,557.3 117.5,524.2 97.9,491.5 C95.0,486.6 89.9,479.6 86.7,476.0 C79.6,468.1 72.6,454.4 70.4,443.9 C66.4,425.3 72.8,406.5 88.3,390.9 C96.4,382.8 106.4,377.4 115.1,376.4 C125.5,375.2 136.0,380.2 141.5,389.0 C143.3,391.9 144.7,392.9 147.7,393.5 C152.6,394.4 158.2,400.2 160.4,406.6 C163.7,416.4 161.9,432.6 156.0,445.6 L153.0,452.2 L155.0,455.9 C160.7,467.3 183.4,493.0 187.6,493.0 C191.8,493.0 206.7,482.4 223.0,467.8 C234.8,457.2 239.4,451.7 238.7,449.2 C238.4,448.3 232.8,436.0 226.2,422.0 C196.1,357.9 176.4,298.8 166.1,241.1 C164.1,230.0 163.9,229.7 159.6,225.6 C154.6,220.9 152.7,215.8 150.8,202.0 C149.4,190.8 150.3,184.9 154.2,180.4 C157.1,177.1 157.2,176.7 156.6,170.7 C155.7,162.3 157.4,152.1 161.1,144.8 C175.4,116.5 242.1,78.2 312.0,58.2 C358.3,45.0 391.0,41.2 411.0,47.0 C422.4,50.2 430.9,59.3 435.1,72.5 C437.3,79.6 439.4,83.0 441.5,83.0 C443.5,83.0 448.8,89.4 450.9,94.3 C456.0,106.1 457.3,124.5 453.6,130.2 C452.0,132.7 452.1,133.5 455.9,148.6 C466.1,189.3 482.2,240.5 493.8,269.6 C507.3,303.3 529.8,353.0 531.5,353.0 C531.9,353.0 536.3,349.2 541.4,344.5 C565.3,322.4 595.4,303.5 614.6,298.5 C635.0,293.2 653.8,302.0 683.4,330.9 C701.1,348.2 721.0,372.0 728.7,385.0 C729.7,386.7 733.3,389.9 736.8,392.2 C754.3,403.6 766.8,426.0 765.8,443.9 C765.2,454.6 761.2,461.9 750.0,473.0 C732.3,490.7 716.2,493.8 704.0,481.9 C701.7,479.6 699.2,476.3 698.4,474.4 C697.6,472.5 696.4,471.0 695.7,471.0 C695.1,471.0 691.8,469.7 688.5,468.2 C682.0,465.1 676.6,459.8 674.3,454.1 C671.9,448.5 673.0,438.8 677.0,430.1 L680.3,423.0 L674.6,415.6 C662.1,399.3 635.9,377.0 627.3,375.4 C624.7,374.9 623.0,375.5 618.8,378.0 C609.8,383.5 597.8,393.4 584.5,406.2 L571.8,418.5 L579.0,430.5 C593.5,454.5 621.1,495.0 623.0,495.0 C623.4,495.0 626.3,493.5 629.4,491.6 C636.8,487.2 643.4,485.6 652.8,486.2 C666.8,487.0 676.5,493.3 689.0,509.5 C702.8,527.3 707.3,529.8 719.5,526.2 C730.1,523.1 735.6,523.3 741.1,526.9 C743.5,528.6 746.6,531.4 748.0,533.2 C759.6,548.9 769.8,552.8 780.0,545.4 C782.2,543.8 785.4,541.5 787.1,540.2 C791.2,537.4 795.8,537.4 799.9,540.3 C801.6,541.5 804.9,543.8 807.1,545.5 C812.3,549.2 821.8,550.2 826.9,547.6 C831.9,545.0 834.1,547.6 829.5,550.6 C822.6,555.1 811.3,554.3 803.9,548.7 C797.2,543.6 794.6,542.0 792.9,542.0 C792.0,542.0 788.6,544.2 785.3,546.9 C777.3,553.2 771.9,554.7 764.1,552.5 C759.0,551.0 757.6,549.9 747.9,539.8 C737.7,529.0 737.2,528.7 732.4,528.3 C729.1,528.0 725.6,528.5 721.6,529.9 C714.0,532.6 709.7,532.5 703.5,529.6 C697.9,526.9 694.6,523.6 683.8,509.9 C671.9,494.8 661.7,489.3 647.5,490.2 C641.8,490.6 638.5,491.4 633.5,493.9 C629.8,495.7 626.6,497.8 626.3,498.6 C625.7,500.2 629.2,505.0 648.7,528.7 C690.5,579.5 727.8,615.7 779.0,655.4 C803.6,674.5 808.3,679.7 813.0,693.0 C816.3,702.3 816.6,702.5 820.5,699.2 C827.6,692.9 840.0,692.4 853.2,698.0 C870.3,705.0 886.6,716.6 904.1,734.0 C924.1,753.9 933.8,769.2 936.5,784.8 C938.1,794.5 932.8,805.0 923.8,809.7 C918.9,812.3 917.6,812.5 907.5,812.4 C898.0,812.4 895.6,812.0 889.7,809.7 C881.2,806.4 870.8,799.6 865.1,793.7 C862.7,791.1 860.3,789.3 859.9,789.6 C859.4,789.9 858.1,792.2 857.0,794.7 C853.4,803.0 844.3,815.5 836.7,822.7 C828.4,830.5 818.4,836.1 809.3,838.1 C800.5,839.9 785.3,838.7 774.8,835.4 L766.1,832.7 L757.8,840.5 C732.5,864.3 704.5,881.9 677.4,890.9 C662.6,895.9 653.1,897.4 641.5,896.7 C626.7,895.8 617.9,891.8 595.1,875.6 C581.2,865.7 555.5,845.2 540.3,831.8 C534.2,826.4 528.5,822.0 527.7,822.0 C525.7,822.0 519.1,829.6 515.7,835.8 C508.9,848.4 506.2,871.5 508.0,903.5 C509.2,926.6 508.5,934.5 504.2,942.3 C501.0,948.3 495.8,951.5 486.4,953.5 C480.0,954.9 469.6,955.2 462.5,954.3 Z M484.4,947.5 C493.2,945.6 497.4,943.2 497.8,939.7 C499.1,929.0 452.4,903.1 413.0,892.7 C403.0,890.1 399.7,889.7 387.5,889.6 C374.7,889.5 373.1,889.7 368.7,891.9 C366.0,893.2 363.6,894.9 363.3,895.6 C361.1,901.5 373.5,914.0 391.3,923.9 C405.5,931.7 427.4,940.3 444.1,944.4 C462.4,949.0 473.3,949.8 484.4,947.5 Z M502.3,928.8 C502.6,927.0 502.4,915.4 501.7,903.2 C500.5,878.9 501.5,859.4 504.6,847.0 C509.3,828.2 521.8,814.5 541.0,807.1 C553.1,802.4 572.0,799.3 572.0,801.9 C572.0,802.4 570.5,803.1 568.8,803.5 C556.4,806.1 534.5,815.1 534.5,817.5 C534.6,818.6 551.3,833.3 567.3,846.2 C574.8,852.3 577.5,854.0 579.1,853.5 C580.2,853.1 585.9,848.3 591.6,842.7 C606.8,828.1 615.6,814.4 622.2,795.0 C631.6,767.1 633.1,738.9 628.3,678.2 C622.9,608.7 625.0,574.9 637.1,538.2 L640.2,528.9 L636.5,524.2 C634.5,521.6 630.3,516.2 627.2,512.2 C624.1,508.3 621.0,505.0 620.3,505.0 C619.7,505.0 617.9,506.6 616.4,508.5 C611.4,515.1 610.7,511.3 615.6,503.7 L618.0,500.0 L610.2,489.2 C599.3,474.3 585.7,453.8 576.5,438.5 C572.2,431.4 568.3,424.9 567.7,424.2 C567.0,423.3 565.7,423.9 562.4,427.0 C558.0,431.0 556.6,431.7 555.6,430.2 C554.2,427.9 585.9,394.7 600.3,383.5 C609.1,376.6 619.4,370.2 622.9,369.3 C633.9,366.5 663.5,389.5 681.7,414.8 C686.8,421.9 686.9,421.1 681.5,433.9 C678.0,442.2 677.9,448.2 681.0,453.8 C683.7,458.7 689.5,463.0 693.6,463.3 C696.2,463.5 696.5,463.2 696.2,460.8 C695.8,456.6 697.7,457.3 705.3,464.1 C712.3,470.4 713.4,473.7 707.4,469.9 C705.5,468.7 703.7,468.0 703.4,468.3 C701.6,470.1 708.1,479.0 713.1,481.6 C720.3,485.3 730.7,482.1 742.3,472.5 C753.7,463.1 760.0,452.1 760.0,441.7 C760.0,426.8 748.7,407.6 733.2,396.1 C727.9,392.2 723.8,387.8 717.3,379.2 C693.9,348.1 662.1,317.0 644.9,308.6 C641.9,307.2 636.4,305.3 632.7,304.4 C626.3,302.8 625.3,302.8 618.2,304.3 C607.9,306.5 593.4,313.7 577.0,324.8 C559.0,336.9 544.8,348.8 525.8,367.7 C517.1,376.3 509.7,383.1 509.4,382.7 C508.6,381.9 511.0,378.1 516.2,371.9 C520.3,366.9 521.0,364.6 518.2,365.4 C512.4,367.0 509.8,367.2 510.2,365.9 C510.8,364.2 518.5,361.1 522.3,361.1 C523.8,361.0 525.3,360.3 525.6,359.5 C526.3,357.7 513.6,331.0 512.1,331.0 C510.5,331.0 505.2,348.8 502.6,363.2 C501.2,370.5 498.5,389.1 496.5,404.5 C490.5,451.5 485.7,475.0 477.0,500.5 C468.7,524.7 452.6,553.9 436.9,573.5 C428.7,583.7 410.7,601.7 400.5,609.9 C393.2,615.8 376.5,627.1 369.1,631.2 C367.4,632.1 366.0,633.4 366.0,633.9 C366.0,635.0 387.2,660.6 403.4,679.0 C422.4,700.6 443.5,723.5 461.5,741.8 C475.5,756.2 479.9,760.1 481.5,759.7 C482.6,759.4 488.0,757.3 493.5,755.0 C504.7,750.3 521.5,745.7 533.3,744.1 C543.2,742.7 555.0,742.7 555.0,744.0 C555.0,744.5 554.4,745.0 553.8,745.0 C550.4,745.0 532.2,748.2 525.2,749.9 C486.6,759.8 460.9,776.9 449.5,800.4 C443.0,813.8 438.0,834.0 436.4,853.3 L435.7,861.8 L440.1,864.5 C445.4,867.8 452.1,874.0 451.5,875.1 C451.2,875.5 447.3,873.8 442.8,871.4 C426.6,862.7 414.6,859.0 401.8,859.0 C389.2,859.0 376.8,863.9 370.0,871.6 C363.9,878.6 359.4,891.3 363.8,889.5 C371.9,885.9 376.1,885.1 385.7,885.0 C402.7,885.0 421.9,889.4 444.5,898.7 C468.1,908.4 487.2,919.4 495.9,928.4 C498.3,930.9 500.7,932.7 501.1,932.5 C501.4,932.2 502.0,930.6 502.3,928.8 Z M663.0,888.3 C678.9,885.2 700.8,875.2 720.0,862.5 C758.4,836.9 787.1,801.9 802.7,761.6 C812.6,735.9 813.5,708.3 805.0,690.5 C800.9,681.9 794.3,675.3 774.5,660.0 C743.5,636.1 723.0,618.1 696.3,591.3 C685.8,580.7 676.8,572.4 676.5,573.0 C676.2,573.5 675.4,579.4 674.8,586.1 C673.4,601.6 674.7,621.9 679.5,657.5 C684.8,697.8 686.1,711.9 686.1,733.0 C686.1,788.4 671.2,830.6 640.2,863.1 C634.7,868.8 627.7,875.3 624.7,877.5 C621.6,879.7 619.1,882.0 619.0,882.6 C619.0,884.7 631.6,889.2 640.5,890.3 C644.8,890.9 654.3,890.0 663.0,888.3 Z M621.5,874.4 C644.9,855.9 662.5,830.1 671.8,800.8 C678.7,779.3 681.4,760.4 681.4,733.5 C681.4,711.6 679.9,695.0 674.4,653.5 C669.4,616.4 668.7,585.4 672.6,569.5 C673.0,567.9 669.7,563.4 659.1,551.0 C651.3,541.9 644.6,534.4 644.1,534.2 C641.3,533.3 633.2,566.9 631.0,588.9 C629.0,609.5 630.2,648.3 634.1,689.0 C635.8,707.3 636.4,742.6 635.1,755.2 C630.7,799.7 614.7,831.8 585.6,854.6 L581.6,857.6 L587.9,862.4 C596.9,869.3 612.3,879.9 613.5,880.0 C614.0,880.0 617.6,877.5 621.5,874.4 Z M806.6,831.9 C817.1,830.0 824.6,825.7 834.0,816.1 C850.1,799.7 858.4,781.6 861.5,755.8 C862.2,750.3 863.5,749.6 864.4,754.1 C865.4,759.4 865.1,766.7 863.4,774.8 L861.8,782.5 L867.7,787.9 C880.2,799.4 893.3,806.1 905.0,806.8 C914.2,807.3 919.9,805.9 924.5,801.9 C936.5,791.3 928.5,768.4 903.4,742.1 C880.4,717.9 851.4,699.9 835.6,700.0 C830.0,700.1 824.0,703.0 820.2,707.6 C817.1,711.4 817.0,711.6 817.0,721.8 C817.0,733.2 814.5,747.6 810.4,760.0 C804.5,777.6 790.4,802.6 776.6,819.8 L771.0,826.9 L773.7,828.3 C776.1,829.6 779.0,830.3 789.5,832.4 C793.5,833.2 800.8,833.0 806.6,831.9 Z M523.5,718.4 C515.8,716.8 502.7,710.9 495.2,705.8 C484.1,698.2 475.5,687.7 471.9,677.4 C466.2,661.1 475.5,647.5 491.1,649.3 C499.9,650.4 506.6,655.5 515.4,667.7 C520.1,674.3 524.0,676.7 533.2,678.6 C542.9,680.6 548.2,683.3 552.9,688.6 C563.3,700.5 558.3,715.6 542.8,718.9 C536.5,720.3 532.1,720.2 523.5,718.4 Z M542.0,714.9 C545.3,714.2 548.2,712.7 550.5,710.5 C553.6,707.7 554.0,706.7 554.0,702.3 C554.0,693.1 545.7,685.2 533.8,683.1 C522.8,681.2 517.8,678.0 510.4,668.2 C503.1,658.4 497.9,654.4 491.5,653.5 C485.3,652.5 481.5,653.7 478.1,657.5 C466.4,670.8 482.3,696.6 510.2,709.4 C517.2,712.7 528.5,715.7 534.2,715.9 C535.7,716.0 539.2,715.5 542.0,714.9 Z M534.0,700.1 C532.4,697.0 529.6,696.7 525.0,699.1 C519.3,702.1 516.6,700.8 514.7,694.3 C513.2,689.2 511.9,688.7 506.3,690.5 C504.7,691.0 503.4,690.5 501.4,688.5 C499.0,686.1 498.8,685.4 499.4,680.4 C500.0,675.4 499.8,674.7 497.5,672.4 C495.5,670.4 494.1,669.9 491.2,670.2 C486.7,670.6 485.6,669.0 489.3,667.2 C491.3,666.2 492.9,666.2 495.9,667.0 C501.4,668.4 503.0,671.1 503.0,678.6 C503.0,685.1 504.4,687.6 507.0,686.0 C509.9,684.2 513.8,684.9 515.9,687.6 C517.1,689.1 518.0,691.0 518.0,691.9 C518.0,692.9 518.6,694.5 519.4,695.5 C520.5,697.1 521.1,697.2 522.3,696.2 C528.1,691.3 537.0,694.0 537.0,700.6 C537.0,702.6 535.2,702.3 534.0,700.1 Z M322.9,672.3 C315.2,668.5 301.5,654.4 297.2,645.9 C292.4,636.5 293.4,633.8 298.5,642.1 C303.1,649.6 318.1,665.5 325.1,670.2 C329.6,673.3 331.1,675.0 329.2,675.0 C328.8,675.0 325.9,673.8 322.9,672.3 Z M332.9,656.9 C317.4,645.9 301.0,622.4 297.5,606.2 C296.6,601.8 298.5,602.0 300.0,606.5 C303.5,617.1 323.4,644.8 334.8,655.0 C341.0,660.6 339.8,661.8 332.9,656.9 Z M720.2,654.3 C716.1,652.3 710.4,645.8 708.9,641.3 C708.0,638.5 708.1,637.5 709.5,635.3 C711.0,633.1 711.7,632.8 715.1,633.3 C725.4,634.7 735.0,649.1 729.2,654.3 C726.9,656.4 724.4,656.4 720.2,654.3 Z M727.2,649.0 C726.8,645.6 722.2,640.0 717.6,637.7 C710.2,633.8 710.1,640.2 717.6,647.6 C721.1,651.1 722.7,652.1 724.8,651.8 C727.0,651.6 727.5,651.1 727.2,649.0 Z M792.0,624.2 C786.9,615.9 767.0,596.4 757.2,589.9 C748.2,584.0 747.9,582.4 756.5,586.4 C771.3,593.1 787.3,608.7 794.9,623.7 C799.0,631.9 797.0,632.3 792.0,624.2 Z M372.1,623.9 C384.1,616.6 392.1,610.8 403.7,600.8 C439.2,570.1 464.1,530.5 477.4,483.5 C483.6,461.9 487.0,442.6 493.6,392.5 C497.7,360.5 501.5,342.7 506.6,331.1 C507.9,328.2 509.0,325.0 509.0,324.1 C509.0,322.2 495.4,290.0 494.0,288.6 C492.6,287.2 481.1,311.9 476.7,325.5 C469.9,346.4 467.7,355.9 460.1,396.2 C457.3,410.9 453.7,428.5 452.1,435.2 C439.2,489.1 419.9,526.8 389.5,557.4 C377.0,570.1 363.2,580.6 341.2,594.4 C338.4,596.1 337.2,597.5 337.7,598.3 C341.0,603.7 361.4,629.0 362.4,629.0 C363.1,629.0 367.5,626.7 372.1,623.9 Z M797.1,602.9 C793.7,597.9 780.6,585.0 778.9,585.0 C778.4,585.0 778.0,584.5 778.0,583.9 C778.0,581.9 783.3,584.0 788.6,588.0 C793.9,592.0 800.4,600.7 801.5,605.3 C802.6,609.4 800.9,608.5 797.1,602.9 Z M537.2,592.4 C528.0,587.8 523.5,578.4 524.2,565.0 C524.5,557.1 525.6,554.2 532.0,544.2 C536.4,537.3 536.5,532.1 532.6,522.5 C527.6,510.0 528.1,499.4 534.1,491.0 C539.8,483.1 551.2,480.6 559.5,485.3 C567.9,490.1 574.5,503.1 577.1,520.0 C578.7,530.7 577.7,553.5 575.2,563.1 C568.5,588.4 553.0,600.3 537.2,592.4 Z M352.2,581.9 C387.6,558.2 412.3,528.8 428.9,490.8 C440.4,464.5 445.8,445.5 455.0,398.0 C461.7,363.4 464.1,352.1 467.1,341.0 C472.5,320.9 480.1,301.4 487.4,289.0 C489.4,285.6 491.0,282.3 491.0,281.5 C491.0,280.7 489.2,275.6 487.1,270.3 C476.5,243.8 458.8,187.4 450.0,152.0 C448.3,145.1 446.5,139.1 446.1,138.7 C445.6,138.2 441.9,140.3 437.7,143.3 C416.6,158.5 374.4,181.1 347.1,191.9 C294.0,212.8 238.4,225.3 182.5,228.8 L171.5,229.5 L171.8,233.0 C172.5,243.2 180.0,275.6 188.0,303.5 C209.9,379.4 253.6,473.1 300.6,545.0 C310.2,559.8 329.8,588.1 332.3,590.7 C334.2,592.8 334.4,592.8 337.4,591.3 C339.1,590.4 345.8,586.2 352.2,581.9 Z M551.3,589.9 C556.8,588.4 562.4,582.5 566.4,573.9 C579.3,546.7 574.8,500.4 558.1,489.3 C551.6,484.9 542.6,486.7 537.7,493.2 C532.1,500.7 531.7,509.8 536.6,521.1 C538.7,525.9 539.4,529.2 539.4,534.1 C539.5,540.2 539.2,541.2 534.9,548.1 C528.9,557.9 527.6,561.9 528.2,569.4 C528.8,576.3 531.4,582.2 535.7,586.2 C540.5,590.8 544.6,591.8 551.3,589.9 Z M542.8,571.2 C536.4,563.9 538.6,554.5 546.8,553.8 C550.8,553.5 550.9,553.2 549.5,545.8 C548.8,542.3 549.0,542.0 552.4,539.9 C554.4,538.8 556.0,537.3 556.0,536.8 C556.0,536.2 554.4,534.0 552.5,531.9 C550.6,529.7 549.0,527.3 549.0,526.4 C549.0,525.5 550.4,523.2 552.1,521.3 C553.7,519.4 554.9,517.3 554.7,516.7 C554.5,516.1 552.4,514.4 549.9,513.0 C546.3,510.9 545.4,509.8 545.2,507.1 C545.0,504.7 545.5,503.1 547.1,501.4 C550.0,498.3 551.4,499.3 549.4,503.3 C547.7,506.4 547.8,506.5 550.6,508.5 C555.2,511.8 559.0,515.7 559.0,517.3 C559.0,518.2 557.9,520.2 556.5,521.8 C553.2,525.7 553.3,528.0 557.0,531.2 C561.4,535.0 561.2,539.4 556.4,542.2 C553.5,543.9 553.0,544.7 553.5,546.4 C554.9,550.3 554.6,555.2 553.0,556.0 C552.2,556.5 549.7,557.2 547.5,557.7 C543.8,558.4 543.5,558.8 543.2,562.2 C543.0,564.2 543.6,567.2 544.4,568.9 C546.2,572.3 545.1,573.9 542.8,571.2 Z M195.5,561.5 C206.1,558.7 223.2,548.9 241.5,535.2 C251.7,527.5 270.1,511.9 270.7,510.5 C270.9,509.7 267.6,502.7 263.2,494.8 C258.8,486.9 252.7,475.4 249.6,469.2 C246.5,463.1 243.5,458.0 242.9,458.0 C242.2,458.0 236.7,462.8 230.6,468.8 C224.4,474.7 216.0,482.1 211.9,485.2 C205.0,490.5 194.3,497.4 191.6,498.3 C190.9,498.6 191.1,499.7 192.3,501.8 C195.2,507.0 192.5,506.3 184.7,500.0 C174.2,491.6 164.0,480.4 156.3,468.8 C152.7,463.4 149.3,458.7 148.8,458.4 C148.3,458.0 146.4,459.2 144.6,460.9 C140.1,465.3 139.5,463.8 143.4,457.7 C148.9,449.1 152.0,442.2 154.1,434.2 C158.2,418.0 155.5,403.4 147.7,399.7 C143.1,397.5 142.5,397.5 137.4,400.5 C127.8,406.1 120.0,422.1 124.4,426.9 C129.3,432.3 136.2,431.8 144.6,425.4 C147.1,423.5 149.4,422.1 149.7,422.4 C150.0,422.7 149.1,424.8 147.6,427.0 C144.6,431.6 138.6,435.0 133.5,435.0 C131.6,435.0 130.0,435.2 130.0,435.5 C130.0,435.8 131.3,437.9 133.0,440.2 C135.8,444.0 137.1,450.0 135.2,450.0 C134.7,450.0 133.6,448.3 132.7,446.2 C129.0,438.3 123.0,434.0 124.6,440.6 C126.8,449.1 117.7,460.0 108.4,460.0 C103.7,460.0 99.2,457.0 95.4,451.3 C93.4,448.3 92.1,445.6 92.4,445.3 C92.7,445.0 95.4,446.9 98.3,449.7 C101.2,452.4 104.8,455.0 106.4,455.4 C112.4,456.9 120.0,449.7 120.0,442.5 C119.9,433.3 108.9,425.3 94.6,424.1 C90.4,423.8 87.0,423.1 87.0,422.5 C87.1,419.4 102.1,419.6 109.4,422.9 C111.8,423.9 115.5,426.4 117.7,428.4 C122.2,432.4 124.6,433.3 121.1,429.6 C117.5,425.8 117.3,420.2 120.4,413.5 C121.8,410.3 123.0,407.3 123.0,406.8 C123.0,405.1 110.6,400.1 104.8,399.4 C98.2,398.7 97.3,397.4 102.6,396.4 C108.1,395.4 114.6,396.7 121.0,400.1 L126.9,403.2 L132.4,398.4 L137.9,393.5 L134.7,390.2 C131.0,386.3 126.0,383.5 120.9,382.6 C103.9,379.5 80.1,402.5 75.9,426.0 C74.9,431.9 74.9,434.2 76.3,441.1 C78.3,451.4 84.2,463.6 90.9,471.5 C93.7,474.8 99.4,482.7 103.6,489.0 C129.6,528.1 157.2,554.5 179.5,561.6 C184.9,563.3 188.5,563.3 195.5,561.5 Z M301.8,518.2 C299.1,515.5 297.0,511.1 297.0,508.4 C297.0,506.5 300.6,503.0 302.6,503.0 C303.5,503.0 306.0,504.7 308.1,506.9 C311.3,510.1 312.0,511.5 312.0,514.7 C312.0,516.8 311.5,519.1 310.8,519.8 C308.7,521.9 304.5,521.2 301.8,518.2 Z M308.8,515.3 C309.2,512.7 303.8,506.4 302.2,507.4 C300.2,508.6 300.8,511.7 303.6,515.0 C306.5,518.4 308.3,518.5 308.8,515.3 Z M285.4,486.0 C282.0,484.7 276.2,477.1 274.0,471.3 C271.4,464.2 271.4,458.0 274.1,454.6 C278.7,448.8 287.4,452.9 292.4,463.3 C299.8,478.4 296.1,490.3 285.4,486.0 Z M292.1,480.8 C294.7,475.9 287.9,459.6 281.9,456.5 C277.7,454.3 276.0,455.8 276.0,462.1 C276.0,467.9 278.9,474.7 283.5,479.6 C287.2,483.5 290.4,484.0 292.1,480.8 Z M301.2,389.0 C297.2,387.3 298.9,386.3 306.4,385.8 C313.6,385.3 322.6,382.0 328.7,377.5 C330.2,376.3 331.0,376.2 331.5,377.0 C332.6,378.8 323.8,386.6 318.4,388.4 C313.3,390.1 304.9,390.4 301.2,389.0 Z M278.3,370.0 C266.5,366.9 258.0,361.8 252.8,354.6 C249.0,349.3 248.8,341.5 252.5,338.0 C254.7,335.9 256.3,335.6 268.2,334.9 C283.0,334.1 291.0,332.0 302.5,326.3 C311.7,321.6 320.2,315.5 327.7,308.0 L333.9,301.9 L333.3,297.0 C332.6,290.9 334.1,290.4 336.9,295.8 C340.3,302.5 346.4,306.0 354.5,306.0 C361.5,306.0 360.5,308.5 353.0,309.8 L348.9,310.5 L348.5,317.9 C347.5,333.6 342.7,345.0 332.4,356.0 C319.0,370.1 298.8,375.4 278.3,370.0 Z M291.0,361.1 C298.4,346.3 315.5,333.2 334.0,328.1 C338.1,326.9 341.8,325.6 342.3,325.1 C342.7,324.7 343.4,320.9 343.7,316.9 L344.2,309.5 L341.0,307.2 L337.8,304.8 L329.7,312.7 C320.5,321.7 315.6,325.2 305.5,330.2 C292.8,336.6 283.0,339.2 269.0,339.7 C262.1,340.0 255.9,340.7 255.2,341.2 C254.6,341.8 254.0,343.3 254.0,344.7 C254.0,352.2 263.7,360.5 278.0,365.1 C286.9,368.0 287.6,367.8 291.0,361.1 Z M306.7,365.6 C315.4,363.3 321.2,359.9 327.6,353.5 C334.3,346.9 342.0,333.6 340.2,331.8 C338.7,330.3 327.0,334.4 318.8,339.2 C315.1,341.3 309.5,345.5 306.3,348.4 C300.6,353.8 292.6,365.2 293.7,366.4 C294.8,367.4 301.3,367.0 306.7,365.6 Z M267.5,316.7 C261.3,313.8 258.4,308.1 260.0,301.9 C261.2,297.6 264.1,295.1 269.3,294.1 L272.5,293.4 L272.5,286.2 C272.5,282.2 272.9,279.0 273.5,278.9 C274.9,278.7 277.9,287.7 278.0,292.0 C278.0,296.6 276.5,298.0 271.9,298.0 C269.0,298.0 267.6,298.6 266.1,300.6 C263.3,304.2 263.5,306.4 266.9,310.2 C269.8,313.4 270.0,313.5 277.9,313.4 C282.4,313.3 286.0,313.6 286.0,314.0 C286.0,316.8 272.2,318.8 267.5,316.7 Z M223.9,294.1 C217.9,287.8 214.9,280.2 214.2,269.2 C213.9,262.9 214.2,259.9 215.5,256.5 C220.0,244.6 231.2,245.3 238.8,258.0 C243.2,265.4 245.0,271.9 245.0,280.4 C244.9,292.4 240.6,299.0 232.6,299.0 C229.2,299.0 228.0,298.3 223.9,294.1 Z M328.6,279.2 C328.4,278.8 328.8,277.4 329.5,276.0 C330.7,273.7 330.5,273.3 325.6,268.5 C313.1,256.5 309.2,233.4 318.1,223.9 C320.8,221.0 321.5,220.8 325.6,221.3 C336.2,222.5 346.0,239.3 346.0,256.3 C346.0,261.3 346.2,262.1 347.6,261.6 C348.5,261.3 350.9,260.7 353.1,260.4 C358.3,259.5 358.5,262.1 353.2,263.9 C347.4,266.0 338.9,271.4 334.5,275.9 C330.6,280.0 329.5,280.6 328.6,279.2 Z M452.8,262.3 C449.0,257.9 447.7,250.3 450.0,245.9 C451.5,243.3 456.1,243.4 458.8,246.2 C461.9,249.7 463.5,257.1 461.8,260.7 C460.2,264.2 455.2,265.1 452.8,262.3 Z M458.8,256.7 C459.2,252.2 456.5,246.7 454.2,247.2 C451.9,247.7 452.0,254.9 454.4,258.5 C456.7,261.9 458.4,261.2 458.8,256.7 Z M525.0,250.0 C525.0,248.4 533.9,242.4 542.6,238.0 C553.9,232.3 567.9,229.0 580.6,228.9 C586.2,228.8 591.7,229.1 592.9,229.5 C597.2,230.8 594.8,232.0 587.5,232.0 C572.3,232.0 550.4,238.0 534.1,246.6 C524.9,251.4 525.0,251.4 525.0,250.0 Z M196.5,223.0 C209.7,221.8 230.6,218.8 248.8,215.4 C310.6,204.1 374.6,178.7 426.0,145.2 C448.4,130.6 451.0,127.8 451.0,118.1 C450.9,106.2 444.2,88.0 439.7,88.0 C439.2,88.0 436.6,90.0 433.9,92.4 C427.7,98.0 411.5,109.0 398.6,116.4 C335.0,153.0 248.4,178.1 169.5,182.8 C158.1,183.5 157.5,183.6 156.3,186.0 C154.6,189.4 154.7,198.5 156.6,207.8 C158.4,216.6 160.6,221.0 164.1,222.7 C167.0,224.2 181.5,224.4 196.5,223.0 Z M437.1,220.3 C431.4,213.4 428.6,200.4 431.3,193.8 C436.3,181.9 450.0,194.8 450.4,211.7 C450.5,220.5 448.6,224.0 443.5,224.0 C440.8,224.0 439.5,223.2 437.1,220.3 Z M446.0,218.1 C448.5,213.3 445.8,201.0 441.0,195.7 C437.2,191.5 434.6,192.7 434.2,199.1 C433.3,210.5 442.3,224.9 446.0,218.1 Z M528.5,213.5 C532.1,210.5 544.3,205.1 552.5,202.9 C563.3,200.0 582.4,199.8 593.0,202.4 C601.3,204.4 617.0,211.4 617.0,213.1 C617.0,213.8 616.3,213.9 615.2,213.5 C591.0,203.3 565.4,202.3 541.5,210.6 C536.0,212.5 530.4,214.3 529.0,214.6 C526.5,215.1 526.5,215.1 528.5,213.5 Z M200.0,175.4 C258.3,168.7 329.4,147.2 380.7,120.5 C407.4,106.6 432.0,90.1 432.0,86.0 C432.0,83.3 427.3,68.8 425.7,66.6 C424.4,64.9 424.2,65.1 421.7,69.3 C411.6,86.5 368.7,111.1 315.6,130.1 C291.7,138.7 253.6,148.3 226.5,152.6 C212.5,154.8 186.3,155.0 180.6,152.9 C175.1,150.9 174.4,148.6 179.6,149.7 C186.2,151.1 212.8,150.4 224.5,148.6 C270.3,141.6 331.5,122.0 369.0,102.2 C400.3,85.8 420.0,70.2 420.0,61.9 C420.0,58.5 416.8,55.8 409.7,53.3 C401.8,50.6 374.9,50.8 357.5,53.9 C292.4,65.1 212.8,100.2 179.2,132.4 C167.0,144.0 163.0,152.9 163.0,167.9 C163.0,172.7 163.3,177.0 163.8,177.5 C164.7,178.4 182.3,177.4 200.0,175.4 Z" fill="#000000" fill-rule="evenodd"/></g><path class="bubble" d="M104,24 L738,24 A34,34 0 0 1 772,58 L772,213 A34,34 0 0 1 738,247 L275,247 L316,317 L200,247 L104,247 A34,34 0 0 1 70,213 L70,58 A34,34 0 0 1 104,24 Z" fill="#fff" stroke="#000" stroke-width="5" stroke-linejoin="round"/><g id="labels-en" class="labellayer" style="display:inline"><text font-family="Baloo 2, Comic Sans MS, system-ui, sans-serif" font-weight="700" text-anchor="middle" font-size="46" fill="#000"><tspan x="421" y="98">I&#x27;m the all-rounder —</tspan><tspan x="421" y="153">fast AND ready for</tspan><tspan x="421" y="207">more!</tspan></text></g><g id="labels-de" class="labellayer" style="display:none"><text font-family="Baloo 2, Comic Sans MS, system-ui, sans-serif" font-weight="700" text-anchor="middle" font-size="46" fill="#000"><tspan x="421" y="98">Ich bin das</tspan><tspan x="421" y="153">Allround-Talent —</tspan><tspan x="421" y="207">schnell UND ausdauernd!</tspan></text></g></svg>