<svg xmlns="http://www.w3.org/2000/svg" viewBox="0 0 1080 1527" width="1080" height="1527" role="img" aria-label="Coloring page of ige"><rect x="0" y="0" width="1080" height="1527" fill="#ffffff"/><g transform="translate(0,190)"><path class="artwork" d="M896.0,1020.9 C874.7,1018.9 851.1,1008.8 829.6,992.7 C810.2,978.1 808.0,971.3 822.0,969.5 C830.2,968.4 838.7,965.6 856.6,958.0 C865.5,954.2 874.6,950.7 876.8,950.0 C881.6,948.8 881.9,948.1 878.9,945.4 C877.7,944.4 875.4,940.8 873.7,937.5 C871.1,932.3 870.6,930.2 870.2,921.9 C869.7,910.5 870.9,904.2 875.5,893.5 C877.5,889.1 879.3,883.8 879.7,881.7 C880.3,878.0 880.0,877.6 874.9,873.2 C861.0,861.0 857.5,855.4 857.6,845.5 C857.7,825.1 880.5,810.4 901.8,816.9 C917.7,821.7 927.1,833.2 930.0,851.4 C931.8,862.7 929.7,871.5 919.4,896.4 C914.7,907.8 914.3,914.5 918.0,918.5 C921.5,922.2 923.5,922.8 933.6,923.1 L942.5,923.3 L942.6,910.9 C942.7,897.7 943.6,891.6 947.7,878.0 C954.7,854.2 973.4,830.2 999.0,811.9 C1007.5,805.8 1021.7,798.0 1024.3,798.0 C1026.6,798.0 1029.2,801.7 1028.6,803.8 C1028.2,804.9 1027.5,809.4 1027.0,813.9 C1025.9,824.0 1026.9,833.1 1031.5,854.0 C1036.4,876.5 1037.3,884.4 1036.8,899.3 C1035.9,923.4 1029.3,940.7 1011.4,966.7 C1001.5,980.9 995.0,995.0 995.0,1002.1 C995.0,1006.9 992.1,1008.3 983.8,1007.5 C974.6,1006.6 967.5,1007.9 949.0,1013.5 C925.5,1020.7 912.7,1022.5 896.0,1020.9 Z M346.7,1016.0 C338.9,1014.0 331.8,1008.7 327.5,1001.7 C326.8,1000.5 322.8,999.5 312.0,998.0 C304.0,996.8 289.5,994.3 279.7,992.4 L262.0,988.9 L258.2,991.9 C251.7,997.2 245.4,999.3 236.8,999.4 C230.0,999.4 228.3,999.0 221.6,995.7 C211.7,990.8 206.8,984.7 204.5,974.5 L203.4,969.6 L188.4,962.0 C180.2,957.9 169.8,952.1 165.3,949.2 L157.2,943.9 L152.5,945.1 C141.2,947.9 128.6,944.0 121.1,935.3 C115.6,928.8 113.6,922.6 114.3,913.7 C114.7,907.0 114.6,906.6 111.6,903.1 C106.7,897.6 99.8,888.3 94.6,880.2 C90.0,873.1 89.8,873.0 85.7,873.0 C76.0,873.0 64.2,863.6 60.1,852.7 C56.2,842.2 57.8,829.5 64.0,821.8 L67.1,818.0 L64.5,806.1 C63.0,799.6 61.3,789.5 60.7,783.6 L59.5,773.0 L54.6,769.2 C51.7,767.1 48.4,763.2 46.6,760.1 C44.1,755.4 43.5,753.3 43.2,745.9 C42.5,731.7 46.9,722.2 57.4,715.6 C62.6,712.2 62.7,712.2 63.9,704.8 C65.6,695.4 71.3,672.8 74.7,662.4 L77.3,654.3 L75.3,651.4 C67.2,640.0 68.7,622.6 78.7,611.8 C84.5,605.7 90.1,603.0 97.1,603.0 L102.6,603.0 L108.3,594.8 C111.5,590.2 115.4,584.6 117.1,582.3 C120.0,578.4 120.1,578.0 119.0,574.5 C115.6,564.1 122.6,549.8 133.6,544.5 C137.6,542.6 145.2,542.0 150.6,543.2 C153.3,543.8 154.5,543.3 160.3,538.4 L167.0,532.8 L167.0,527.2 C167.0,512.1 179.5,499.4 195.3,498.2 C201.5,497.8 202.6,498.0 208.5,501.0 C214.3,504.0 215.2,504.1 217.9,503.0 C223.3,500.8 223.4,500.1 219.6,487.8 C207.9,449.0 204.5,400.4 210.6,358.5 C227.2,243.8 302.0,138.1 400.5,90.0 C443.0,69.2 481.5,59.8 524.5,59.9 C574.2,59.9 617.0,74.6 649.2,102.6 C686.8,135.4 702.5,193.0 686.9,241.6 C680.2,262.8 669.7,279.2 652.7,295.7 C634.4,313.4 610.8,325.8 585.5,331.0 C551.5,338.1 516.7,335.8 483.5,324.3 C474.2,321.1 456.9,313.0 448.9,308.1 C440.2,302.8 421.4,308.9 408.3,321.4 L401.6,327.7 L407.7,341.1 C415.5,358.2 418.7,367.6 420.7,379.8 C422.6,391.5 421.9,400.8 418.7,407.2 C416.1,412.3 409.5,417.5 403.7,419.1 C398.5,420.5 383.3,419.7 376.6,417.6 C373.9,416.8 371.3,416.3 370.8,416.6 C367.9,418.4 372.2,452.9 376.9,465.2 C378.3,468.9 382.3,469.0 384.6,465.5 C385.5,464.1 388.3,461.7 390.7,460.3 C399.5,455.2 412.3,457.9 417.7,466.1 C421.4,471.7 424.6,471.5 430.7,465.1 C439.3,456.2 451.9,454.7 464.7,461.0 C471.7,464.4 475.2,468.4 478.0,475.7 C479.6,480.1 480.2,480.6 485.1,482.2 L490.4,484.0 L495.7,481.4 C500.2,479.1 502.0,478.8 506.9,479.3 C517.4,480.2 524.0,485.1 527.0,494.2 C528.8,499.4 528.9,499.6 538.6,504.8 C544.1,507.8 552.4,512.6 557.1,515.6 C561.8,518.6 566.0,521.0 566.4,521.0 C566.8,521.0 568.7,519.8 570.5,518.4 L573.9,515.9 L564.2,506.2 C553.3,495.3 548.3,487.5 544.3,475.5 C540.6,464.2 540.4,447.0 543.8,436.0 C548.3,421.6 557.4,408.9 568.3,401.7 C590.4,387.2 616.7,389.5 634.0,407.6 C641.2,415.1 646.0,424.6 649.7,438.9 C653.8,455.0 653.1,479.5 647.9,499.0 C645.5,507.9 643.5,505.7 665.0,517.9 C690.2,532.1 699.9,539.1 716.5,554.9 C736.8,574.2 751.3,593.8 767.1,622.8 C770.3,628.8 770.9,629.3 778.6,632.9 C804.4,645.1 815.1,659.9 813.2,681.1 L812.8,686.7 L821.0,696.6 C825.5,702.0 831.7,709.5 834.8,713.2 C838.0,716.9 841.3,721.9 842.2,724.2 C845.5,732.1 842.6,740.1 835.4,743.5 C825.9,748.0 811.3,740.8 799.8,726.1 C797.0,722.5 794.3,719.1 793.8,718.6 C793.4,718.0 792.3,718.3 791.2,719.3 C785.6,724.4 774.3,725.5 766.9,721.7 C764.5,720.5 761.5,718.8 760.4,718.0 C758.5,716.9 757.8,716.9 754.7,718.3 C747.6,721.7 738.0,719.5 734.9,713.9 C734.1,712.3 733.9,708.9 734.3,703.2 C734.9,695.1 734.7,694.3 731.5,686.5 C725.6,672.2 726.0,664.4 733.3,650.7 L736.4,644.8 L732.6,637.2 C718.8,609.1 693.2,580.8 664.1,561.5 C653.3,554.4 633.7,543.0 632.2,543.0 C631.7,543.0 628.5,547.7 625.1,553.4 L618.9,563.9 L628.2,574.7 C633.3,580.6 639.2,587.9 641.3,590.8 L645.2,596.0 L650.8,596.0 C672.0,596.1 685.9,621.5 675.9,641.6 L673.7,645.9 L676.0,652.2 C678.8,659.7 680.2,661.6 683.8,662.3 C691.6,663.9 699.7,674.4 700.7,684.4 C701.4,690.9 699.0,698.8 695.0,703.4 L692.2,706.5 L693.9,715.9 L695.5,725.3 L700.0,727.7 C706.0,730.9 709.5,734.4 712.0,739.7 C715.3,746.7 716.3,754.0 715.0,761.2 C713.1,771.2 710.0,775.8 699.7,783.5 C697.5,785.1 696.9,786.6 696.4,791.2 C695.7,796.8 695.8,797.0 699.8,801.5 C712.2,815.6 707.8,838.8 691.3,846.5 C688.1,848.0 684.9,849.5 684.2,849.8 C683.5,850.2 680.9,855.1 678.6,860.7 C676.2,866.3 672.2,874.5 669.6,878.8 L665.0,886.7 L666.6,890.5 C668.8,895.7 668.8,905.4 666.6,911.8 C664.3,918.5 656.6,927.0 649.8,930.4 C644.2,933.2 634.6,933.9 629.4,932.0 C627.0,931.1 626.1,931.5 620.0,936.4 C611.5,943.3 596.1,953.4 584.6,959.7 L575.6,964.5 L574.5,969.8 C571.2,984.3 557.4,995.0 542.1,995.0 C534.1,995.0 529.2,993.1 520.5,986.6 C519.7,986.0 514.7,986.7 506.4,988.8 C472.9,996.8 445.7,1000.4 405.0,1002.1 L377.5,1003.3 L374.1,1007.2 C367.9,1014.5 356.0,1018.3 346.7,1016.0 Z M931.5,1008.2 C937.6,1006.6 947.7,1003.9 954.0,1002.2 C960.3,1000.4 966.7,998.8 968.2,998.5 C969.8,998.2 971.0,997.6 971.0,997.1 C971.0,996.0 959.3,990.8 951.0,988.1 C934.4,982.9 920.2,981.0 896.4,981.0 C886.3,981.0 878.0,980.6 878.0,980.1 C878.0,977.2 910.9,975.1 926.9,976.9 C939.5,978.4 954.5,982.1 964.2,986.1 C968.1,987.7 971.6,988.8 971.8,988.5 C972.6,987.7 965.5,980.6 957.0,973.8 C948.3,966.7 936.8,960.9 925.5,957.9 C919.4,956.2 914.6,955.7 905.0,955.7 C889.3,955.7 883.1,957.3 859.2,967.4 C849.5,971.5 838.7,975.6 835.2,976.6 C831.8,977.5 829.0,978.7 829.0,979.2 C829.0,980.2 841.7,989.6 850.3,995.1 C861.6,1002.1 882.8,1009.7 896.0,1011.4 C904.7,1012.5 920.7,1011.0 931.5,1008.2 Z M361.8,1006.0 C367.9,1003.2 367.1,1002.0 359.2,1002.0 C355.5,1002.0 349.4,1001.7 345.6,1001.3 C337.4,1000.6 336.9,1002.1 344.0,1005.8 C349.5,1008.5 356.0,1008.6 361.8,1006.0 Z M245.1,987.8 C247.3,987.2 249.0,986.3 249.0,985.9 C249.0,985.5 246.4,984.4 243.2,983.5 C240.1,982.7 232.5,980.2 226.3,978.0 C220.2,975.9 214.9,974.4 214.6,974.7 C214.3,975.0 215.4,977.2 217.0,979.5 C222.6,987.6 234.4,991.1 245.1,987.8 Z M409.5,988.0 C455.0,985.7 486.3,980.7 522.0,969.9 C568.6,955.9 600.0,938.2 627.5,910.6 C643.5,894.5 651.8,883.0 661.5,863.5 C677.6,831.1 683.5,803.9 683.4,763.0 C683.3,717.0 674.6,679.2 655.0,639.5 C644.4,618.0 626.1,591.1 614.2,579.7 L610.3,575.9 L602.5,584.7 C592.4,596.2 577.0,610.5 566.7,618.1 C562.2,621.5 558.4,624.6 558.2,625.0 C558.1,625.4 559.7,626.0 562.0,626.4 C568.2,627.4 576.2,630.7 580.0,633.9 C581.9,635.5 583.3,637.0 583.0,637.3 C582.7,637.6 579.2,637.0 575.2,636.0 C565.0,633.3 554.7,632.6 547.0,634.0 C540.5,635.1 518.0,644.7 518.0,646.3 C518.0,646.8 519.0,647.5 520.2,647.8 C521.5,648.1 526.0,650.1 530.3,652.3 C538.3,656.3 549.7,666.1 548.5,668.0 C548.1,668.6 545.6,667.8 541.9,666.0 C520.3,655.1 501.9,651.9 482.0,655.8 C467.2,658.7 465.3,659.0 453.9,660.0 C448.4,660.4 443.6,661.0 443.4,661.3 C443.1,661.5 445.4,665.1 448.5,669.1 C455.5,678.4 459.7,686.7 458.2,688.2 C457.4,689.0 453.2,685.4 443.3,675.3 C405.7,637.3 362.7,616.5 310.2,610.9 C299.2,609.8 272.3,610.1 260.2,611.6 C253.8,612.4 253.3,610.9 259.0,608.0 C263.5,605.7 277.9,602.0 282.5,602.0 C289.1,601.9 289.0,600.5 281.5,593.1 C274.9,586.7 273.9,586.1 264.9,583.2 C256.0,580.3 238.4,577.8 231.0,578.3 C225.8,578.7 228.1,576.4 234.7,574.7 C240.0,573.3 243.9,573.0 252.2,573.3 C258.2,573.6 263.0,573.4 263.0,573.0 C263.0,572.5 261.9,570.9 260.6,569.3 C255.0,562.6 241.4,540.5 235.4,528.3 C231.8,521.0 228.5,514.8 228.0,514.5 C224.9,512.6 190.7,532.4 172.0,546.9 C115.8,590.4 80.6,657.6 74.0,734.0 C69.1,790.6 83.6,843.6 115.5,885.8 C131.2,906.7 159.2,930.6 184.0,944.2 C230.2,969.7 291.6,985.0 360.0,987.9 C386.0,989.1 387.8,989.1 409.5,988.0 Z M990.9,981.2 C992.2,978.6 997.6,969.7 1003.1,961.4 C1014.5,943.9 1021.1,930.9 1024.2,919.5 C1026.0,912.8 1026.4,908.8 1026.4,894.5 C1026.4,878.2 1026.3,876.7 1022.1,857.5 C1018.8,842.2 1017.7,834.5 1017.3,824.8 C1017.0,817.7 1016.5,812.0 1016.2,812.0 C1015.4,812.0 1003.8,820.1 997.4,825.1 C988.8,831.9 975.1,846.5 969.6,854.8 C958.7,871.2 952.0,892.0 952.0,909.6 C952.0,922.4 956.5,940.1 963.9,956.4 C967.5,964.2 976.9,979.0 978.3,979.0 C978.9,979.0 979.0,977.0 978.6,974.2 C973.1,935.3 978.5,892.7 993.1,860.5 C996.6,852.6 996.4,856.7 992.6,870.7 C985.6,895.9 983.0,914.5 983.0,939.0 C983.0,956.5 986.1,986.0 987.9,986.0 C988.3,986.0 989.6,983.9 990.9,981.2 Z M552.9,982.4 C558.5,979.6 564.8,972.4 563.1,970.7 C562.6,970.2 560.7,970.6 558.4,971.8 C556.2,972.9 549.8,975.4 544.0,977.5 C538.2,979.6 533.3,981.5 533.0,981.7 C532.7,982.0 533.4,982.8 534.4,983.6 C537.7,986.0 546.8,985.4 552.9,982.4 Z M460.3,966.0 C455.1,963.7 452.1,958.5 453.6,954.3 C454.7,951.0 457.0,950.1 457.0,952.9 C457.0,956.6 461.1,960.1 466.2,960.7 C472.3,961.4 477.2,959.6 481.0,955.4 C484.3,951.6 484.9,948.0 482.5,946.0 C481.7,945.3 481.3,944.4 481.6,943.9 C482.7,942.1 485.9,943.1 488.0,945.8 C491.4,950.0 490.3,956.1 485.4,961.1 C478.9,967.7 468.5,969.8 460.3,966.0 Z M284.0,961.5 C275.1,958.6 268.0,950.2 268.0,942.4 C268.0,939.6 268.8,938.0 271.4,935.4 C275.4,931.4 277.6,930.9 276.5,934.2 C276.1,935.5 275.5,938.3 275.3,940.6 C274.9,943.9 275.3,945.2 277.4,947.7 C283.3,954.7 295.5,957.2 302.1,952.7 C304.9,950.8 305.6,949.7 305.8,946.2 C306.1,941.8 307.0,941.0 308.9,943.4 C311.0,945.9 311.3,951.5 309.6,954.7 C306.1,961.6 294.0,964.8 284.0,961.5 Z M952.3,955.7 C951.5,954.0 947.6,941.8 945.4,934.2 C945.2,933.6 944.0,933.0 942.8,933.0 C940.6,933.0 940.5,933.4 940.3,940.2 C940.3,944.2 940.0,948.5 939.8,949.6 C939.6,951.4 940.7,952.4 946.0,955.2 C949.6,957.1 952.7,958.5 952.9,958.3 C953.1,958.1 952.9,957.0 952.3,955.7 Z M380.5,950.5 C378.3,949.7 374.8,947.3 372.8,945.1 C368.3,940.3 367.8,936.0 371.3,930.9 C373.6,927.5 376.9,926.2 376.1,929.0 C374.5,934.8 374.9,938.0 377.5,940.4 C380.9,943.5 388.5,945.4 394.4,944.5 C407.4,942.5 411.1,931.3 400.5,926.3 C393.6,923.0 398.1,920.3 405.4,923.4 C411.9,926.1 414.9,935.4 411.5,942.0 C409.7,945.5 404.8,949.3 400.1,950.9 C395.5,952.4 385.4,952.2 380.5,950.5 Z M935.0,948.0 C936.6,944.9 937.3,937.5 936.2,935.3 C935.3,933.7 933.6,933.1 928.6,932.6 C925.0,932.2 921.4,931.7 920.6,931.4 C919.6,931.0 918.5,932.2 917.2,935.2 C916.1,937.6 914.1,940.6 912.6,941.9 C909.2,945.1 909.3,946.0 913.2,946.1 C915.0,946.1 920.1,947.0 924.5,947.9 C928.9,948.9 932.8,949.8 933.2,949.9 C933.6,949.9 934.4,949.1 935.0,948.0 Z M901.1,943.9 C906.4,942.1 910.9,938.2 913.2,933.5 L915.3,929.1 L911.9,925.2 C910.0,923.1 908.0,920.6 907.5,919.7 C906.6,918.1 906.1,918.1 901.5,919.6 C895.7,921.4 889.4,920.8 883.8,917.9 C881.8,916.9 879.8,916.0 879.5,916.0 C878.4,916.0 879.1,925.9 880.5,930.9 C881.6,934.3 883.5,937.6 886.4,940.5 C891.0,945.4 894.3,946.1 901.1,943.9 Z M147.0,937.2 C147.0,936.8 144.9,934.8 142.2,932.9 C139.6,930.9 134.2,926.3 130.3,922.6 C121.9,914.8 120.2,915.3 124.3,924.3 C126.8,929.9 130.9,933.8 137.0,936.4 C140.7,938.0 147.0,938.5 147.0,937.2 Z M551.3,932.4 C548.2,929.3 549.4,927.1 553.0,929.0 C554.8,929.9 556.2,930.0 559.1,929.1 C562.9,928.0 569.0,922.1 569.0,919.5 C569.0,918.8 569.5,916.9 570.1,915.3 L571.2,912.5 L573.1,914.9 C575.5,917.8 575.5,920.4 573.1,925.7 C569.3,934.1 556.8,937.9 551.3,932.4 Z M502.9,925.7 C498.3,922.6 497.2,918.3 499.6,913.3 C501.5,909.6 506.2,905.9 507.6,907.2 C507.9,907.6 507.3,909.1 506.1,910.6 C503.8,913.6 503.3,917.9 505.2,919.8 C507.1,921.7 514.1,921.2 517.4,919.1 C524.8,914.2 524.5,907.4 516.8,905.5 C515.2,905.1 514.0,904.4 514.0,904.0 C514.0,902.9 519.1,902.1 522.3,902.7 C528.1,903.8 530.8,911.6 527.6,917.8 C523.0,926.7 510.4,930.8 502.9,925.7 Z M645.8,921.3 C651.3,918.7 656.7,911.6 658.0,905.3 C659.8,896.9 658.2,896.9 651.2,905.2 C647.8,909.2 643.1,914.8 640.6,917.5 C638.1,920.2 636.1,922.9 636.0,923.3 C636.0,924.4 641.6,923.2 645.8,921.3 Z M215.5,920.8 C209.1,918.5 203.0,911.2 203.0,905.8 C203.0,902.3 207.2,897.4 210.9,896.7 C217.1,895.4 226.2,900.0 230.1,906.4 C236.0,916.0 227.0,924.9 215.5,920.8 Z M225.0,914.2 C227.1,912.5 227.1,912.3 225.6,908.7 C222.6,901.3 210.0,898.6 209.2,905.1 C208.8,908.2 211.8,912.2 216.2,914.3 C220.5,916.4 222.3,916.4 225.0,914.2 Z M901.9,914.6 C905.2,913.4 905.4,913.0 906.6,906.4 C907.2,902.6 908.6,897.6 909.5,895.2 C910.5,892.8 911.0,890.7 910.8,890.5 C910.5,890.2 908.9,890.5 907.1,891.1 C904.3,892.1 899.5,892.0 889.0,890.8 C886.7,890.5 886.2,891.2 883.3,899.0 C881.5,903.7 880.1,908.3 880.0,909.2 C880.0,910.9 884.0,913.6 889.0,915.1 C892.7,916.2 898.1,916.0 901.9,914.6 Z M329.4,911.1 C325.4,908.6 323.0,905.3 323.0,901.9 C323.0,897.7 324.1,897.8 328.4,902.4 C333.3,907.7 338.6,909.0 344.4,906.6 C347.8,905.2 348.1,905.2 348.7,906.7 C349.1,907.7 348.4,909.1 346.6,910.7 C343.0,913.7 334.1,913.9 329.4,911.1 Z M155.2,902.4 C140.0,894.8 135.3,874.1 147.4,868.2 C150.3,866.8 155.0,867.3 155.0,869.0 C155.0,869.6 153.9,870.5 152.6,871.0 C145.9,873.5 146.5,884.4 153.9,892.3 C159.8,898.7 166.5,899.8 171.0,895.0 C174.8,890.9 176.5,893.5 173.8,899.5 C171.2,905.3 163.4,906.5 155.2,902.4 Z M588.3,885.9 C583.7,883.0 581.4,875.5 584.5,873.0 C585.7,872.0 586.2,872.4 587.4,875.3 C590.0,881.8 595.9,882.7 603.3,878.1 C609.8,873.9 613.3,868.3 613.8,861.0 C614.2,855.7 614.0,854.9 611.7,852.6 C610.2,851.2 608.2,850.0 607.0,850.0 C603.7,850.0 604.7,847.2 608.3,846.5 C612.7,845.6 616.3,847.2 619.1,851.2 C622.4,855.7 622.4,865.6 619.2,871.7 C612.2,885.1 597.5,891.8 588.3,885.9 Z M910.7,884.9 C915.1,882.7 915.7,882.0 917.7,876.2 C922.3,863.3 922.4,851.2 917.9,841.1 C915.1,834.8 911.6,831.3 904.7,828.0 C897.5,824.5 890.6,823.5 885.1,825.0 C881.2,826.0 879.4,828.0 882.5,828.0 C884.3,828.0 886.0,831.1 886.0,834.5 C886.0,837.4 881.1,843.0 878.6,843.0 C875.6,843.0 873.0,839.2 873.0,834.8 L872.9,830.5 L870.5,833.4 C865.6,839.4 865.0,849.8 869.4,853.9 C875.8,859.9 893.0,861.8 893.0,856.5 C893.0,854.2 896.7,854.7 898.4,857.2 C901.1,861.0 900.2,866.2 897.3,863.8 C896.3,863.0 895.0,863.0 892.1,863.9 C890.0,864.5 886.4,865.0 884.0,865.0 L879.8,865.0 L883.8,868.9 C887.8,872.8 888.5,874.7 889.2,882.5 C889.5,885.0 890.1,885.6 893.5,886.7 C898.9,888.4 904.9,887.7 910.7,884.9 Z M215.4,868.1 C205.3,862.2 198.5,849.9 200.5,841.0 C202.0,834.3 209.6,828.8 215.0,830.5 C217.9,831.4 217.5,832.8 213.6,834.4 C209.1,836.3 207.7,839.2 208.2,845.1 C209.1,854.3 217.3,862.9 225.8,863.8 C230.9,864.2 232.4,863.3 235.1,857.6 C237.2,853.3 238.5,853.9 238.8,859.2 C239.1,863.2 238.7,864.3 236.2,867.1 C233.6,870.1 232.6,870.4 226.9,870.7 C221.2,871.1 219.9,870.7 215.4,868.1 Z M80.6,854.6 C78.8,850.6 76.0,843.7 74.4,839.2 C70.5,828.0 68.0,828.6 68.0,840.6 C68.0,847.4 72.1,855.4 77.8,859.7 C80.2,861.5 82.6,862.8 83.0,862.5 C83.5,862.2 82.4,858.7 80.6,854.6 Z M894.2,848.7 C891.6,846.0 891.4,843.0 893.5,839.1 C895.1,835.9 896.8,835.0 901.0,835.0 C904.7,835.0 907.0,838.2 907.0,843.1 C907.0,850.0 898.7,853.6 894.2,848.7 Z M157.3,846.0 C155.5,845.0 152.8,842.2 151.3,839.9 C148.9,836.3 148.5,834.6 148.5,828.9 C148.5,823.1 148.9,821.8 150.9,819.6 C154.6,815.7 160.7,816.0 165.5,820.2 C174.2,827.8 176.5,841.8 169.7,846.5 C166.7,848.6 161.1,848.4 157.3,846.0 Z M642.7,843.0 C638.8,839.9 639.1,838.0 643.5,838.7 C649.7,839.7 655.0,832.9 655.0,824.0 C655.0,819.9 654.5,818.4 652.5,816.4 C649.4,813.3 649.3,812.0 652.3,812.0 C657.6,812.0 662.0,818.3 662.0,825.8 C662.0,830.5 657.5,839.7 654.0,842.2 C649.8,845.2 645.8,845.5 642.7,843.0 Z M904.6,841.9 C905.6,840.2 902.3,837.3 900.9,838.7 C900.2,839.4 900.0,840.6 900.3,841.4 C901.0,843.2 903.6,843.5 904.6,841.9 Z M167.8,840.8 C170.8,837.8 167.6,827.0 162.8,823.6 C157.9,820.1 154.0,822.2 154.0,828.2 C154.0,837.1 163.2,845.4 167.8,840.8 Z M692.3,835.2 C697.5,829.8 699.5,820.5 696.9,813.1 C695.6,809.5 693.7,809.5 693.2,813.1 C693.0,814.4 691.8,820.1 690.4,825.8 C689.1,831.5 688.0,836.6 688.0,837.1 C688.0,838.7 689.6,838.1 692.3,835.2 Z M883.6,833.9 C884.6,832.2 882.3,830.3 880.9,831.7 C879.7,832.9 880.5,835.0 882.0,835.0 C882.5,835.0 883.2,834.5 883.6,833.9 Z M103.4,818.8 C98.7,814.7 96.1,808.9 96.0,802.7 C96.0,794.1 100.7,787.4 106.1,788.2 C108.6,788.5 110.0,791.0 107.7,791.0 C105.9,791.0 103.5,794.6 102.7,798.5 C101.3,805.8 107.6,817.0 113.2,817.0 C116.6,817.0 117.3,818.0 115.3,820.2 C112.7,823.1 107.7,822.5 103.4,818.8 Z M595.6,814.1 C595.3,813.6 595.7,812.6 596.6,811.9 C601.2,808.1 602.6,797.8 599.0,794.5 C597.2,792.9 596.9,792.8 594.5,794.4 C591.3,796.5 588.9,800.2 588.1,804.3 C587.1,809.2 584.6,808.5 584.2,803.2 C583.6,794.5 591.6,786.3 599.3,787.7 C600.8,788.0 603.3,789.8 605.0,791.7 C607.4,794.4 608.0,796.0 608.0,799.6 C608.0,805.3 606.0,810.1 602.5,812.8 C599.6,815.1 596.5,815.7 595.6,814.1 Z M125.9,774.6 C120.6,771.0 117.6,764.2 117.6,755.5 C117.6,743.0 123.5,735.0 132.6,735.0 C137.2,735.0 141.3,738.0 143.0,742.5 C145.2,748.3 142.8,750.2 139.8,745.0 C138.0,741.8 133.6,740.1 131.1,741.7 C124.2,746.0 122.8,760.1 128.6,767.0 C131.8,770.8 135.7,771.0 139.0,767.5 C143.1,763.2 146.2,764.8 143.6,769.9 C139.8,777.1 132.4,779.0 125.9,774.6 Z M701.7,768.7 C706.5,761.6 707.0,751.9 703.1,744.2 C701.1,740.2 698.3,737.3 697.4,738.2 C696.7,739.0 698.1,772.0 698.9,772.0 C699.2,772.0 700.5,770.5 701.7,768.7 Z M634.2,768.1 C629.5,765.1 629.9,762.8 634.9,763.6 C638.3,764.1 639.2,763.9 641.3,761.7 C643.8,759.3 646.0,753.5 646.0,749.4 C646.0,745.2 642.9,737.3 640.3,734.8 C635.8,730.5 632.8,730.3 628.6,734.0 C625.7,736.6 624.9,736.9 624.4,735.7 C624.1,734.9 624.6,732.8 625.4,731.2 C629.9,722.5 639.5,722.9 647.2,732.0 C651.5,736.9 653.0,741.8 653.0,750.2 C653.0,764.0 643.0,773.5 634.2,768.1 Z M59.1,751.8 C59.1,747.8 59.5,740.5 59.9,735.5 C60.4,730.5 60.6,726.3 60.4,726.1 C59.6,725.2 57.0,728.4 55.0,732.8 C53.2,736.5 52.9,738.7 53.2,744.5 C53.6,751.2 56.2,759.0 58.1,759.0 C58.6,759.0 59.0,755.7 59.1,751.8 Z M88.7,737.8 C86.3,734.0 85.8,731.2 87.0,727.6 C88.3,723.5 90.4,721.6 92.5,722.4 C93.9,722.9 93.9,723.2 92.5,725.4 C91.4,727.1 90.9,729.6 91.1,733.4 C91.4,739.9 90.7,741.1 88.7,737.8 Z M832.8,731.0 C833.2,727.9 830.7,724.2 820.7,712.3 C808.8,698.2 799.8,685.8 795.2,677.2 C790.2,667.7 791.0,665.6 797.4,671.9 C802.8,677.2 804.0,677.2 802.9,671.8 C801.8,665.9 800.7,663.1 797.2,658.4 C793.5,653.4 779.8,644.0 770.7,640.3 C762.9,637.2 762.8,637.1 752.9,619.9 C730.7,581.2 704.9,554.4 668.5,532.4 C650.9,521.7 643.3,517.9 642.2,519.3 C640.8,521.1 637.0,530.0 637.0,531.6 C637.0,532.3 640.6,534.8 645.0,537.0 C655.2,542.4 674.8,555.2 687.0,564.5 C708.5,581.1 730.2,607.5 742.8,632.6 C748.0,643.0 748.5,645.5 746.1,648.9 C744.9,650.5 742.7,654.6 741.0,658.1 C736.9,666.8 737.0,672.5 741.2,681.6 C744.3,688.1 744.5,689.2 744.5,699.5 C744.5,709.0 744.7,710.5 746.2,710.8 C748.8,711.3 751.8,709.3 753.7,705.7 C754.9,703.4 755.4,699.8 755.4,693.0 C755.5,681.6 756.9,678.7 763.0,676.9 C772.5,674.0 782.2,681.9 797.3,704.8 C811.4,726.0 820.6,734.4 829.0,733.8 C831.9,733.5 832.5,733.1 832.8,731.0 Z M784.8,712.0 C786.5,710.9 788.0,709.7 788.0,709.3 C788.0,707.9 781.5,699.0 780.5,699.0 C780.0,699.0 778.7,700.4 777.7,702.1 L776.0,705.2 L771.9,701.5 C769.7,699.5 767.3,698.1 766.7,698.3 C766.1,698.5 765.2,700.6 764.8,703.0 C764.2,706.4 764.4,707.8 765.6,709.1 C770.0,714.0 779.2,715.4 784.8,712.0 Z M646.1,705.6 C645.1,704.4 645.4,703.8 647.9,702.6 C651.9,700.5 653.0,698.2 653.0,692.0 C653.0,685.4 651.2,681.3 646.6,677.2 C642.9,674.0 637.8,672.9 636.4,675.1 C635.4,676.7 633.8,674.6 634.6,672.6 C635.7,669.8 640.8,667.7 644.7,668.5 C649.4,669.4 657.2,677.1 658.8,682.6 C660.4,688.2 660.3,696.5 658.5,700.0 C655.5,705.9 648.8,708.9 646.1,705.6 Z M111.5,701.0 C110.4,700.6 108.5,699.2 107.3,697.9 C97.2,687.0 106.0,663.0 120.1,663.0 C125.2,663.0 126.8,663.8 128.5,667.1 C130.3,670.5 129.3,671.3 125.2,669.8 C118.2,667.1 110.9,675.3 110.7,685.9 C110.6,691.7 112.9,695.7 117.1,697.2 C120.5,698.4 120.8,699.5 118.1,701.0 C115.8,702.2 114.3,702.2 111.5,701.0 Z M692.1,692.2 C693.6,688.5 692.5,680.6 689.9,676.4 C687.9,673.1 684.3,670.3 683.3,671.3 C683.1,671.6 684.0,675.3 685.4,679.6 C686.9,683.8 688.3,689.0 688.6,691.1 C689.4,695.7 690.6,696.1 692.1,692.2 Z M772.1,688.8 C768.8,685.9 765.5,685.4 765.5,687.8 C765.5,689.3 773.0,693.0 774.4,692.2 C774.9,691.9 773.9,690.4 772.1,688.8 Z M603.6,681.3 C603.3,680.9 604.3,679.4 606.0,677.9 C608.4,675.6 609.0,674.3 609.0,671.0 C609.0,666.1 606.6,660.5 603.6,658.5 C602.5,657.7 599.9,657.0 597.8,657.0 C593.6,657.0 593.1,656.1 595.8,653.8 C598.9,651.0 601.4,650.9 606.0,653.2 C612.4,656.5 615.3,662.3 614.8,670.9 C614.4,676.4 614.0,677.6 611.6,679.6 C609.0,681.9 605.1,682.7 603.6,681.3 Z M169.8,664.4 C166.1,662.4 165.0,660.1 165.0,654.0 C165.0,642.9 173.4,634.0 184.0,634.0 C187.0,634.0 188.3,634.6 190.4,637.1 C196.5,644.3 191.5,658.6 180.9,664.0 C176.4,666.4 173.5,666.5 169.8,664.4 Z M183.3,656.2 C187.6,652.0 189.5,646.5 188.0,642.6 C187.2,640.4 186.4,640.0 183.2,640.0 C175.0,640.0 167.5,653.4 172.6,659.1 C175.0,661.8 178.4,660.9 183.3,656.2 Z M471.6,644.0 C494.2,640.1 516.4,632.4 536.5,621.3 C554.3,611.5 568.2,600.7 584.1,584.3 C600.5,567.5 611.2,552.0 622.0,529.7 C634.4,504.4 639.3,485.2 639.3,462.5 C639.3,446.6 637.4,437.8 632.0,426.9 C624.0,411.2 608.0,402.2 592.7,404.9 C579.0,407.3 566.8,416.7 560.1,430.0 C555.1,440.1 553.6,447.1 554.3,458.5 C554.8,468.7 558.7,480.9 563.8,488.2 C567.7,493.8 579.4,505.0 581.4,505.0 C582.8,505.0 590.0,495.6 590.0,493.7 C590.0,493.2 587.1,490.0 583.5,486.6 C578.7,481.9 576.1,478.3 573.3,472.4 C569.8,465.0 569.5,463.9 569.6,455.5 C569.6,448.3 570.1,445.6 571.8,442.0 C576.9,431.6 584.4,426.0 593.4,426.0 C606.7,426.0 614.2,437.0 614.3,456.5 C614.4,468.9 612.4,477.4 606.5,489.9 C597.3,509.2 582.8,526.8 565.3,539.7 C555.0,547.3 535.3,557.2 523.6,560.5 C513.5,563.4 495.1,566.0 485.2,566.0 C468.7,566.0 449.6,561.4 433.4,553.5 C396.1,535.4 369.7,499.7 359.9,454.2 C358.5,447.4 357.7,439.1 357.3,426.7 L356.7,408.9 L352.8,406.9 L348.8,404.9 L342.9,409.0 C324.6,421.8 304.0,426.1 291.5,419.7 C285.1,416.5 276.4,407.3 271.7,399.0 C263.9,384.9 258.0,360.6 258.0,342.3 C258.0,330.1 263.1,312.7 266.0,314.5 C266.6,314.9 267.0,321.7 267.0,330.3 C267.0,361.7 274.4,387.7 287.6,402.8 C293.3,409.3 298.3,412.0 304.8,412.0 C317.4,412.0 331.2,405.5 354.0,388.9 C363.1,382.3 371.5,376.7 372.8,376.3 C374.1,376.0 377.8,376.1 381.1,376.4 C388.1,377.2 388.7,376.0 384.0,370.6 C379.9,366.0 375.4,364.6 366.6,365.3 C360.3,365.8 357.6,366.8 343.0,374.0 C333.9,378.5 324.7,383.6 322.5,385.4 C320.3,387.2 317.5,389.2 316.3,389.8 C313.0,391.6 306.1,391.2 302.6,389.1 C300.9,388.1 297.9,387.0 295.9,386.6 C291.3,385.8 287.1,381.4 286.3,376.5 C286.0,374.3 284.6,371.1 283.3,369.2 C280.7,365.2 280.4,361.4 282.4,356.6 C284.2,352.4 289.5,346.3 293.1,344.4 L296.0,342.9 L296.0,331.6 C296.0,320.3 296.5,317.0 298.0,317.0 C299.2,317.0 301.1,323.2 302.4,331.7 L303.5,339.3 L309.5,339.5 C320.5,340.0 330.6,345.5 340.5,356.2 L346.1,362.2 L352.9,359.7 C356.6,358.3 361.8,356.9 364.4,356.5 C369.1,355.8 369.2,355.7 372.1,349.4 C381.9,327.4 397.2,309.5 413.4,300.9 L419.4,297.7 L417.0,296.1 C408.7,290.6 402.4,285.0 398.6,279.6 C394.0,273.3 389.3,263.0 391.0,263.0 C391.5,263.0 393.9,265.7 396.4,268.9 C402.8,277.2 411.4,284.5 419.3,288.5 C426.1,291.9 432.6,293.8 433.7,292.6 C434.0,292.3 432.3,289.9 429.9,287.3 C420.1,276.8 410.9,260.0 407.5,246.5 C405.7,239.4 405.1,223.5 406.4,219.2 C407.5,215.7 409.0,216.6 409.0,220.9 C409.0,226.5 413.3,242.4 416.9,250.4 C426.7,272.1 447.0,292.4 470.9,304.4 C480.9,309.5 498.8,315.3 514.5,318.7 C526.3,321.2 529.4,321.4 547.5,321.4 C564.4,321.4 569.1,321.0 578.0,319.1 C620.2,310.1 650.9,287.5 668.0,253.3 C676.0,237.1 679.4,221.7 679.3,202.0 C679.3,177.6 672.2,153.2 660.0,135.5 C657.3,131.6 656.4,130.9 654.4,131.4 C652.7,131.9 650.8,131.1 647.3,128.4 C641.5,123.9 637.9,122.4 629.5,120.6 C621.9,119.0 620.0,117.7 620.0,114.2 C620.0,110.2 622.7,108.0 627.7,108.0 C630.0,108.0 632.0,107.6 632.0,107.1 C632.0,105.2 620.4,97.8 608.5,92.0 C580.8,78.5 557.6,73.5 523.5,73.6 C488.8,73.7 460.6,79.6 423.0,94.4 C390.7,107.2 354.9,131.3 327.0,159.0 C250.8,234.4 211.1,341.9 223.6,439.0 C225.4,453.2 229.3,472.2 232.5,483.2 C245.6,527.1 273.0,569.9 303.7,594.4 C310.7,600.0 310.9,600.1 319.7,601.0 C340.6,603.3 367.0,611.0 386.5,620.4 C396.8,625.4 417.8,638.7 424.5,644.5 L427.5,647.1 L443.6,646.6 C452.5,646.3 464.9,645.1 471.6,644.0 Z M89.5,627.4 C93.4,619.4 96.3,612.7 96.0,612.5 C95.7,612.3 93.2,613.4 90.5,614.8 C83.5,618.6 80.1,625.0 80.0,634.1 C80.0,640.2 80.5,642.1 81.9,641.9 C82.2,641.9 85.7,635.4 89.5,627.4 Z M669.4,626.2 C669.3,621.2 668.7,619.1 666.4,615.3 C663.1,610.0 656.0,604.4 653.6,605.3 C652.3,605.8 652.7,607.0 655.9,612.2 C657.9,615.7 661.4,621.8 663.5,625.8 C665.7,629.8 667.9,632.9 668.5,632.7 C669.0,632.5 669.5,629.6 669.4,626.2 Z M624.9,631.0 C624.9,630.7 624.8,628.0 624.7,624.9 C624.5,618.6 621.2,613.2 615.8,610.4 C613.1,609.0 612.9,608.7 614.3,607.3 C615.5,606.0 616.4,606.0 619.3,606.9 C623.4,608.3 626.4,611.3 628.5,616.2 C630.7,621.6 630.4,625.4 627.5,628.7 C626.2,630.2 625.0,631.3 624.9,631.0 Z M143.2,628.7 C139.3,626.5 137.5,622.9 137.5,617.0 C137.6,601.1 155.8,587.7 169.5,593.4 C174.2,595.4 176.7,600.6 175.4,605.6 C174.3,610.0 172.7,610.1 171.8,605.8 C170.8,601.0 167.5,598.7 162.2,599.3 C153.7,600.2 145.5,608.8 144.3,618.0 C143.8,621.5 144.1,622.3 146.9,625.0 C151.5,629.2 148.9,631.8 143.2,628.7 Z M137.0,559.5 L145.5,551.0 L141.9,551.0 C137.3,551.0 132.2,554.5 129.3,559.5 C127.1,563.4 126.3,568.0 127.8,568.0 C128.2,568.0 132.3,564.2 137.0,559.5 Z M192.5,559.0 C189.8,550.4 201.7,540.8 210.5,544.5 C214.8,546.2 214.3,547.7 209.2,548.6 C202.1,549.9 196.0,554.8 196.0,559.1 C196.0,561.6 193.3,561.5 192.5,559.0 Z M504.6,550.9 C515.9,549.2 528.4,545.0 540.9,538.7 C547.8,535.3 553.5,531.9 553.8,531.3 C554.9,527.7 513.7,506.7 490.8,499.1 C462.4,489.7 442.2,485.4 415.0,483.0 C400.6,481.7 385.3,481.7 384.5,483.1 C383.5,484.6 392.1,499.0 399.5,508.5 C413.1,525.8 428.3,537.5 447.0,544.8 C466.1,552.3 483.4,554.1 504.6,550.9 Z M193.0,516.2 C198.8,512.7 203.6,509.5 203.8,509.0 C204.4,507.5 196.3,506.8 192.1,508.1 C186.9,509.7 180.5,515.1 177.9,520.1 C175.4,525.0 176.2,526.7 179.8,524.4 C181.3,523.4 187.2,519.7 193.0,516.2 Z M478.7,525.4 C478.3,525.0 478.0,523.5 478.0,522.1 C478.0,517.2 473.5,513.1 465.6,510.9 C461.7,509.8 455.9,511.3 452.1,514.6 C446.5,519.3 446.9,512.0 452.6,507.1 C456.6,503.5 463.4,502.2 469.1,503.9 C476.1,506.0 483.0,513.7 483.0,519.3 C483.0,522.1 479.9,526.5 478.7,525.4 Z M516.8,491.3 C515.5,489.9 513.3,488.2 511.8,487.4 C508.6,485.8 500.7,485.5 501.2,487.1 C501.6,488.3 517.1,494.8 518.3,494.2 C518.8,494.0 518.1,492.7 516.8,491.3 Z M597.7,478.9 C601.6,470.8 603.3,453.2 600.9,445.9 C599.3,441.3 596.1,438.0 593.2,438.0 C589.4,438.0 584.4,441.6 582.4,445.8 C579.9,450.9 580.1,461.1 582.8,467.3 C585.1,472.4 593.7,482.3 595.4,481.7 C596.0,481.5 597.0,480.2 597.7,478.9 Z M468.0,476.0 C468.0,474.1 460.9,468.3 457.1,467.2 C451.6,465.5 445.0,465.7 441.1,467.8 C435.5,470.6 436.2,471.7 444.2,473.0 C448.2,473.6 454.0,474.8 457.0,475.5 C463.8,477.1 468.0,477.3 468.0,476.0 Z M409.0,468.0 C409.0,466.4 405.3,465.0 401.0,465.0 C396.7,465.0 393.0,466.4 393.0,468.0 C393.0,468.6 396.5,469.0 401.0,469.0 C405.5,469.0 409.0,468.6 409.0,468.0 Z M404.8,407.0 C406.7,405.8 408.8,403.3 409.7,401.2 C412.0,395.8 411.0,379.1 407.6,367.8 C404.3,356.5 396.1,337.8 394.6,338.3 C393.1,338.8 387.5,348.2 385.4,353.7 L383.7,358.1 L387.5,361.2 C391.5,364.5 397.0,374.8 397.0,378.9 C397.0,380.3 397.7,382.2 398.6,383.2 C400.2,384.8 400.1,385.0 398.5,385.6 C397.6,386.0 392.4,385.7 386.9,385.1 C379.2,384.2 376.6,384.2 374.8,385.1 C370.6,387.3 359.1,396.5 359.0,397.6 C359.0,399.0 371.3,404.7 379.5,407.1 C388.1,409.6 400.5,409.6 404.8,407.0 Z M313.3,381.8 C314.5,381.2 317.3,379.2 319.5,377.5 C321.7,375.7 326.8,372.6 330.8,370.6 C334.7,368.6 338.0,366.6 338.0,366.1 C338.0,364.1 324.2,352.5 319.2,350.2 C306.7,344.5 292.3,349.8 289.5,361.3 C288.6,364.7 290.0,364.7 293.1,361.4 C296.8,357.5 303.3,354.0 307.5,353.7 C312.8,353.4 313.0,355.5 307.8,358.1 C297.6,363.1 291.0,373.6 295.2,377.8 C297.3,379.9 298.6,379.1 301.7,374.2 C305.5,368.0 310.8,364.0 316.0,363.3 C320.8,362.6 321.4,364.2 317.2,366.4 C312.6,368.8 307.0,375.6 307.0,378.8 C307.0,383.2 309.0,384.1 313.3,381.8 Z M553.0,299.4 C547.1,297.8 540.7,294.4 534.7,289.6 C526.6,283.1 518.2,266.9 515.0,251.8 C513.8,245.7 513.1,245.2 508.6,247.0 C505.7,248.1 503.0,247.4 503.0,245.6 C503.0,244.3 516.1,235.2 521.2,232.9 C522.7,232.3 524.6,232.0 525.5,232.4 C527.1,233.0 527.1,233.2 525.5,235.6 C524.6,237.0 524.1,238.8 524.4,239.5 C525.2,241.6 542.5,249.6 551.5,252.0 C568.4,256.5 588.4,255.5 603.4,249.4 C611.0,246.3 613.1,244.4 612.4,241.4 C611.4,237.3 614.5,237.4 619.5,241.6 C627.7,248.3 629.2,254.9 621.7,251.1 C617.2,248.8 617.4,248.7 612.2,260.7 C602.4,283.3 588.3,296.8 571.1,300.0 C564.0,301.3 559.7,301.2 553.0,299.4 Z M573.8,292.3 C575.9,291.8 576.1,291.3 575.6,288.6 C574.8,284.5 567.4,277.5 562.1,275.9 C557.3,274.5 556.4,275.0 558.0,278.0 C560.0,281.7 558.2,281.6 554.2,277.8 C548.8,272.6 544.4,270.6 537.8,270.6 C529.7,270.5 528.8,271.8 533.2,277.5 C543.6,290.9 558.3,296.2 573.8,292.3 Z M623.5,226.1 C623.2,225.6 623.4,224.9 624.0,224.5 C625.7,223.5 624.2,222.2 619.1,220.0 C613.6,217.6 605.1,209.3 602.1,203.5 C597.1,193.7 595.8,180.8 598.5,169.1 C601.5,156.6 609.6,146.0 619.8,141.2 C624.5,139.0 626.9,138.5 633.5,138.5 C640.2,138.5 642.4,138.9 647.2,141.3 C654.0,144.6 661.8,152.8 665.3,160.3 C672.3,175.0 671.1,194.1 662.5,207.1 C659.4,211.9 659.4,212.4 662.5,213.8 C667.1,215.9 665.3,217.0 657.2,217.0 C647.6,217.0 639.4,219.1 631.2,223.5 C624.2,227.4 624.3,227.4 623.5,226.1 Z M510.5,220.4 C499.5,212.7 489.7,209.1 476.7,208.1 C469.0,207.5 467.1,206.4 470.6,204.5 C475.1,202.1 475.1,202.1 472.6,197.7 C468.9,191.4 467.0,183.5 467.0,175.0 C467.0,156.5 476.3,141.4 492.7,133.3 C500.2,129.6 500.7,129.5 510.9,129.5 C522.7,129.6 528.0,131.1 536.4,136.9 C542.3,141.0 549.2,150.2 552.0,157.8 C560.1,179.1 551.0,204.9 532.0,214.4 C528.2,216.3 523.3,218.1 521.1,218.5 C517.6,219.1 517.0,219.5 517.0,221.6 C517.0,224.7 516.5,224.6 510.5,220.4 Z M654.5,207.9 C666.3,193.8 666.5,170.7 654.9,156.1 C639.4,136.4 612.0,144.2 604.5,170.4 C602.2,178.2 602.9,190.7 605.8,197.3 C607.0,199.9 608.1,202.0 608.3,202.0 C608.5,202.0 608.5,198.5 608.2,194.2 C607.7,185.1 608.9,180.0 613.0,173.7 C626.3,153.7 652.1,161.6 655.5,186.7 C656.2,192.3 654.2,202.5 651.5,206.3 C648.0,211.3 650.5,212.6 654.5,207.9 Z M496.0,204.6 C496.0,204.4 495.0,202.0 493.8,199.3 C492.2,195.6 491.6,192.5 491.6,186.0 C491.6,178.4 491.9,176.9 494.7,171.4 C498.2,164.7 504.0,158.9 509.7,156.4 C515.7,153.9 526.6,154.8 531.8,158.3 C540.3,163.9 545.7,175.1 544.8,185.6 C544.4,190.8 545.3,192.9 546.4,189.2 C552.5,169.2 544.3,148.0 527.3,139.5 C522.1,136.9 520.4,136.6 512.0,136.5 C503.6,136.5 501.8,136.8 496.9,139.3 C478.7,148.2 469.9,168.3 475.8,187.6 C479.0,198.0 481.5,201.0 488.6,203.1 C495.4,205.0 496.0,205.1 496.0,204.6 Z M646.0,183.0 C650.3,178.7 647.4,171.0 641.4,171.0 C634.8,171.0 631.7,177.9 636.2,182.7 C638.9,185.6 643.3,185.7 646.0,183.0 Z M534.2,175.9 C536.8,172.9 536.5,168.4 533.5,165.5 C530.7,162.6 529.0,162.4 525.1,164.5 C520.2,167.0 519.5,172.6 523.6,176.7 C525.6,178.7 526.7,179.1 529.3,178.6 C531.1,178.3 533.3,177.0 534.2,175.9 Z M481.6,119.1 C479.6,115.9 490.1,105.0 499.5,100.5 C504.6,98.1 506.8,97.6 513.7,97.6 C521.0,97.5 522.1,97.8 524.4,99.9 C527.7,103.0 527.8,107.3 524.8,109.4 C523.2,110.5 520.2,111.0 515.0,111.0 C505.9,111.0 497.5,113.0 490.1,117.0 C484.4,120.1 482.5,120.6 481.6,119.1 Z" fill="#000000" fill-rule="evenodd"/></g><path class="bubble" d="M104,24 L738,24 A34,34 0 0 1 772,58 L772,158 A34,34 0 0 1 738,192 L275,192 L316,268 L200,192 L104,192 A34,34 0 0 1 70,158 L70,58 A34,34 0 0 1 104,24 Z" fill="#fff" stroke="#000" stroke-width="5" stroke-linejoin="round"/><g id="labels-en" class="labellayer" style="display:inline"><text font-family="Baloo 2, Comic Sans MS, system-ui, sans-serif" font-weight="700" text-anchor="middle" font-size="46" fill="#000"><tspan x="421" y="98">I sound the sneeze</tspan><tspan x="421" y="153">alarm!</tspan></text></g><g id="labels-de" class="labellayer" style="display:none"><text font-family="Baloo 2, Comic Sans MS, system-ui, sans-serif" font-weight="700" text-anchor="middle" font-size="46" fill="#000"><tspan x="421" y="125">Ich schlage Nies-Alarm!</tspan></text></g></svg>